<?xml version="1.0" encoding="utf-8"?>
<!-- Generator: Adobe Illustrator 16.0.0, SVG Export Plug-In . SVG Version: 6.00 Build 0)  -->
<!DOCTYPE svg PUBLIC "-//W3C//DTD SVG 1.1//EN" "http://www.w3.org/Graphics/SVG/1.1/DTD/svg11.dtd">
<svg version="1.1" id="Layer_1" xmlns="http://www.w3.org/2000/svg" xmlns:xlink="http://www.w3.org/1999/xlink" x="0px" y="0px"
	 width="146.645px" height="203.617px" viewBox="0 0 146.645 203.617" enable-background="new 0 0 146.645 203.617"
	 xml:space="preserve">
<g id="rootBody">
	<g id="Layer_25">
		<polyline fill="#8DABFF" points="13.026,35.334 37.693,0 107.692,6 122.359,37.334 126.359,71.334 99.692,84 29.026,63.334 
			13.026,38 		"/>
		<circle id="dummy_5_" fill="#46ECFF" cx="75.51" cy="89.818" r="3.318"/>
	</g>
	<rect x="26" y="2.617" fill="#FFFFFF" width="5" height="77"/>
	<rect x="35" y="8.617" fill="#FFFFFF" width="5" height="71"/>
	<rect x="44" y="10.617" fill="#FFFFFF" width="5" height="69"/>
	<rect x="53" y="14.617" fill="#FFFFFF" width="5" height="65"/>
	<rect x="62" y="18.617" fill="#FFFFFF" width="5" height="61"/>
	<rect x="71" y="20.617" fill="#FFFFFF" width="5" height="59"/>
	<rect x="80" y="23.617" fill="#FFFFFF" width="5" height="56"/>
	<rect x="89" y="26.617" fill="#FFFFFF" width="5" height="53"/>
	<rect x="98" y="28.617" fill="#FFFFFF" width="5" height="51"/>
	<rect x="107" y="32.617" fill="#FFFFFF" width="5" height="47"/>
	<rect x="116" y="36.617" fill="#FFFFFF" width="5" height="43"/>
	<circle id="dummy_17_" fill="#46ECFF" cx="75.51" cy="98.818" r="3.318"/>
	<g id="Layer_11">
		<g id="Layer_13">
			<line fill="none" stroke="#D891FF" stroke-width="2" stroke-miterlimit="10" x1="81" y1="145.617" x2="81" y2="163.617"/>
			
				<line fill="none" stroke="#D891FF" stroke-width="2" stroke-miterlimit="10" x1="50.359" y1="142.333" x2="54.359" y2="153.333"/>
			<line fill="none" x1="38.359" y1="115.999" x2="55.026" y2="142.666"/>
			
				<line fill="none" stroke="#D891FF" stroke-width="2" stroke-miterlimit="10" x1="83.693" y1="138.666" x2="105.026" y2="132.666"/>
			
				<line fill="none" stroke="#D891FF" stroke-width="2" stroke-miterlimit="10" x1="55.693" y1="134.666" x2="75.026" y2="137.999"/>
			
				<line fill="none" stroke="#D891FF" stroke-width="2" stroke-miterlimit="10" x1="31.026" y1="109.999" x2="48.359" y2="134.666"/>
			
				<line fill="none" stroke="#D891FF" stroke-width="2" stroke-miterlimit="10" x1="61.693" y1="113.333" x2="54.359" y2="133.999"/>
			
				<line fill="none" stroke="#D891FF" stroke-width="2" stroke-miterlimit="10" x1="72.359" y1="169.999" x2="50.359" y2="156.666"/>
			
				<line fill="none" stroke="#D891FF" stroke-width="2" stroke-miterlimit="10" x1="87.026" y1="171.333" x2="101.693" y2="178.666"/>
			
				<line fill="none" stroke="#D891FF" stroke-width="2" stroke-miterlimit="10" x1="124.359" y1="185.999" x2="116.359" y2="180.666"/>
			
				<line fill="none" stroke="#D891FF" stroke-width="2" stroke-miterlimit="10" x1="120.359" y1="138.666" x2="114.359" y2="177.333"/>
			
				<line fill="none" stroke="#D891FF" stroke-width="2" stroke-miterlimit="10" x1="43.693" y1="185.999" x2="73.693" y2="177.999"/>
			
				<line fill="none" stroke="#D891FF" stroke-width="2" stroke-miterlimit="10" x1="27.693" y1="155.333" x2="48.359" y2="142.666"/>
			<line fill="none" stroke="#D891FF" stroke-width="2" stroke-miterlimit="10" x1="29" y1="161.617" x2="56" y2="161.617"/>
			
				<line fill="none" stroke="#D891FF" stroke-width="2" stroke-miterlimit="10" x1="17.693" y1="161.999" x2="35.693" y2="184.666"/>
			<line fill="none" stroke="#D891FF" stroke-width="2" stroke-miterlimit="10" x1="37.693" y1="104" x2="57.026" y2="110.667"/>
			<line fill="none" stroke="#D891FF" stroke-width="2" stroke-miterlimit="10" x1="66.359" y1="112" x2="113.026" y2="110.667"/>
			
				<line fill="none" stroke="#D891FF" stroke-width="2" stroke-miterlimit="10" x1="29.026" y1="108.667" x2="17.693" y2="149.333"/>
			<line fill="none" stroke="#D891FF" stroke-width="2" stroke-miterlimit="10" x1="143.693" y1="142" x2="141.026" y2="192"/>
		</g>
		<g id="Layer_12">
		</g>
	</g>
	<g id="Layer_24">
		<path fill="#51EDFF" d="M36.549,95.187c-6.728-6.727-16.25-8.923-24.824-6.638c-2.286,8.575-0.088,18.098,6.639,24.823
			c6.729,6.729,16.25,8.926,24.826,6.642C45.474,111.438,43.277,101.916,36.549,95.187z"/>
		<circle id="dummy_13_" fill="#46ECFF" cx="25.51" cy="99.818" r="3.318"/>
	</g>
	<g id="Layer_23">
		<path fill="#51EDFF" d="M28.484,142.663c-7.456-7.456-18.012-9.89-27.516-7.356c-2.534,9.504-0.097,20.059,7.358,27.514
			c7.46,7.46,18.012,9.895,27.519,7.363C38.377,160.678,35.942,150.122,28.484,142.663z"/>
		<circle id="dummy_16_" fill="#46ECFF" cx="19.51" cy="148.817" r="3.318"/>
	</g>
	<g id="Layer_22">
		<path fill="#51EDFF" d="M43.181,182.693c-3.88-3.881-9.374-5.147-14.32-3.829c-1.318,4.946-0.051,10.438,3.83,14.319
			c3.883,3.883,9.374,5.148,14.322,3.832C48.33,192.068,47.062,186.575,43.181,182.693z"/>
		<circle id="dummy_14_" fill="#46ECFF" cx="36.51" cy="184.817" r="3.318"/>
	</g>
	<g id="Layer_21">
		<path fill="#51EDFF" d="M59.726,162.248c3.142-3.141,4.166-7.586,3.1-11.589c-4.004-1.067-8.448-0.041-11.59,3.099
			c-3.141,3.143-4.167,7.587-3.101,11.592C52.139,166.415,56.584,165.391,59.726,162.248z"/>
		<circle id="dummy_15_" fill="#46ECFF" cx="55.51" cy="157.817" r="3.318"/>
	</g>
	<g id="Layer_20">
		<path fill="#51EDFF" d="M138.868,197.197c5.746-5.746,7.621-13.883,5.67-21.207c-7.325-1.952-15.459-0.075-21.206,5.671
			c-5.749,5.751-7.625,13.883-5.675,21.21C124.982,204.823,133.119,202.945,138.868,197.197z"/>
		<circle id="dummy_12_" fill="#46ECFF" cx="131.51" cy="186.817" r="3.318"/>
	</g>
	<g id="Layer_19">
		<path fill="#51EDFF" d="M85.617,182.613c6.887-6.887,9.135-16.637,6.796-25.415c-8.778-2.341-18.527-0.091-25.414,6.797
			c-6.89,6.891-9.139,16.637-6.8,25.418C68.979,191.752,78.728,189.503,85.617,182.613z"/>
		<circle id="dummy_6_" fill="#46ECFF" cx="75.51" cy="175.817" r="3.318"/>
	</g>
	<g id="Layer_18">
		<path fill="#51EDFF" d="M65.834,104.014c-3.757-3.757-9.077-4.983-13.866-3.708c-1.277,4.789-0.049,10.107,3.708,13.865
			c3.759,3.759,9.077,4.985,13.867,3.71C70.819,113.091,69.592,107.771,65.834,104.014z"/>
		<circle id="dummy_9_" fill="#46ECFF" cx="60.51" cy="105.817" r="3.318"/>
	</g>
	<g id="Layer_17">
		<path fill="#51EDFF" d="M54.322,143.652c4.25-4.25,5.639-10.268,4.194-15.686c-5.417-1.443-11.434-0.056-15.684,4.194
			c-4.251,4.253-5.64,10.269-4.196,15.687C44.053,149.292,50.07,147.904,54.322,143.652z"/>
		<circle id="dummy_10_" fill="#46ECFF" cx="51.51" cy="137.817" r="3.318"/>
	</g>
	<g id="Layer_16">
		<path fill="#51EDFF" d="M133.691,109.484c-11.596-11.595-28.014-15.38-42.795-11.443c-3.939,14.782-0.149,31.197,11.444,42.793
			c11.603,11.602,28.013,15.386,42.798,11.451C149.079,137.502,145.291,121.089,133.691,109.484z"/>
		<circle id="dummy_8_" fill="#46ECFF" cx="117.51" cy="119.817" r="3.318"/>
	</g>
	<g id="Layer_15">
		<path fill="#51EDFF" d="M84.119,132.915c-4.938-4.938-11.93-6.55-18.224-4.873c-1.678,6.294-0.063,13.284,4.873,18.224
			c4.941,4.938,11.93,6.551,18.226,4.875C90.672,144.845,89.06,137.855,84.119,132.915z"/>
		<circle id="dummy_7_" fill="#46ECFF" cx="79.51" cy="141.817" r="3.318"/>
	</g>
	<g id="Layer_14">
		<path fill="#51EDFF" d="M118.327,179.216c0-6.926-3.772-12.96-9.362-16.198c-5.593,3.237-9.362,9.271-9.364,16.198
			c0.002,6.931,3.772,12.961,9.363,16.201C114.556,192.18,118.327,186.146,118.327,179.216z"/>
		<circle id="dummy_11_" fill="#46ECFF" cx="108.51" cy="175.817" r="3.318"/>
	</g>
</g>
</svg>
