<?xml version="1.0" encoding="iso-8859-1"?>
<!-- Generator: Adobe Illustrator 16.0.0, SVG Export Plug-In . SVG Version: 6.00 Build 0)  -->
<!DOCTYPE svg PUBLIC "-//W3C//DTD SVG 1.1//EN" "http://www.w3.org/Graphics/SVG/1.1/DTD/svg11.dtd">
<svg version="1.1" xmlns="http://www.w3.org/2000/svg" xmlns:xlink="http://www.w3.org/1999/xlink" x="0px" y="0px"
	 width="95.438px" height="201.887px" viewBox="0 0 95.438 201.887" style="enable-background:new 0 0 95.438 201.887;"
	 xml:space="preserve">
<g id="rootLegR">
	<polygon style="fill:#D891FF;" points="52.547,130.94 86.49,155.242 50.191,116.09 31.774,0 20.139,2.328 26.711,32.366 
		26.621,32.166 0,92.776 30.891,51.467 63.803,201.887 	"/>
	<circle id="dummy_1_" style="fill:#46ECFF;" cx="50.957" cy="118.865" r="3.318"/>
	<g id="Layer_9">
		<polygon style="fill:#FFFFFF;stroke:#000000;stroke-miterlimit:10;" points="58.019,94.062 78.087,100.246 77.646,101.681 
			92.457,106.248 94.813,98.603 59.455,87.703 57.099,95.349 57.576,95.495 		"/>
		<path style="fill:#FFFFFF;stroke:#000000;stroke-miterlimit:10;" d="M77.646,101.681l-1.031,3.347l-20.068-6.187l1.03-3.346
			l-0.478-0.146l-2.651,8.601l0.478,0.148l0.626-1.352l20.255,6.27l-0.004,0.004c5.093-1.302,11.292-1.839,16.759-2.428
			l-0.014-0.303L77.646,101.681z"/>
		<path style="fill:#FFFFFF;stroke:#000000;stroke-miterlimit:10;" d="M66.872,110.396l-12.683-3.907l0.735-2.391l-0.478-0.148
			l-2.651,8.6l2.027,0.626C57.979,112.197,62.378,111.261,66.872,110.396z"/>
		<rect x="67.082" y="87.371" transform="matrix(0.295 -0.9555 0.9555 0.295 -45.6962 133.8072)" width="1.499" height="21.001"/>
		<rect x="56.596" y="98.51" transform="matrix(-0.9556 -0.2946 0.2946 -0.9556 101.6779 215.8381)" width="21" height="3.502"/>
		<path d="M75.347,108.783l0.004-0.005l-20.026-6.15l-0.421,1.451l17.219,5.291C73.206,109.176,74.017,108.792,75.347,108.783z"/>
		<path d="M66.872,110.396c1.758-0.339,3.525-0.667,5.305-0.979l-17.252-5.319l-0.735,2.391L66.872,110.396z"/>
		<circle id="dummy_2_" style="fill:#46ECFF;" cx="50.957" cy="115.865" r="3.318"/>
	</g>
</g>
<g id="Layer_1">
</g>
</svg>
