<?xml version="1.0" encoding="iso-8859-1"?>
<!-- Generator: Adobe Illustrator 16.0.0, SVG Export Plug-In . SVG Version: 6.00 Build 0)  -->
<!DOCTYPE svg PUBLIC "-//W3C//DTD SVG 1.1//EN" "http://www.w3.org/Graphics/SVG/1.1/DTD/svg11.dtd">
<svg version="1.1" xmlns="http://www.w3.org/2000/svg" xmlns:xlink="http://www.w3.org/1999/xlink" x="0px" y="0px"
	 width="143.356px" height="166.02px" viewBox="0 0 143.356 166.02" style="enable-background:new 0 0 143.356 166.02;"
	 xml:space="preserve">
<g id="rootHandR">
	<line style="fill:none;stroke:#51EDFF;stroke-width:2;stroke-miterlimit:10;" x1="41" y1="98.02" x2="41" y2="69.02"/>
	<line style="fill:none;stroke:#51EDFF;stroke-width:2;stroke-miterlimit:10;" x1="82.515" y1="97.672" x2="122.819" y2="57.366"/>
	<line style="fill:none;stroke:#51EDFF;stroke-width:2;stroke-miterlimit:10;" x1="70" y1="97.02" x2="70" y2="54.02"/>
	<line style="fill:none;stroke:#51EDFF;stroke-width:2;stroke-miterlimit:10;" x1="12" y1="98.02" x2="82" y2="98.02"/>
	<circle id="dummy_19_" style="fill:#46ECFF;" cx="3.318" cy="96.504" r="3.318"/>
	<g id="Layer_29">
		<path style="fill:#D891FF;" d="M44.5,126.02c7.028,0,13.151,3.826,16.438,9.5c1.62-2.797,2.562-6.035,2.562-9.5
			c0-10.493-8.507-19-19-19s-19,8.507-19,19c0,3.465,0.942,6.703,2.562,9.5C31.349,129.846,37.472,126.02,44.5,126.02z"/>
		<path style="fill:#FFFFFF;" d="M44.5,166.02c7.028,0,13.151-3.826,16.438-9.5c-3.286-5.674-9.409-9.5-16.438-9.5
			s-13.151,3.826-16.438,9.5C31.349,162.193,37.472,166.02,44.5,166.02z"/>
		<circle id="dummy_20_" style="fill:#46ECFF;" cx="41.318" cy="70.504" r="3.318"/>
	</g>
	<g id="Layer_28">
		<polygon style="fill:#FFBC9D;" points="40.662,66.902 51.406,56.158 51.252,47.482 43.811,40.042 33.623,50.23 		"/>
		<polygon style="fill:#FFBC9D;" points="38.424,72.369 23.364,74.39 16.562,69.003 15.162,58.573 29.443,56.658 		"/>
		<circle id="dummy_21_" style="fill:#46ECFF;" cx="44.318" cy="101.504" r="3.318"/>
	</g>
	<g id="Layer_27">
		<path style="fill:none;stroke:#51EDFF;stroke-miterlimit:10;" d="M109,53.52c0-7,12.329-7,12.329,0c0,8-6.84-12.395,0-15.942
			c6.842-3.547,5.322,14.137,4.309,18.191s-4.561-15.23,10.39-1.8c14.948,13.429-10.727,11.241-1.857-9.537"/>
		<path style="fill:none;stroke:#51EDFF;stroke-miterlimit:10;" d="M126.5,57.02c7,0,7,12.073,0,12.073c-8,0,12.262-6.84,15.809,0
			c3.549,6.842-14.203,5.322-18.258,4.309c-4.054-1.014,15.197-4.561,1.767,10.39c-13.429,14.948-11.124-10.599,9.653-1.73"/>
		<circle id="dummy_22_" style="fill:#46ECFF;" cx="44.318" cy="101.504" r="3.318"/>
	</g>
	<g id="Layer_26">
		<polyline style="fill:none;stroke:#FFFFFF;stroke-miterlimit:10;" points="69.501,0.353 63.501,6.353 68.334,11.186 
			63.667,15.853 69.001,21.186 64.001,26.187 69.167,31.353 64.167,36.353 69.167,41.353 63.667,46.853 68.501,51.686 		"/>
		<polyline style="fill:none;stroke:#FFFFFF;stroke-miterlimit:10;" points="73.501,1.353 67.501,7.353 72.334,12.186 
			67.667,16.853 73.001,22.186 68.001,27.187 73.167,32.353 68.167,37.353 73.167,42.353 67.667,47.853 72.501,52.686 		"/>
		<polyline style="fill:none;stroke:#FFFFFF;stroke-miterlimit:10;" points="78.501,31.353 72.501,37.353 77.334,42.186 
			72.667,46.853 78.001,52.186 73.001,57.187 78.167,62.353 73.167,67.353 78.167,72.353 72.667,77.853 77.501,82.686 		"/>
		<circle id="dummy_18_" style="fill:#46ECFF;" cx="71.318" cy="58.504" r="3.318"/>
	</g>
</g>
<g id="Layer_1">
</g>
</svg>
