<?xml version="1.0" encoding="utf-8"?>
<!-- Generator: Adobe Illustrator 16.0.0, SVG Export Plug-In . SVG Version: 6.00 Build 0)  -->
<!DOCTYPE svg PUBLIC "-//W3C//DTD SVG 1.1//EN" "http://www.w3.org/Graphics/SVG/1.1/DTD/svg11.dtd">
<svg version="1.1" id="Layer_1" xmlns="http://www.w3.org/2000/svg" xmlns:xlink="http://www.w3.org/1999/xlink" x="0px" y="0px"
	 width="280.332px" height="271.902px" viewBox="0 0 280.332 271.902" enable-background="new 0 0 280.332 271.902"
	 xml:space="preserve">
<g id="rootHead">
	<path fill="#51EDFF" d="M143.932,41.741c-23.782,0-43.498-17.383-47.15-40.136c-0.399,2.484-0.614,5.032-0.614,7.629
		c0,26.38,21.385,47.765,47.765,47.765c26.381,0,47.767-21.385,47.767-47.765c0-2.597-0.216-5.145-0.614-7.629
		C187.43,24.357,167.715,41.741,143.932,41.741z"/>
	<circle fill="#FFBC9D" cx="143.82" cy="24.05" r="11.72"/>
	<path fill="#231F20" d="M141.667,108.999c-7.029,0-13.151-3.827-16.438-9.5c-1.62,2.797-2.562,6.035-2.562,9.5
		c0,10.493,8.506,19,19,19c10.493,0,19-8.507,19-19c0-3.465-0.942-6.703-2.562-9.5C154.818,105.172,148.695,108.999,141.667,108.999
		z"/>
	<path fill="#FFFFFF" d="M141.667,89.999c-7.029,0-13.151,3.827-16.438,9.5c3.287,5.673,9.409,9.5,16.438,9.5
		c7.028,0,13.151-3.827,16.438-9.5C154.818,93.826,148.695,89.999,141.667,89.999z"/>
	<circle id="dummy_34_" fill="#46ECFF" cx="142.15" cy="161.484" r="3.318"/>
	<g id="Layer_73">
		<path fill="#FFFFFF" d="M280.332,56.466c0-27.203-22.592-49.258-50.46-49.258c-11.956,0-22.933,4.068-31.579,10.853
			c-6.639-4.842-14.479-7.648-22.885-7.648c-6.335,0-12.346,1.603-17.768,4.457C145.779,5.566,130.815,0,114.535,0
			c-19.84,0-37.729,8.258-50.42,21.489c-6.483-3.963-14.189-6.271-22.466-6.271C18.647,15.218,0,32.968,0,54.864
			c0,15.777,9.683,29.4,23.699,35.783c-2.354,4.968-3.675,10.475-3.675,16.278c0,21.896,18.646,39.646,41.649,39.646
			c0.679,0,1.354-0.018,2.025-0.049C73.589,159.822,94.608,169,118.941,169c17.728,0,33.688-4.878,44.875-12.665
			c6.697,7.518,20.309,12.665,36.021,12.665c22.339,0,40.447-10.399,40.447-23.229c0-2.159-0.524-4.247-1.484-6.23
			c17.026-5.926,28.718-18.122,28.718-32.215c0-4.99-1.467-9.742-4.113-14.062C273.786,84.241,280.332,71.103,280.332,56.466z"/>
		<circle id="dummy_53_" fill="#46ECFF" cx="142.15" cy="148.484" r="3.318"/>
	</g>
	<g id="Layer_62">
		<circle fill="none" stroke="#51EDFF" stroke-miterlimit="10" cx="74.972" cy="216.971" r="5.305"/>
		<line fill="none" stroke="#51EDFF" stroke-miterlimit="10" x1="74.5" y1="242.902" x2="74.5" y2="221.902"/>
		<line fill="none" stroke="#51EDFF" stroke-miterlimit="10" x1="75.309" y1="222.192" x2="80.446" y2="227.329"/>
		<line fill="none" stroke="#51EDFF" stroke-miterlimit="10" x1="74.888" y1="222.192" x2="69.751" y2="227.329"/>
		<line fill="none" stroke="#51EDFF" stroke-miterlimit="10" x1="75.562" y1="243.412" x2="80.698" y2="248.549"/>
		<line fill="none" stroke="#51EDFF" stroke-miterlimit="10" x1="75.141" y1="243.412" x2="70.004" y2="248.549"/>
		<circle id="dummy_45_" fill="#46ECFF" cx="75.151" cy="211.484" r="3.318"/>
		<g id="Layer_63">
			
				<rect x="93.341" y="190.384" transform="matrix(0.8155 0.5787 -0.5787 0.8155 142.7234 -14.9688)" fill="#FFFFFF" width="3" height="52.002"/>
			<circle fill="#FFFFFF" cx="109.708" cy="195.671" r="6.298"/>
			<circle id="dummy_49_" fill="#46ECFF" cx="85.151" cy="230.484" r="3.318"/>
		</g>
	</g>
	<g id="Layer_62_copy">
		<circle fill="none" stroke="#51EDFF" stroke-miterlimit="10" cx="215.702" cy="239.971" r="5.305"/>
		<line fill="none" stroke="#51EDFF" stroke-miterlimit="10" x1="216.5" y1="265.902" x2="216.5" y2="244.902"/>
		<line fill="none" stroke="#51EDFF" stroke-miterlimit="10" x1="215.365" y1="245.192" x2="210.229" y2="250.329"/>
		<line fill="none" stroke="#51EDFF" stroke-miterlimit="10" x1="215.785" y1="245.192" x2="220.922" y2="250.329"/>
		<line fill="none" stroke="#51EDFF" stroke-miterlimit="10" x1="215.111" y1="266.412" x2="209.977" y2="271.549"/>
		<line fill="none" stroke="#51EDFF" stroke-miterlimit="10" x1="215.533" y1="266.412" x2="220.67" y2="271.549"/>
		<circle id="dummy_59_" fill="#46ECFF" cx="215.523" cy="234.484" r="3.318"/>
		<g id="Layer_63_copy">
			
				<rect x="194.335" y="213.399" transform="matrix(-0.8156 0.5786 -0.5786 -0.8156 494.0821 321.3295)" fill="#FFFFFF" width="3.001" height="52.002"/>
			<circle fill="#FFFFFF" cx="180.966" cy="218.671" r="6.298"/>
			<circle id="dummy_57_" fill="#46ECFF" cx="205.523" cy="253.484" r="3.318"/>
		</g>
	</g>
	<g id="Layer_47">
		<line fill="none" stroke="#51EDFF" stroke-miterlimit="10" x1="74" y1="90.402" x2="19" y2="90.402"/>
		<line fill="none" stroke="#51EDFF" stroke-miterlimit="10" x1="47.666" y1="90.666" x2="38.666" y2="99.666"/>
		<line fill="none" stroke="#51EDFF" stroke-miterlimit="10" x1="66.333" y1="90" x2="51.833" y2="75.5"/>
		<line fill="none" stroke="#51EDFF" stroke-miterlimit="10" x1="31.333" y1="90.666" x2="24.333" y2="83.666"/>
		<line fill="none" stroke="#51EDFF" stroke-miterlimit="10" x1="60" y1="83.402" x2="47" y2="83.402"/>
		<circle id="dummy_41_" fill="#46ECFF" cx="75.151" cy="90.484" r="3.318"/>
		<g id="Layer_41_copy_5">
			<path fill="none" stroke="#51EDFF" stroke-miterlimit="10" d="M29.019,96.174c-2.511,0-4.697,1.366-5.87,3.394
				c1.173,2.024,3.359,3.392,5.87,3.392c2.509,0,4.695-1.366,5.87-3.392C33.714,97.541,31.529,96.174,29.019,96.174z"/>
			<circle stroke="#51EDFF" stroke-miterlimit="10" cx="29.155" cy="99.566" r="3.518"/>
			<circle id="dummy_40_" fill="#46ECFF" cx="35.886" cy="98.649" r="3.318"/>
		</g>
		<g id="Layer_41">
			<path fill="none" stroke="#51EDFF" stroke-miterlimit="10" d="M15.019,87.959c2.51,0,4.696-1.366,5.87-3.393
				c-1.173-2.025-3.359-3.393-5.87-3.393c-2.51,0-4.696,1.366-5.87,3.393C10.323,86.592,12.509,87.959,15.019,87.959z"/>
			<circle stroke="#51EDFF" stroke-miterlimit="10" cx="14.882" cy="84.567" r="3.518"/>
			<circle id="dummy_35_" fill="#46ECFF" cx="22.151" cy="85.484" r="3.318"/>
		</g>
		<g id="Layer_41_copy">
			<path fill="none" stroke="#51EDFF" stroke-miterlimit="10" d="M33.417,80.965c1.775-1.774,2.355-4.287,1.751-6.549
				c-2.262-0.603-4.773-0.022-6.548,1.752s-2.354,4.286-1.752,6.548C29.13,83.319,31.643,82.74,33.417,80.965z"/>
			<circle stroke="#51EDFF" stroke-miterlimit="10" cx="30.922" cy="78.663" r="3.518"/>
			<circle id="dummy_36_" fill="#46ECFF" cx="28.053" cy="81.415" r="3.318"/>
		</g>
		<g id="Layer_41_copy_2">
			<path fill="none" stroke="#51EDFF" stroke-miterlimit="10" d="M64.417,75.965c1.775-1.774,2.355-4.287,1.751-6.549
				c-2.262-0.603-4.773-0.022-6.548,1.752s-2.354,4.286-1.752,6.548C60.13,78.319,62.643,77.74,64.417,75.965z"/>
			<circle stroke="#51EDFF" stroke-miterlimit="10" cx="61.922" cy="73.663" r="3.518"/>
			<circle id="dummy_37_" fill="#46ECFF" cx="59.053" cy="77.415" r="3.318"/>
		</g>
		<g id="Layer_41_copy_3">
			<path fill="none" stroke="#51EDFF" stroke-miterlimit="10" d="M42.62,78.965c1.775,1.775,4.287,2.355,6.549,1.751
				c0.603-2.262,0.023-4.772-1.752-6.548c-1.774-1.774-4.286-2.354-6.548-1.752C40.266,74.677,40.845,77.19,42.62,78.965z"/>
			<circle stroke="#51EDFF" stroke-miterlimit="10" cx="44.922" cy="76.47" r="3.518"/>
			<circle id="dummy_38_" fill="#46ECFF" cx="47.17" cy="81.601" r="3.318"/>
		</g>
		<g id="Layer_41_copy_4">
			<path fill="none" stroke="#51EDFF" stroke-miterlimit="10" d="M41.62,108.965c1.775,1.775,4.287,2.355,6.549,1.751
				c0.603-2.262,0.023-4.772-1.752-6.548c-1.774-1.774-4.286-2.354-6.548-1.752C39.266,104.677,39.845,107.19,41.62,108.965z"/>
			<circle stroke="#51EDFF" stroke-miterlimit="10" cx="43.922" cy="106.47" r="3.518"/>
			<circle id="dummy_39_" fill="#46ECFF" cx="42.17" cy="101.601" r="3.318"/>
		</g>
	</g>
	<g id="Layer_47_copy">
		<line fill="none" stroke="#51EDFF" stroke-miterlimit="10" x1="72" y1="195.402" x2="17" y2="195.402"/>
		<line fill="none" stroke="#51EDFF" stroke-miterlimit="10" x1="45.666" y1="195.666" x2="36.666" y2="204.666"/>
		<line fill="none" stroke="#51EDFF" stroke-miterlimit="10" x1="64.333" y1="195" x2="49.833" y2="180.5"/>
		<line fill="none" stroke="#51EDFF" stroke-miterlimit="10" x1="29.333" y1="195.666" x2="22.333" y2="188.666"/>
		<line fill="none" stroke="#51EDFF" stroke-miterlimit="10" x1="58" y1="188.402" x2="45" y2="188.402"/>
		<circle id="dummy_42_" fill="#46ECFF" cx="73.151" cy="195.484" r="3.318"/>
		<g id="Layer_41_copy_6">
			<path fill="none" stroke="#51EDFF" stroke-miterlimit="10" d="M27.019,201.174c-2.511,0-4.697,1.366-5.87,3.394
				c1.173,2.024,3.359,3.392,5.87,3.392c2.509,0,4.695-1.366,5.87-3.392C31.714,202.541,29.529,201.174,27.019,201.174z"/>
			<circle stroke="#51EDFF" stroke-miterlimit="10" cx="27.155" cy="204.566" r="3.518"/>
			<circle id="dummy_48_" fill="#46ECFF" cx="33.886" cy="203.648" r="3.318"/>
		</g>
		<g id="Layer_41_copy_6_1_">
			<path fill="none" stroke="#51EDFF" stroke-miterlimit="10" d="M13.019,192.959c2.51,0,4.696-1.366,5.87-3.393
				c-1.173-2.025-3.359-3.393-5.87-3.393c-2.51,0-4.696,1.366-5.87,3.393C8.323,191.592,10.509,192.959,13.019,192.959z"/>
			<circle stroke="#51EDFF" stroke-miterlimit="10" cx="12.882" cy="189.566" r="3.518"/>
			<circle id="dummy_54_" fill="#46ECFF" cx="20.151" cy="190.484" r="3.318"/>
		</g>
		<g id="Layer_41_copy_6_2_">
			<path fill="none" stroke="#51EDFF" stroke-miterlimit="10" d="M31.417,185.965c1.775-1.773,2.355-4.285,1.751-6.549
				c-2.262-0.603-4.773-0.022-6.548,1.752c-1.775,1.775-2.354,4.287-1.752,6.549C27.13,188.319,29.643,187.74,31.417,185.965z"/>
			<circle stroke="#51EDFF" stroke-miterlimit="10" cx="28.922" cy="183.663" r="3.518"/>
			<circle id="dummy_46_" fill="#46ECFF" cx="26.053" cy="186.415" r="3.318"/>
		</g>
		<g id="Layer_41_copy_6_3_">
			<path fill="none" stroke="#51EDFF" stroke-miterlimit="10" d="M62.417,180.965c1.775-1.773,2.355-4.285,1.751-6.549
				c-2.262-0.603-4.773-0.022-6.548,1.752c-1.775,1.775-2.354,4.287-1.752,6.549C58.13,183.319,60.643,182.74,62.417,180.965z"/>
			<circle stroke="#51EDFF" stroke-miterlimit="10" cx="59.922" cy="178.663" r="3.518"/>
			<circle id="dummy_52_" fill="#46ECFF" cx="57.053" cy="182.415" r="3.318"/>
		</g>
		<g id="Layer_41_copy_6_4_">
			<path fill="none" stroke="#51EDFF" stroke-miterlimit="10" d="M40.62,183.965c1.775,1.775,4.287,2.355,6.549,1.752
				c0.603-2.262,0.023-4.772-1.752-6.549c-1.774-1.774-4.286-2.354-6.548-1.752C38.266,179.677,38.845,182.19,40.62,183.965z"/>
			<circle stroke="#51EDFF" stroke-miterlimit="10" cx="42.922" cy="181.47" r="3.518"/>
			<circle id="dummy_44_" fill="#46ECFF" cx="45.17" cy="186.602" r="3.318"/>
		</g>
		<g id="Layer_41_copy_6_5_">
			<path fill="none" stroke="#51EDFF" stroke-miterlimit="10" d="M39.62,213.965c1.775,1.775,4.287,2.355,6.549,1.752
				c0.603-2.262,0.023-4.772-1.752-6.549c-1.774-1.774-4.286-2.354-6.548-1.752C37.266,209.677,37.845,212.19,39.62,213.965z"/>
			<circle stroke="#51EDFF" stroke-miterlimit="10" cx="41.922" cy="211.47" r="3.518"/>
			<circle id="dummy_50_" fill="#46ECFF" cx="40.17" cy="206.602" r="3.318"/>
		</g>
	</g>
	<g id="Layer_47_copy_3">
		<line fill="none" stroke="#51EDFF" stroke-miterlimit="10" x1="206.154" y1="99.109" x2="245.045" y2="60.218"/>
		<line fill="none" stroke="#51EDFF" stroke-miterlimit="10" x1="224.5" y1="79.902" x2="224.5" y2="67.902"/>
		<line fill="none" stroke="#51EDFF" stroke-miterlimit="10" x1="212" y1="94.402" x2="232" y2="94.402"/>
		<line fill="none" stroke="#51EDFF" stroke-miterlimit="10" x1="236" y1="68.402" x2="246" y2="68.402"/>
		<line fill="none" stroke="#51EDFF" stroke-miterlimit="10" x1="221.003" y1="94.159" x2="230.195" y2="84.966"/>
		<circle id="dummy_56_" fill="#46ECFF" cx="205.352" cy="99.934" r="3.318"/>
		<g id="Layer_41_copy_8">
			<path fill="none" stroke="#51EDFF" stroke-miterlimit="10" d="M233.947,63.291c1.775-1.775,2.354-4.288,1.752-6.55
				c-2.262-0.603-4.772-0.023-6.549,1.752c-1.774,1.774-2.354,4.286-1.752,6.548C229.661,65.644,232.173,65.065,233.947,63.291z"/>
			<circle stroke="#51EDFF" stroke-miterlimit="10" cx="231.454" cy="60.987" r="3.518"/>
			<circle id="dummy_66_" fill="#46ECFF" cx="227.342" cy="66.396" r="3.318"/>
		</g>
		<g id="Layer_41_copy_8_1_">
			<path fill="none" stroke="#51EDFF" stroke-miterlimit="10" d="M249.656,59.199c-1.775,1.775-2.354,4.287-1.752,6.55
				c2.263,0.603,4.772,0.023,6.549-1.752c1.775-1.774,2.355-4.287,1.753-6.549C253.943,56.844,251.432,57.424,249.656,59.199z"/>
			<circle stroke="#51EDFF" stroke-miterlimit="10" cx="252.15" cy="61.501" r="3.518"/>
			<circle id="dummy_72_" fill="#46ECFF" cx="246.363" cy="65.992" r="3.317"/>
		</g>
		<g id="Layer_41_copy_8_2_">
			<path fill="none" stroke="#51EDFF" stroke-miterlimit="10" d="M241.592,77.154c0,2.51,1.366,4.696,3.395,5.869
				c2.024-1.173,3.392-3.359,3.391-5.869c0-2.509-1.366-4.696-3.391-5.87C242.958,72.458,241.592,74.644,241.592,77.154z"/>
			<circle stroke="#51EDFF" stroke-miterlimit="10" cx="244.982" cy="77.018" r="3.518"/>
			<circle id="dummy_64_" fill="#46ECFF" cx="245.066" cy="73.043" r="3.318"/>
		</g>
		<g id="Layer_41_copy_8_3_">
			<path fill="none" stroke="#51EDFF" stroke-miterlimit="10" d="M223.207,102.61c0,2.51,1.366,4.696,3.395,5.869
				c2.024-1.173,3.392-3.359,3.391-5.869c0-2.51-1.366-4.696-3.391-5.87C224.573,97.915,223.207,100.1,223.207,102.61z"/>
			<circle stroke="#51EDFF" stroke-miterlimit="10" cx="226.6" cy="102.474" r="3.518"/>
			<circle id="dummy_68_" fill="#46ECFF" cx="225.977" cy="97.792" r="3.318"/>
		</g>
		<g id="Layer_41_copy_8_4_">
			<path fill="none" stroke="#51EDFF" stroke-miterlimit="10" d="M236.5,85.075c-2.511,0-4.697,1.366-5.87,3.393
				c1.173,2.025,3.359,3.392,5.87,3.392c2.509,0.001,4.693-1.365,5.869-3.392C241.195,86.442,239.009,85.075,236.5,85.075z"/>
			<circle stroke="#51EDFF" stroke-miterlimit="10" cx="236.636" cy="88.468" r="3.518"/>
			<circle id="dummy_62_" fill="#46ECFF" cx="231.417" cy="86.429" r="3.318"/>
		</g>
		<g id="Layer_41_copy_8_5_">
			<path fill="none" stroke="#51EDFF" stroke-miterlimit="10" d="M215.993,63.155c-2.511,0-4.696,1.366-5.869,3.393
				c1.173,2.025,3.358,3.392,5.87,3.392c2.509,0.001,4.693-1.365,5.869-3.392C220.689,64.522,218.503,63.155,215.993,63.155z"/>
			<circle stroke="#51EDFF" stroke-miterlimit="10" cx="216.129" cy="66.547" r="3.518"/>
			<circle id="dummy_60_" fill="#46ECFF" cx="220.811" cy="68.752" r="3.318"/>
		</g>
	</g>
	<g id="Layer_47_copy_2">
		<line fill="none" stroke="#51EDFF" stroke-miterlimit="10" x1="203" y1="161.402" x2="258" y2="161.402"/>
		<line fill="none" stroke="#51EDFF" stroke-miterlimit="10" x1="229.65" y1="161.383" x2="238.137" y2="152.896"/>
		<line fill="none" stroke="#51EDFF" stroke-miterlimit="10" x1="210.561" y1="162.797" x2="224.701" y2="176.938"/>
		<line fill="none" stroke="#51EDFF" stroke-miterlimit="10" x1="245.914" y1="161.383" x2="252.984" y2="168.453"/>
		<line fill="none" stroke="#51EDFF" stroke-miterlimit="10" x1="217" y1="168.402" x2="230" y2="168.402"/>
		<circle id="dummy_43_" fill="#46ECFF" cx="202.016" cy="161.938" r="3.317"/>
		<g id="Layer_41_copy_7">
			<path fill="none" stroke="#51EDFF" stroke-miterlimit="10" d="M248.146,156.248c2.512,0,4.696-1.367,5.869-3.394
				c-1.172-2.024-3.357-3.393-5.869-3.393c-2.508,0-4.694,1.367-5.869,3.394C243.452,154.881,245.639,156.248,248.146,156.248z"/>
			<circle stroke="#51EDFF" stroke-miterlimit="10" cx="248.012" cy="152.855" r="3.518"/>
			<circle id="dummy_55_" fill="#46ECFF" cx="241.279" cy="153.772" r="3.318"/>
		</g>
		<g id="Layer_41_copy_7_1_">
			<path fill="none" stroke="#51EDFF" stroke-miterlimit="10" d="M262.146,164.462c-2.51,0.001-4.694,1.367-5.869,3.395
				c1.174,2.024,3.359,3.391,5.869,3.392c2.511-0.001,4.696-1.366,5.871-3.392C266.844,165.829,264.657,164.463,262.146,164.462z"/>
			<circle stroke="#51EDFF" stroke-miterlimit="10" cx="262.284" cy="167.854" r="3.518"/>
			<circle id="dummy_70_" fill="#46ECFF" cx="255.016" cy="166.938" r="3.318"/>
		</g>
		<g id="Layer_41_copy_7_2_">
			<path fill="none" stroke="#51EDFF" stroke-miterlimit="10" d="M243.749,171.455c-1.774,1.775-2.354,4.288-1.752,6.551
				c2.262,0.603,4.774,0.023,6.549-1.753c1.774-1.773,2.354-4.286,1.753-6.549C248.036,169.102,245.523,169.682,243.749,171.455z"/>
			<circle stroke="#51EDFF" stroke-miterlimit="10" cx="246.244" cy="173.759" r="3.518"/>
			<circle id="dummy_51_" fill="#46ECFF" cx="249.113" cy="171.007" r="3.318"/>
		</g>
		<g id="Layer_41_copy_7_3_">
			<path fill="none" stroke="#51EDFF" stroke-miterlimit="10" d="M212.749,176.455c-1.774,1.775-2.354,4.289-1.751,6.55
				c2.262,0.604,4.773,0.024,6.548-1.753c1.774-1.772,2.354-4.285,1.753-6.548C217.036,174.102,214.523,174.682,212.749,176.455z"/>
			<circle stroke="#51EDFF" stroke-miterlimit="10" cx="215.244" cy="178.759" r="3.518"/>
			<circle id="dummy_61_" fill="#46ECFF" cx="218.113" cy="175.007" r="3.318"/>
		</g>
		<g id="Layer_41_copy_7_4_">
			<path fill="none" stroke="#51EDFF" stroke-miterlimit="10" d="M234.547,173.457c-1.775-1.774-4.286-2.354-6.549-1.752
				c-0.604,2.262-0.023,4.773,1.752,6.549c1.773,1.775,4.286,2.354,6.548,1.752C236.9,177.743,236.322,175.23,234.547,173.457z"/>
			<circle stroke="#51EDFF" stroke-miterlimit="10" cx="232.245" cy="175.951" r="3.518"/>
			<circle id="dummy_47_" fill="#46ECFF" cx="229.996" cy="170.82" r="3.318"/>
		</g>
		<g id="Layer_41_copy_7_5_">
			<path fill="none" stroke="#51EDFF" stroke-miterlimit="10" d="M235.547,143.457c-1.773-1.774-4.287-2.354-6.55-1.752
				c-0.603,2.262-0.022,4.773,1.753,6.549c1.773,1.775,4.286,2.354,6.549,1.752C237.9,147.744,237.322,145.231,235.547,143.457z"/>
			<circle stroke="#51EDFF" stroke-miterlimit="10" cx="233.245" cy="145.951" r="3.518"/>
			<circle id="dummy_58_" fill="#46ECFF" cx="234.996" cy="150.82" r="3.317"/>
		</g>
	</g>
	<g id="Layer_74">
		<line fill="none" stroke="#51EDFF" stroke-miterlimit="10" x1="75" y1="62.402" x2="150" y2="62.402"/>
		<line fill="none" stroke="#51EDFF" stroke-miterlimit="10" x1="74.5" y1="62.902" x2="74.5" y2="211.902"/>
		<path fill="none" stroke="#51EDFF" stroke-miterlimit="10" d="M149,62.402h56l-22.75,22.799L199,101.975l-14,14.012l10.667,10.673
			L180,142.33l18.666,18.668L187,172.666L215.334,201c-0.666,12.666,0,33.284,0,33.284"/>
		<circle id="dummy_63_" fill="#46ECFF" cx="142.15" cy="74.484" r="3.318"/>
	</g>
</g>
<g id="Layer_1_1_">
</g>
</svg>
