<?xml version="1.0" encoding="iso-8859-1"?>
<!-- Generator: Adobe Illustrator 16.0.0, SVG Export Plug-In . SVG Version: 6.00 Build 0)  -->
<!DOCTYPE svg PUBLIC "-//W3C//DTD SVG 1.1//EN" "http://www.w3.org/Graphics/SVG/1.1/DTD/svg11.dtd">
<svg version="1.1" xmlns="http://www.w3.org/2000/svg" xmlns:xlink="http://www.w3.org/1999/xlink" x="0px" y="0px"
	 width="85.183px" height="269.107px" viewBox="0 0 85.183 269.107" style="enable-background:new 0 0 85.183 269.107;"
	 xml:space="preserve">
<g id="rootHandL">
	<line style="fill:none;stroke:#51EDFF;stroke-width:2;stroke-miterlimit:10;" x1="61" y1="70.107" x2="61" y2="244.107"/>
	<line style="fill:none;stroke:#51EDFF;stroke-width:2;stroke-miterlimit:10;" x1="48" y1="69.107" x2="48" y2="201.107"/>
	<line style="fill:none;stroke:#51EDFF;stroke-width:2;stroke-miterlimit:10;" x1="12" y1="69.107" x2="12" y2="201.107"/>
	<line style="fill:none;stroke:#51EDFF;stroke-width:2;stroke-miterlimit:10;" x1="5" y1="70.107" x2="75" y2="70.107"/>
	<circle id="dummy_24_" style="fill:#46ECFF;" cx="81.865" cy="71.485" r="3.318"/>
	<g id="Layer_38">
		<path style="fill:#FFFFFF;" d="M39.381,43c-7.029,0-13.151-3.827-16.438-9.5c-1.62,2.797-2.562,6.035-2.562,9.5
			c0,10.493,8.506,19,19,19c10.494,0,19-8.507,19-19c0-3.465-0.942-6.703-2.562-9.5C52.531,39.174,46.41,43,39.381,43z"/>
		<path style="fill:#FFFFFF;" d="M38.381,0C31.352,0,25.23,3.827,21.943,9.5c3.287,5.673,9.409,9.5,16.438,9.5
			c7.029,0,13.15-3.827,16.438-9.5C51.531,3.827,45.41,0,38.381,0z"/>
		<circle id="dummy_27_" style="fill:#46ECFF;" cx="39.865" cy="67.485" r="3.318"/>
	</g>
	<g id="Layer_31">
		<path style="fill:#51EDFF;" d="M35.54,78.304c0,2.345-1.901,4.247-4.246,4.247c-2.345,0-4.247-1.901-4.247-4.247
			c0-2.345,2.669-6.855,4.368-8.553C33.387,71.722,35.54,75.959,35.54,78.304z"/>
		<circle id="dummy_28_" style="fill:#46ECFF;" cx="30.865" cy="72.485" r="3.318"/>
		<g id="Layer_32">
			<path style="fill:#51EDFF;" d="M35.54,92.863c0,2.345-1.901,4.247-4.246,4.247c-2.345,0-4.247-1.901-4.247-4.247
				c0-2.345,2.669-6.855,4.368-8.553C33.387,86.281,35.54,90.518,35.54,92.863z"/>
			<circle id="dummy_29_" style="fill:#46ECFF;" cx="31.865" cy="86.485" r="3.318"/>
			<g id="Layer_33">
				<path style="fill:#51EDFF;" d="M35.54,107.421c0,2.345-1.901,4.247-4.246,4.247c-2.345,0-4.247-1.901-4.247-4.247
					c0-2.345,2.669-6.855,4.368-8.553C33.387,100.84,35.54,105.077,35.54,107.421z"/>
				<circle id="dummy_30_" style="fill:#46ECFF;" cx="31.865" cy="99.485" r="3.318"/>
				<g id="Layer_34">
					<path style="fill:#51EDFF;" d="M35.54,122.304c0,2.345-1.901,4.247-4.246,4.247c-2.345,0-4.247-1.901-4.247-4.247
						c0-2.345,2.669-6.855,4.368-8.553C33.387,115.722,35.54,119.959,35.54,122.304z"/>
					<circle id="dummy_31_" style="fill:#46ECFF;" cx="32.865" cy="113.485" r="3.318"/>
					<g id="Layer_35">
						<path style="fill:#51EDFF;" d="M35.54,136.863c0,2.345-1.901,4.246-4.246,4.246c-2.345,0-4.247-1.901-4.247-4.246
							c0-2.345,2.669-6.855,4.368-8.554C33.387,130.281,35.54,134.518,35.54,136.863z"/>
						<circle id="dummy_32_" style="fill:#46ECFF;" cx="31.865" cy="127.485" r="3.318"/>
						<g id="Layer_36">
							<path style="fill:#51EDFF;" d="M35.54,151.422c0,2.345-1.901,4.246-4.246,4.246c-2.345,0-4.247-1.901-4.247-4.246
								c0-2.346,2.669-6.855,4.368-8.554C33.387,144.84,35.54,149.076,35.54,151.422z"/>
							<circle id="dummy_33_" style="fill:#46ECFF;" cx="30.865" cy="143.485" r="3.318"/>
						</g>
					</g>
				</g>
			</g>
		</g>
	</g>
	<g id="Layer_37">
		<circle style="fill:#6A5FF5;" cx="48.381" cy="221.334" r="11"/>
		
			<rect x="33.214" y="206.501" transform="matrix(0.7071 -0.7071 0.7071 0.7071 -142.5004 98.9644)" style="fill:none;stroke:#6A5FF5;stroke-miterlimit:10;" width="30" height="30"/>
		<circle id="dummy_25_" style="fill:#46ECFF;" cx="47.865" cy="201.485" r="3.318"/>
	</g>
	<g id="Layer_39">
		
			<rect x="53.4" y="249.294" transform="matrix(0.7071 -0.7071 0.7071 0.7071 -164.0363 118.9833)" style="fill:#B09342;" width="16.414" height="16.414"/>
		<circle id="dummy_26_" style="fill:#46ECFF;" cx="62.865" cy="245.485" r="3.318"/>
	</g>
	<g id="Layer_30">
		<circle style="fill:none;stroke:#FFBC9D;stroke-miterlimit:10;" cx="11.5" cy="211.501" r="11"/>
		<circle style="fill:none;stroke:#FFBC9D;stroke-miterlimit:10;" cx="11.5" cy="211.4" r="8.073"/>
		<circle id="dummy_23_" style="fill:#46ECFF;" cx="11.865" cy="202.485" r="3.318"/>
	</g>
</g>
<g id="Layer_1">
</g>
</svg>
