<?xml version="1.0" encoding="iso-8859-1"?>
<!-- Generator: Adobe Illustrator 16.0.0, SVG Export Plug-In . SVG Version: 6.00 Build 0)  -->
<!DOCTYPE svg PUBLIC "-//W3C//DTD SVG 1.1//EN" "http://www.w3.org/Graphics/SVG/1.1/DTD/svg11.dtd">
<svg version="1.1" xmlns="http://www.w3.org/2000/svg" xmlns:xlink="http://www.w3.org/1999/xlink" x="0px" y="0px"
	 width="98.021px" height="196.88px" viewBox="0 0 98.021 196.88" style="enable-background:new 0 0 98.021 196.88;"
	 xml:space="preserve">
<g id="rootLegL">
	<polygon style="fill:#D891FF;" points="73.824,71.065 86.684,0 98.021,2.523 51.057,196.88 70.127,91.499 16.794,123.607 
		0,184.114 9.891,120.796 	"/>
	<circle id="dummy_4_" style="fill:#46ECFF;" cx="52.975" cy="179.703" r="3.318"/>
	<g id="Layer_10">
		<path style="fill:#FFFFFF;stroke:#000000;stroke-miterlimit:10;" d="M41.296,133.069l14.944,4.117l2.316-8.412
			c-5.445,0.752-11.157,1.726-16.863,2.854L41.296,133.069z"/>
		<path style="fill:#FFFFFF;stroke:#000000;stroke-miterlimit:10;" d="M40.632,135.479l-7.45-2.053
			c-4.467,1.001-8.833,2.069-12.959,3.171l33.625,9.267l2.393-8.677l-14.944-4.117L40.632,135.479z"/>
		<path style="fill:none;stroke:#000000;stroke-miterlimit:10;" d="M18.178,136.033l-0.333,1.211
			c0.784-0.217,1.574-0.433,2.378-0.647L18.178,136.033z"/>
		<path style="fill:#FFFFFF;stroke:#000000;stroke-miterlimit:10;" d="M17.845,137.244l-2.057,7.466l35.67,9.83l2.39-8.677
			l-33.625-9.267C19.419,136.812,18.629,137.027,17.845,137.244z"/>
		<polygon style="fill:#FFFFFF;stroke:#000000;stroke-miterlimit:10;" points="14.061,150.979 34.788,156.689 34.39,158.135 
			49.332,162.252 51.458,154.54 15.788,144.71 		"/>
		<polygon style="fill:#FFFFFF;stroke:#000000;stroke-miterlimit:10;" points="33.459,161.51 12.732,155.799 11.67,159.655 
			32.397,165.365 31.999,166.812 46.943,170.93 49.332,162.252 34.39,158.135 		"/>
		<polygon style="fill:#FFFFFF;stroke:#000000;stroke-miterlimit:10;" points="31.069,170.185 10.342,164.475 8.882,169.777 
			44.551,179.605 46.943,170.93 31.999,166.812 		"/>
		<path d="M41.296,133.069l0.397-1.44c-1.082,0.214-2.162,0.433-3.24,0.657L41.296,133.069z"/>
		<path d="M33.182,133.426l7.45,2.053l0.665-2.409l-2.842-0.783C36.686,132.653,34.928,133.035,33.182,133.426z"/>
		<polygon points="14.061,150.979 13.577,150.846 12.251,155.666 12.732,155.799 13.662,152.424 		"/>
		<rect x="23.475" y="143.807" transform="matrix(-0.2658 0.964 -0.964 -0.2658 179.6618 172.278)" width="1.499" height="21.5"/>
		<rect x="12.811" y="155.216" transform="matrix(0.9641 0.2656 -0.2656 0.9641 42.5409 -0.6196)" width="21.5" height="3.501"/>
		<polygon points="11.67,159.655 11.187,159.522 9.86,164.342 10.342,164.475 11.272,161.101 		"/>
		<rect x="21.084" y="152.484" transform="matrix(-0.2659 0.964 -0.964 -0.2659 184.9971 185.5886)" width="1.5" height="21.5"/>
		<rect x="10.421" y="163.893" transform="matrix(0.9641 0.2656 -0.2656 0.9641 44.7617 0.3274)" width="21.499" height="3.5"/>
		<circle id="dummy_3_" style="fill:#46ECFF;" cx="47.975" cy="118.703" r="3.318"/>
	</g>
</g>
<g id="Layer_1">
</g>
</svg>
