<?xml version="1.0" encoding="iso-8859-1"?>
<!-- Generator: Adobe Illustrator 16.0.0, SVG Export Plug-In . SVG Version: 6.00 Build 0)  -->
<!DOCTYPE svg PUBLIC "-//W3C//DTD SVG 1.1//EN" "http://www.w3.org/Graphics/SVG/1.1/DTD/svg11.dtd">
<svg version="1.1" xmlns="http://www.w3.org/2000/svg" xmlns:xlink="http://www.w3.org/1999/xlink" x="0px" y="0px"
	 width="266.795px" height="256.891px" viewBox="0 0 266.795 256.891" style="enable-background:new 0 0 266.795 256.891;"
	 xml:space="preserve">
<g id="rootHead">
	<linearGradient id="SVGID_1_" gradientUnits="userSpaceOnUse" x1="133.4995" y1="118.8906" x2="133.4995" y2="256.8911">
		<stop  offset="0" style="stop-color:#FFFFFF"/>
		<stop  offset="0.0074" style="stop-color:#F6F6F6"/>
		<stop  offset="0.0477" style="stop-color:#C8C8C8"/>
		<stop  offset="0.0931" style="stop-color:#9D9D9D"/>
		<stop  offset="0.1419" style="stop-color:#777777"/>
		<stop  offset="0.195" style="stop-color:#575757"/>
		<stop  offset="0.2537" style="stop-color:#3B3B3B"/>
		<stop  offset="0.32" style="stop-color:#252525"/>
		<stop  offset="0.3974" style="stop-color:#141414"/>
		<stop  offset="0.4931" style="stop-color:#090909"/>
		<stop  offset="0.6274" style="stop-color:#020202"/>
		<stop  offset="1" style="stop-color:#000000"/>
	</linearGradient>
	<path style="fill:url(#SVGID_1_);" d="M156.418,118.891h-43.832L81,182.73v28.941l31.586,45.219h43.832L186,211.672V182.73
		L156.418,118.891z M105,187.891v-12.602l1.85,10.607c0.643-2.963,1.948-10.545,2.858-15.919l2.796,15.919
		c0.643-2.963,1.952-10.543,2.863-15.918l2.799,15.918c0.643-2.963,1.954-10.543,2.865-15.917l2.799,15.917
		c0.643-2.963,1.954-10.543,2.865-15.916l2.799,15.916c0.644-2.963,1.955-10.543,2.866-15.916l2.8,15.916
		c0.643-2.963,1.954-10.543,2.865-15.916l2.799,15.916c0.644-2.963,1.955-10.543,2.866-15.916l2.799,15.916
		c0.644-2.963,1.956-10.543,2.866-15.916l2.799,15.916c0.644-2.963,1.955-10.543,2.866-15.916l2.799,15.916
		c0.644-2.963,1.955-10.543,2.866-15.917l2.801,15.917c0.357-1.65,0.514-4.733,1.514-8.07v10.064H105z"/>
	<circle id="dummy_4_" style="fill:#00FF00;" cx="134.476" cy="184.375" r="3.318"/>
	<g id="Layer_12_copy">
		
			<linearGradient id="SVGID_2_" gradientUnits="userSpaceOnUse" x1="73.5947" y1="197.6367" x2="138.1211" y2="197.6367" gradientTransform="matrix(-1 0 0 1 326.1445 0)">
			<stop  offset="0" style="stop-color:#FFFFFF"/>
			<stop  offset="0.0074" style="stop-color:#F6F6F6"/>
			<stop  offset="0.0477" style="stop-color:#C8C8C8"/>
			<stop  offset="0.0931" style="stop-color:#9D9D9D"/>
			<stop  offset="0.1419" style="stop-color:#777777"/>
			<stop  offset="0.195" style="stop-color:#575757"/>
			<stop  offset="0.2537" style="stop-color:#3B3B3B"/>
			<stop  offset="0.32" style="stop-color:#252525"/>
			<stop  offset="0.3974" style="stop-color:#141414"/>
			<stop  offset="0.4931" style="stop-color:#090909"/>
			<stop  offset="0.6274" style="stop-color:#020202"/>
			<stop  offset="1" style="stop-color:#000000"/>
		</linearGradient>
		<path style="fill:url(#SVGID_2_);" d="M252.55,197.674c-14.245-3.438-64.526-12.673-64.526-12.673l0.048,25.271L252.55,197.674z"
			/>
		<circle id="dummy_14_" style="fill:#00FF00;" cx="187.319" cy="199.375" r="3.318"/>
		<g id="Layer_13_copy">
			
				<linearGradient id="SVGID_3_" gradientUnits="userSpaceOnUse" x1="59.3496" y1="226.4258" x2="73.2871" y2="226.4258" gradientTransform="matrix(-1 0 0 1 326.1445 0)">
				<stop  offset="0" style="stop-color:#FFFFFF"/>
				<stop  offset="0.0074" style="stop-color:#F6F6F6"/>
				<stop  offset="0.0477" style="stop-color:#C8C8C8"/>
				<stop  offset="0.0931" style="stop-color:#9D9D9D"/>
				<stop  offset="0.1419" style="stop-color:#777777"/>
				<stop  offset="0.195" style="stop-color:#575757"/>
				<stop  offset="0.2537" style="stop-color:#3B3B3B"/>
				<stop  offset="0.32" style="stop-color:#252525"/>
				<stop  offset="0.3974" style="stop-color:#141414"/>
				<stop  offset="0.4931" style="stop-color:#090909"/>
				<stop  offset="0.6274" style="stop-color:#020202"/>
				<stop  offset="1" style="stop-color:#000000"/>
			</linearGradient>
			<polygon style="fill:url(#SVGID_3_);" points="252.857,226.426 259.826,233.395 266.795,226.426 259.826,219.457 			"/>
			<path d="M259.499,217.935c-0.988-4.554-3.645-20.626-3.645-20.626l7.27,0.014L259.499,217.935z"/>
			<circle id="dummy_13_" style="fill:#00FF00;" cx="253.319" cy="198.375" r="3.318"/>
		</g>
	</g>
	<g id="Layer_8">
		<linearGradient id="SVGID_4_" gradientUnits="userSpaceOnUse" x1="200.8047" y1="121.9404" x2="200.8047" y2="163.3413">
			<stop  offset="0" style="stop-color:#FFFFFF"/>
			<stop  offset="0.0074" style="stop-color:#F6F6F6"/>
			<stop  offset="0.0477" style="stop-color:#C8C8C8"/>
			<stop  offset="0.0931" style="stop-color:#9D9D9D"/>
			<stop  offset="0.1419" style="stop-color:#777777"/>
			<stop  offset="0.195" style="stop-color:#575757"/>
			<stop  offset="0.2537" style="stop-color:#3B3B3B"/>
			<stop  offset="0.32" style="stop-color:#252525"/>
			<stop  offset="0.3974" style="stop-color:#141414"/>
			<stop  offset="0.4931" style="stop-color:#090909"/>
			<stop  offset="0.6274" style="stop-color:#020202"/>
			<stop  offset="1" style="stop-color:#000000"/>
		</linearGradient>
		<path style="fill:url(#SVGID_4_);" d="M232.192,121.94c-14.191,3.655-62.774,18.476-62.774,18.476l11.762,22.925L232.192,121.94z"
			/>
		<circle id="dummy_1_" style="fill:#00FF00;" cx="175.476" cy="150.375" r="3.318"/>
		<g id="Layer_9">
			<path d="M239.237,143.572c0.989-4.555,3.646-20.626,3.646-20.626l-7.271,0.015L239.237,143.572z"/>
			<linearGradient id="SVGID_5_" gradientUnits="userSpaceOnUse" x1="231.9424" y1="152.0635" x2="245.8799" y2="152.0635">
				<stop  offset="0" style="stop-color:#FFFFFF"/>
				<stop  offset="0.0074" style="stop-color:#F6F6F6"/>
				<stop  offset="0.0477" style="stop-color:#C8C8C8"/>
				<stop  offset="0.0931" style="stop-color:#9D9D9D"/>
				<stop  offset="0.1419" style="stop-color:#777777"/>
				<stop  offset="0.195" style="stop-color:#575757"/>
				<stop  offset="0.2537" style="stop-color:#3B3B3B"/>
				<stop  offset="0.32" style="stop-color:#252525"/>
				<stop  offset="0.3974" style="stop-color:#141414"/>
				<stop  offset="0.4931" style="stop-color:#090909"/>
				<stop  offset="0.6274" style="stop-color:#020202"/>
				<stop  offset="1" style="stop-color:#000000"/>
			</linearGradient>
			<polygon style="fill:url(#SVGID_5_);" points="245.88,152.063 238.911,159.032 231.942,152.063 238.911,145.095 			"/>
			<circle id="dummy_2_" style="fill:#00FF00;" cx="233.476" cy="122.375" r="3.318"/>
		</g>
	</g>
	<g id="Layer_10">
		<linearGradient id="SVGID_6_" gradientUnits="userSpaceOnUse" x1="132.4644" y1="42.9995" x2="132.4644" y2="114.6943">
			<stop  offset="0" style="stop-color:#FFFFFF"/>
			<stop  offset="0.0074" style="stop-color:#F6F6F6"/>
			<stop  offset="0.0477" style="stop-color:#C8C8C8"/>
			<stop  offset="0.0931" style="stop-color:#9D9D9D"/>
			<stop  offset="0.1419" style="stop-color:#777777"/>
			<stop  offset="0.195" style="stop-color:#575757"/>
			<stop  offset="0.2537" style="stop-color:#3B3B3B"/>
			<stop  offset="0.32" style="stop-color:#252525"/>
			<stop  offset="0.3974" style="stop-color:#141414"/>
			<stop  offset="0.4931" style="stop-color:#090909"/>
			<stop  offset="0.6274" style="stop-color:#020202"/>
			<stop  offset="1" style="stop-color:#000000"/>
		</linearGradient>
		<path style="fill:url(#SVGID_6_);" d="M132.501,43c-3.436,15.828-12.672,71.695-12.672,71.695l25.271-0.053L132.501,43z"/>
		<circle id="dummy_11_" style="fill:#00FF00;" cx="132.476" cy="117.375" r="3.318"/>
		<g id="Layer_15">
			<path d="M152.124,63.626C153.112,59.072,155.771,43,155.771,43l-7.271,0.015L152.124,63.626z"/>
			<linearGradient id="SVGID_7_" gradientUnits="userSpaceOnUse" x1="144.8291" y1="72.1172" x2="158.7666" y2="72.1172">
				<stop  offset="0" style="stop-color:#FFFFFF"/>
				<stop  offset="0.0074" style="stop-color:#F6F6F6"/>
				<stop  offset="0.0477" style="stop-color:#C8C8C8"/>
				<stop  offset="0.0931" style="stop-color:#9D9D9D"/>
				<stop  offset="0.1419" style="stop-color:#777777"/>
				<stop  offset="0.195" style="stop-color:#575757"/>
				<stop  offset="0.2537" style="stop-color:#3B3B3B"/>
				<stop  offset="0.32" style="stop-color:#252525"/>
				<stop  offset="0.3974" style="stop-color:#141414"/>
				<stop  offset="0.4931" style="stop-color:#090909"/>
				<stop  offset="0.6274" style="stop-color:#020202"/>
				<stop  offset="1" style="stop-color:#000000"/>
			</linearGradient>
			<polygon style="fill:url(#SVGID_7_);" points="158.767,72.117 151.798,79.086 144.829,72.117 151.798,65.148 			"/>
			<circle id="dummy_8_" style="fill:#00FF00;" cx="151.476" cy="39.375" r="3.318"/>
		</g>
		<g id="Layer_15_copy">
			<path d="M113.124,63.626C114.112,59.072,116.771,43,116.771,43l-7.271,0.015L113.124,63.626z"/>
			<linearGradient id="SVGID_8_" gradientUnits="userSpaceOnUse" x1="105.8291" y1="72.1172" x2="119.7666" y2="72.1172">
				<stop  offset="0" style="stop-color:#FFFFFF"/>
				<stop  offset="0.0074" style="stop-color:#F6F6F6"/>
				<stop  offset="0.0477" style="stop-color:#C8C8C8"/>
				<stop  offset="0.0931" style="stop-color:#9D9D9D"/>
				<stop  offset="0.1419" style="stop-color:#777777"/>
				<stop  offset="0.195" style="stop-color:#575757"/>
				<stop  offset="0.2537" style="stop-color:#3B3B3B"/>
				<stop  offset="0.32" style="stop-color:#252525"/>
				<stop  offset="0.3974" style="stop-color:#141414"/>
				<stop  offset="0.4931" style="stop-color:#090909"/>
				<stop  offset="0.6274" style="stop-color:#020202"/>
				<stop  offset="1" style="stop-color:#000000"/>
			</linearGradient>
			<polygon style="fill:url(#SVGID_8_);" points="119.767,72.117 112.798,79.086 105.829,72.117 112.798,65.148 			"/>
			<circle id="dummy_9_" style="fill:#00FF00;" cx="112.476" cy="39.375" r="3.318"/>
		</g>
		<g id="Layer_15_copy_2">
			<path d="M132.124,20.626C133.112,16.072,135.771,0,135.771,0l-7.271,0.015L132.124,20.626z"/>
			<linearGradient id="SVGID_9_" gradientUnits="userSpaceOnUse" x1="124.8291" y1="29.1172" x2="138.7666" y2="29.1172">
				<stop  offset="0" style="stop-color:#FFFFFF"/>
				<stop  offset="0.0074" style="stop-color:#F6F6F6"/>
				<stop  offset="0.0477" style="stop-color:#C8C8C8"/>
				<stop  offset="0.0931" style="stop-color:#9D9D9D"/>
				<stop  offset="0.1419" style="stop-color:#777777"/>
				<stop  offset="0.195" style="stop-color:#575757"/>
				<stop  offset="0.2537" style="stop-color:#3B3B3B"/>
				<stop  offset="0.32" style="stop-color:#252525"/>
				<stop  offset="0.3974" style="stop-color:#141414"/>
				<stop  offset="0.4931" style="stop-color:#090909"/>
				<stop  offset="0.6274" style="stop-color:#020202"/>
				<stop  offset="1" style="stop-color:#000000"/>
			</linearGradient>
			<polygon style="fill:url(#SVGID_9_);" points="138.767,29.117 131.798,36.086 124.829,29.117 131.798,22.148 			"/>
			<circle id="dummy_10_" style="fill:#00FF00;" cx="132.476" cy="39.375" r="3.318"/>
		</g>
	</g>
	<g id="Layer_11">
		<linearGradient id="SVGID_10_" gradientUnits="userSpaceOnUse" x1="36.8193" y1="140.7451" x2="99.5938" y2="140.7451">
			<stop  offset="0" style="stop-color:#FFFFFF"/>
			<stop  offset="0.0074" style="stop-color:#F6F6F6"/>
			<stop  offset="0.0477" style="stop-color:#C8C8C8"/>
			<stop  offset="0.0931" style="stop-color:#9D9D9D"/>
			<stop  offset="0.1419" style="stop-color:#777777"/>
			<stop  offset="0.195" style="stop-color:#575757"/>
			<stop  offset="0.2537" style="stop-color:#3B3B3B"/>
			<stop  offset="0.32" style="stop-color:#252525"/>
			<stop  offset="0.3974" style="stop-color:#141414"/>
			<stop  offset="0.4931" style="stop-color:#090909"/>
			<stop  offset="0.6274" style="stop-color:#020202"/>
			<stop  offset="1" style="stop-color:#000000"/>
		</linearGradient>
		<path style="fill:url(#SVGID_10_);" d="M36.819,120.044c14.191,3.655,62.774,18.476,62.774,18.476l-11.761,22.925L36.819,120.044z
			"/>
		<circle id="dummy_7_" style="fill:#00FF00;" cx="96.476" cy="150.375" r="3.318"/>
		<g id="Layer_14">
			<path d="M31.693,140.885c0.989-4.555,3.646-20.627,3.646-20.627l-7.27,0.015L31.693,140.885z"/>
			<linearGradient id="SVGID_11_" gradientUnits="userSpaceOnUse" x1="24.3984" y1="149.375" x2="38.3359" y2="149.375">
				<stop  offset="0" style="stop-color:#FFFFFF"/>
				<stop  offset="0.0074" style="stop-color:#F6F6F6"/>
				<stop  offset="0.0477" style="stop-color:#C8C8C8"/>
				<stop  offset="0.0931" style="stop-color:#9D9D9D"/>
				<stop  offset="0.1419" style="stop-color:#777777"/>
				<stop  offset="0.195" style="stop-color:#575757"/>
				<stop  offset="0.2537" style="stop-color:#3B3B3B"/>
				<stop  offset="0.32" style="stop-color:#252525"/>
				<stop  offset="0.3974" style="stop-color:#141414"/>
				<stop  offset="0.4931" style="stop-color:#090909"/>
				<stop  offset="0.6274" style="stop-color:#020202"/>
				<stop  offset="1" style="stop-color:#000000"/>
			</linearGradient>
			<polygon style="fill:url(#SVGID_11_);" points="38.336,149.375 31.367,156.344 24.398,149.375 31.367,142.406 			"/>
			<circle id="dummy_6_" style="fill:#00FF00;" cx="36.476" cy="121.375" r="3.318"/>
		</g>
	</g>
	<g id="Layer_12">
		<linearGradient id="SVGID_12_" gradientUnits="userSpaceOnUse" x1="14.2451" y1="196.6367" x2="78.7715" y2="196.6367">
			<stop  offset="0" style="stop-color:#FFFFFF"/>
			<stop  offset="0.0074" style="stop-color:#F6F6F6"/>
			<stop  offset="0.0477" style="stop-color:#C8C8C8"/>
			<stop  offset="0.0931" style="stop-color:#9D9D9D"/>
			<stop  offset="0.1419" style="stop-color:#777777"/>
			<stop  offset="0.195" style="stop-color:#575757"/>
			<stop  offset="0.2537" style="stop-color:#3B3B3B"/>
			<stop  offset="0.32" style="stop-color:#252525"/>
			<stop  offset="0.3974" style="stop-color:#141414"/>
			<stop  offset="0.4931" style="stop-color:#090909"/>
			<stop  offset="0.6274" style="stop-color:#020202"/>
			<stop  offset="1" style="stop-color:#000000"/>
		</linearGradient>
		<path style="fill:url(#SVGID_12_);" d="M14.245,196.674c14.245-3.438,64.526-12.673,64.526-12.673l-0.048,25.271L14.245,196.674z"
			/>
		<circle id="dummy_5_" style="fill:#00FF00;" cx="79.476" cy="198.375" r="3.318"/>
		<g id="Layer_13">
			<linearGradient id="SVGID_13_" gradientUnits="userSpaceOnUse" x1="0" y1="225.4258" x2="13.9375" y2="225.4258">
				<stop  offset="0" style="stop-color:#FFFFFF"/>
				<stop  offset="0.0074" style="stop-color:#F6F6F6"/>
				<stop  offset="0.0477" style="stop-color:#C8C8C8"/>
				<stop  offset="0.0931" style="stop-color:#9D9D9D"/>
				<stop  offset="0.1419" style="stop-color:#777777"/>
				<stop  offset="0.195" style="stop-color:#575757"/>
				<stop  offset="0.2537" style="stop-color:#3B3B3B"/>
				<stop  offset="0.32" style="stop-color:#252525"/>
				<stop  offset="0.3974" style="stop-color:#141414"/>
				<stop  offset="0.4931" style="stop-color:#090909"/>
				<stop  offset="0.6274" style="stop-color:#020202"/>
				<stop  offset="1" style="stop-color:#000000"/>
			</linearGradient>
			<polygon style="fill:url(#SVGID_13_);" points="13.938,225.426 6.969,232.395 0,225.426 6.969,218.457 			"/>
			<path d="M7.295,216.935c0.989-4.554,3.646-20.626,3.646-20.626l-7.27,0.014L7.295,216.935z"/>
			<circle id="dummy" style="fill:#00FF00;" cx="13.476" cy="197.375" r="3.318"/>
		</g>
	</g>
</g>
<g id="Layer_1">
</g>
</svg>
