<?xml version="1.0" encoding="iso-8859-1"?>
<!-- Generator: Adobe Illustrator 16.0.0, SVG Export Plug-In . SVG Version: 6.00 Build 0)  -->
<!DOCTYPE svg PUBLIC "-//W3C//DTD SVG 1.1//EN" "http://www.w3.org/Graphics/SVG/1.1/DTD/svg11.dtd">
<svg version="1.1" xmlns="http://www.w3.org/2000/svg" xmlns:xlink="http://www.w3.org/1999/xlink" x="0px" y="0px"
	 width="119.854px" height="78.656px" viewBox="0 0 119.854 78.656" style="enable-background:new 0 0 119.854 78.656;"
	 xml:space="preserve">
<g id="rootElbowR">
	<path style="fill:#FFFFFF;" d="M47.425,30.898l0.521,0.534l5.095-4.968l-0.521-0.534L47.425,30.898L47.425,30.898z M49.257,32.778
		l0.52,0.533l5.095-4.968l-0.52-0.533L49.257,32.778L49.257,32.778z M39.442,37.888c0.002-0.057,0.002-0.115,0.013-0.144
		c0.07-1.012-0.076-1.513-0.576-2.026c-0.869-0.892-2.413-0.747-3.507,0.32c-0.923,0.896-1.112,2.426-0.386,3.172l6.386,6.548
		l0.349,0.415l0.226,0.291l0.489,0.656l0.095,0.117l0.844-0.822l-0.104-0.146l-0.112-0.173l-1.293-1.425l-0.093-0.097l-0.747-0.766
		c0.899-0.14,1.479-0.42,2.021-0.948c1.182-1.153,1.134-2.733-0.122-4.021c-0.634-0.65-1.479-1.071-2.254-1.129
		C40.201,37.678,39.99,37.713,39.442,37.888L39.442,37.888L39.442,37.888z M40.467,43.279l-4.819-4.942
		c-0.16-0.164-0.29-0.491-0.333-0.847c-0.053-0.458,0.05-0.801,0.339-1.083c0.62-0.606,1.623-0.469,2.389,0.316
		c0.509,0.522,0.694,1.003,0.602,1.548c-0.066,0.048-0.113,0.095-0.164,0.122c-0.202,0.159-0.376,0.292-0.503,0.415
		c-0.203,0.198-0.226,0.524-0.057,0.698c0.029,0.029,0.067,0.049,0.105,0.049c0.182,0.051,0.422-0.033,0.596-0.203
		c0.009-0.009,0.019-0.019,0.038-0.038l0.407-0.454l0.02-0.019c0.059-0.057,0.146-0.103,0.242-0.121
		c0.718-0.135,1.919,0.416,2.75,1.269c0.926,0.949,1.018,1.918,0.253,2.664C41.846,43.123,41.327,43.309,40.467,43.279
		L40.467,43.279L40.467,43.279z M30.746,49.09l0.519,0.533l5.086-4.959l-0.52-0.532L30.746,49.09L30.746,49.09z M26.799,52.56
		c-0.579-0.397-0.816-0.526-1.226-0.655c-0.905-0.289-1.684-0.137-2.312,0.478c-0.62,0.604-0.898,1.426-0.813,2.307
		c0.103,0.938,0.393,1.45,1.328,2.409c1.352,1.387,3.08,1.568,4.252,0.426c0.454-0.443,0.879-1.271,0.915-1.816
		c0.042-0.497,0.025-0.631-0.23-1.514c1.216,0.607,1.913,0.74,2.252,0.41c0.436-0.426,0.235-1.135-0.559-1.968
		c-0.039-0.04-0.104-0.106-0.179-0.204l-0.194,0.189c0.444,0.531,0.532,1.01,0.231,1.303c-0.28,0.273-0.938,0.162-1.641-0.287
		l-0.151-0.098l-1.882-4.158l-0.862,0.841L26.799,52.56L26.799,52.56z M28.026,55.351c0.251,0.645,0.156,1.362-0.202,1.712
		c-0.679,0.661-1.813,0.272-3.106-1.055c-1.305-1.338-1.738-2.576-1.108-3.189c0.649-0.634,1.663-0.621,2.603,0.033l0.777,0.543
		c0.171,0.119,0.266,0.178,0.275,0.188c0.094,0.096,0.215,0.355,0.363,0.723L28.026,55.351L28.026,55.351z M39.12,33.592
		l0.024,0.279c2.014-0.318,3.574,0.351,5.597,2.424c1.917,1.966,2.482,3.438,2.161,5.51l0.237,0.088
		c0.198-0.628,0.23-0.886,0.258-1.613c0.082-1.931-0.51-3.47-1.87-4.865c-0.736-0.755-1.515-1.263-2.373-1.58
		c-0.334-0.108-0.714-0.211-1.152-0.292C40.845,33.347,40.357,33.351,39.12,33.592L39.12,33.592L39.12,33.592z M18.681,53.521
		c-0.662,2.461-0.106,4.697,1.622,6.47c0.802,0.822,1.725,1.4,2.677,1.661c1.277,0.379,2.771,0.436,3.731,0.162l-0.046-0.279
		c-0.901,0.198-1.283,0.176-2.236-0.123c-1.115-0.368-2.102-1.051-3.349-2.33c-1.077-1.105-1.64-1.934-2.002-2.943
		c-0.239-0.712-0.288-1.305-0.17-2.385l0.021-0.172L18.681,53.521L18.681,53.521z M10.328,63.5c0.089,0.363,0.099,0.488,0.168,1.063
		c0.024,0.278,0.041,0.489,0.04,0.604c-0.003,0.114-0.033,0.429-0.077,0.926c-0.001,0.02-0.003,0.058-0.013,0.105l0.027,0.029
		c0.021,0.02,0.059,0.04,0.125,0.068l0.514-0.5l2.843,2.914l0.076,0.079c0.699,0.717,1.443,0.822,1.996,0.283
		c0.456-0.444,0.617-1.131,0.444-1.869l-0.259,0.025c0.043,0.469-0.027,0.709-0.24,0.917c-0.321,0.311-0.749,0.218-1.222-0.267
		l-2.814-2.887l0.979-0.954l-0.312-0.319l-0.978,0.954l-0.539-0.553l-0.255-0.262l-0.237-0.26l-0.142-0.145L10.328,63.5L10.328,63.5
		z M17.599,59.264c-0.127,0.142-0.262,0.275-0.406,0.416c-0.438,0.425-0.64,0.605-0.813,0.68l-0.73,0.334
		c-0.175,0.094-0.366,0.227-0.551,0.406c-0.979,0.952-1.034,2.311-0.146,3.222c0.575,0.591,1.301,0.733,2.155,0.429l-0.012,0.258
		l-0.025,0.478c-0.037,0.565,0.026,0.979,0.195,1.151c0.208,0.214,0.476,0.217,1.024,0.023l-0.032,0.181
		c-0.166,1.012-0.096,1.569,0.235,1.908c0.51,0.523,1.662,0.231,2.583-0.666c1.356-1.323,1.793-3.24,0.933-4.122
		c-0.567-0.582-1.421-0.563-2.127,0.068l-1.73,1.52c-0.223,0.197-0.511,0.271-0.614,0.165c-0.124-0.126-0.177-0.435-0.153-0.778
		c0.021-0.209,0.071-0.354,0.159-0.438l0.01-0.01l0.443-0.337c0.03-0.029,0.06-0.058,0.089-0.086
		c0.871-0.851,0.925-2.15,0.112-2.984c-0.332-0.34-0.51-0.446-1.015-0.654l0.795-0.774L17.599,59.264L17.599,59.264z M15.195,61.55
		c0.011-0.011,0.032-0.028,0.04-0.037c0.532-0.521,1.63-0.248,2.48,0.624c0.584,0.6,0.656,1.176,0.21,1.61
		c-0.601,0.585-1.622,0.333-2.547-0.616C14.812,62.549,14.75,62.062,15.195,61.55L15.195,61.55L15.195,61.55z M18.541,66.471
		c0.355-0.215,0.492-0.309,0.754-0.544l1.566-1.417c0.389-0.339,0.772-0.391,1.018-0.14c0.557,0.571,0.19,1.649-0.934,2.745
		c-0.835,0.812-1.67,1.078-2.086,0.651C18.681,67.584,18.598,67.268,18.541,66.471z"/>
	<circle id="dummy_4_" style="fill:#FFFFFF;" cx="3.318" cy="75.339" r="3.318"/>
	<g id="Layer_12">
		<circle id="dummy_5_" style="fill:#FFFFFF;" cx="14.318" cy="66.339" r="3.318"/>
		<g id="Layer_13">
			<path style="fill:#FFFFFF;" d="M64.325,13.638c-0.185,0-0.334-0.15-0.334-0.337c0-0.186,0.149-0.338,0.334-0.338h55.195
				c0.184,0,0.334,0.152,0.334,0.338c0,0.187-0.15,0.337-0.334,0.337H64.325L64.325,13.638z M98.215,23.437
				c-0.136-0.69-0.218-0.947-0.421-1.326c-0.446-0.84-1.109-1.272-1.988-1.272c-0.866,0-1.637,0.394-2.193,1.083
				c-0.581,0.743-0.729,1.312-0.729,2.652c0,1.935,1.108,3.274,2.747,3.274c0.636-0.001,1.515-0.298,1.921-0.662
				c0.379-0.326,0.46-0.434,0.894-1.246c0.446,1.286,0.852,1.868,1.325,1.868c0.609-0.001,0.96-0.649,0.976-1.8
				c0-0.055,0-0.149,0.012-0.271h-0.271c-0.055,0.69-0.324,1.096-0.743,1.096c-0.394,0-0.784-0.541-0.976-1.354l-0.039-0.176
				l1.555-4.29H99.08L98.215,23.437L98.215,23.437z M97.145,26.291c-0.271,0.638-0.839,1.084-1.339,1.084
				c-0.948,0-1.489-1.068-1.489-2.923c0-1.867,0.555-3.057,1.435-3.057c0.906-0.001,1.623,0.716,1.841,1.839l0.175,0.934
				c0.042,0.202,0.069,0.311,0.069,0.324c0,0.135-0.096,0.407-0.244,0.772L97.145,26.291L97.145,26.291z M75.008,20.393v3.18h-3.192
				v0.744h3.192v3.287h0.759v-3.287h3.207v-0.744h-3.207v-3.18H75.008L75.008,20.393z M89.225,3.937v0.744h7.103V3.937H89.225
				L89.225,3.937z M83.978,3.667c-0.137-0.689-0.217-0.946-0.422-1.326c-0.445-0.838-1.108-1.271-1.987-1.271
				c-0.867,0-1.638,0.393-2.192,1.083c-0.582,0.745-0.73,1.312-0.73,2.652c0,1.935,1.108,3.275,2.746,3.275
				c0.637-0.001,1.516-0.298,1.921-0.663c0.38-0.326,0.46-0.433,0.895-1.245c0.446,1.286,0.852,1.867,1.325,1.867
				c0.609-0.002,0.96-0.65,0.975-1.8c0-0.054,0-0.148,0.014-0.27H86.25c-0.056,0.689-0.325,1.095-0.745,1.095
				c-0.391-0.001-0.783-0.541-0.975-1.353l-0.038-0.175l1.555-4.291h-1.204L83.978,3.667L83.978,3.667z M82.907,6.521
				c-0.271,0.636-0.839,1.083-1.339,1.083c-0.947,0-1.488-1.069-1.488-2.922c0-1.869,0.554-3.059,1.435-3.059
				c0.905,0,1.622,0.716,1.84,1.84l0.175,0.933c0.042,0.203,0.067,0.312,0.067,0.326c0,0.133-0.094,0.406-0.242,0.771L82.907,6.521
				L82.907,6.521z M102.872,19.771c-0.188,0.324-0.27,0.42-0.622,0.88c-0.176,0.215-0.311,0.378-0.392,0.459
				c-0.082,0.081-0.325,0.285-0.704,0.609c-0.014,0.013-0.04,0.041-0.082,0.068v0.039c0,0.027,0.014,0.067,0.042,0.136l0.716-0.001
				v4.072v0.109c0,1.002,0.461,1.597,1.231,1.597c0.638,0,1.232-0.379,1.625-1.028l-0.205-0.163
				c-0.296,0.367-0.513,0.488-0.811,0.488c-0.446-0.002-0.69-0.365-0.69-1.041v-4.034h1.367v-0.447h-1.367v-0.769v-0.367
				l0.013-0.352v-0.202L102.872,19.771L102.872,19.771z M83.777,19.771c-0.189,0.324-0.271,0.42-0.623,0.88
				c-0.176,0.215-0.311,0.378-0.393,0.459c-0.08,0.081-0.324,0.285-0.702,0.609c-0.015,0.013-0.041,0.041-0.083,0.068v0.039
				c0,0.027,0.015,0.067,0.042,0.136l0.716-0.001v4.072v0.109c0,1.002,0.461,1.597,1.232,1.597c0.636,0,1.231-0.379,1.623-1.028
				l-0.202-0.163c-0.297,0.367-0.516,0.488-0.812,0.488c-0.448-0.002-0.69-0.365-0.69-1.041v-4.034h1.366v-0.447h-1.366v-0.769
				v-0.367l0.014-0.352v-0.202L83.777,19.771L83.777,19.771z M67.938,18.458l-2.448,1.231v0.189l0.189-0.053l0.608-0.229
				c0.027-0.016,0.055-0.016,0.094-0.016c0.312,0,0.488,0.177,0.488,0.515v6.373c0,0.691-0.312,0.907-1.299,0.922v0.215h3.748
				v-0.217c-1.001,0-1.271-0.148-1.271-0.676v-8.228L67.938,18.458L67.938,18.458z M100.915,0c-0.188,0.324-0.27,0.419-0.621,0.879
				c-0.177,0.216-0.312,0.379-0.393,0.461c-0.081,0.081-0.325,0.284-0.704,0.607c-0.014,0.013-0.04,0.042-0.082,0.068v0.041
				c0,0.026,0.015,0.068,0.042,0.136l0.717-0.001v4.074v0.107c0,1.003,0.46,1.598,1.231,1.598c0.635,0,1.231-0.378,1.623-1.029
				l-0.202-0.164c-0.298,0.367-0.514,0.489-0.812,0.489c-0.445-0.001-0.69-0.365-0.69-1.041V2.191h1.367V1.747h-1.367V0.975V0.608
				l0.015-0.35V0.054L100.915,0L100.915,0z M109.078,2.043c-0.189,0.013-0.379,0.014-0.581,0.014
				c-0.608-0.001-0.881-0.014-1.056-0.081l-0.758-0.272c-0.188-0.054-0.419-0.094-0.676-0.094c-1.367-0.001-2.356,0.934-2.356,2.207
				c0,0.822,0.42,1.433,1.246,1.811l-0.189,0.176l-0.352,0.324c-0.42,0.38-0.663,0.719-0.663,0.961c0,0.296,0.188,0.487,0.717,0.732
				l-0.149,0.107c-0.824,0.609-1.163,1.056-1.163,1.529c0,0.73,1.028,1.326,2.313,1.326c1.895,0,3.546-1.068,3.546-2.3
				c0-0.812-0.623-1.395-1.57-1.435l-2.3-0.122c-0.299-0.013-0.556-0.162-0.556-0.311c0-0.176,0.177-0.433,0.434-0.662
				c0.163-0.136,0.297-0.203,0.42-0.203l0.014-0.001l0.554,0.068c0.042,0,0.082,0.001,0.122,0.001
				c1.218-0.001,2.165-0.895,2.165-2.058c0-0.474-0.055-0.678-0.271-1.179h1.11V2.043L109.078,2.043z M105.764,2.003
				c0.013,0,0.04,0,0.053,0c0.745,0,1.341,0.96,1.341,2.178c0,0.839-0.352,1.3-0.975,1.3c-0.839,0-1.395-0.895-1.395-2.22
				C104.788,2.448,105.087,2.058,105.764,2.003L105.764,2.003L105.764,2.003z M104.722,7.862c0.406,0.094,0.568,0.122,0.919,0.135
				l2.112,0.081c0.515,0.026,0.824,0.257,0.824,0.61c0,0.797-1.014,1.312-2.583,1.312c-1.164-0.002-1.949-0.392-1.949-0.988
				C104.045,8.754,104.207,8.471,104.722,7.862L104.722,7.862L104.722,7.862z M69.54,0c-0.19,0.324-0.271,0.419-0.623,0.879
				c-0.175,0.216-0.311,0.379-0.394,0.461c-0.078,0.081-0.323,0.284-0.702,0.607c-0.014,0.013-0.041,0.042-0.081,0.068v0.041
				c0,0.026,0.014,0.068,0.04,0.136l0.718-0.001v4.074v0.107c0,1.003,0.461,1.598,1.231,1.598c0.636,0,1.231-0.378,1.623-1.029
				l-0.203-0.164c-0.297,0.367-0.514,0.489-0.811,0.489c-0.446-0.001-0.691-0.365-0.691-1.041V2.191h1.367V1.747h-1.367V0.975V0.608
				l0.014-0.35V0.054L69.54,0L69.54,0z M77.702,2.043c-0.188,0.013-0.379,0.014-0.582,0.014c-0.609-0.001-0.879-0.014-1.055-0.081
				l-0.758-0.272C75.118,1.65,74.888,1.61,74.63,1.61c-1.365-0.001-2.354,0.934-2.354,2.207c0,0.822,0.42,1.433,1.245,1.811
				l-0.19,0.176L72.98,6.128c-0.42,0.38-0.663,0.719-0.663,0.961c0,0.296,0.188,0.487,0.717,0.732l-0.149,0.107
				c-0.824,0.609-1.163,1.056-1.163,1.529c0,0.73,1.029,1.326,2.314,1.326c1.894,0,3.545-1.068,3.545-2.3
				c0-0.812-0.622-1.395-1.569-1.435l-2.301-0.122c-0.298-0.013-0.555-0.162-0.555-0.311c0-0.176,0.175-0.433,0.433-0.662
				c0.163-0.136,0.297-0.203,0.42-0.203l0.014-0.001l0.554,0.068c0.041,0,0.081,0.001,0.122,0.001
				c1.218-0.001,2.166-0.895,2.166-2.058c0-0.474-0.055-0.678-0.271-1.179h1.108V2.043L77.702,2.043z M74.388,2.003
				c0.012,0,0.041,0,0.054,0c0.744,0,1.339,0.96,1.339,2.178c0,0.839-0.352,1.3-0.974,1.3c-0.839,0-1.394-0.895-1.394-2.22
				C73.413,2.448,73.711,2.058,74.388,2.003L74.388,2.003L74.388,2.003z M73.345,7.862c0.407,0.094,0.569,0.122,0.92,0.135
				l2.111,0.081c0.515,0.026,0.825,0.257,0.825,0.61c0,0.797-1.014,1.312-2.584,1.312c-1.163-0.002-1.948-0.392-1.948-0.988
				C72.669,8.754,72.831,8.471,73.345,7.862L73.345,7.862L73.345,7.862z"/>
			<circle id="dummy_23_" style="fill:#FFFFFF;" cx="61.318" cy="14.339" r="3.318"/>
		</g>
	</g>
</g>
<g id="Layer_1">
</g>
</svg>
