<?xml version="1.0" encoding="iso-8859-1"?>
<!-- Generator: Adobe Illustrator 16.0.0, SVG Export Plug-In . SVG Version: 6.00 Build 0)  -->
<!DOCTYPE svg PUBLIC "-//W3C//DTD SVG 1.1//EN" "http://www.w3.org/Graphics/SVG/1.1/DTD/svg11.dtd">
<svg version="1.1" xmlns="http://www.w3.org/2000/svg" xmlns:xlink="http://www.w3.org/1999/xlink" x="0px" y="0px"
	 width="113.034px" height="45.158px" viewBox="0 0 113.034 45.158" style="enable-background:new 0 0 113.034 45.158;"
	 xml:space="preserve">
<g id="rootHandR">
	<circle id="dummy_6_" style="fill:#FFFFFF;" cx="52.671" cy="24.407" r="3.318"/>
	<g id="Layer_11">
		<path style="fill:#FFFFFF;" d="M1.613,37.699c1.68,1.008,5.51,2.688,9.677,2.688c7.526,0,9.945-4.771,9.878-8.467
			c-0.067-6.115-5.577-8.736-11.289-8.736H6.586v-4.436h3.293c4.301,0,9.743-2.217,9.743-7.392c0-3.495-2.217-6.586-7.66-6.586
			c-3.495,0-6.854,1.546-8.736,2.89L1.613,3.36C3.965,1.68,8.4,0,13.104,0c8.602,0,12.499,5.107,12.499,10.416
			c0,4.569-2.756,8.4-8.064,10.349v0.134c5.376,1.008,9.677,5.041,9.744,11.156c0,6.988-5.511,13.104-15.927,13.104
			c-4.905,0-9.206-1.545-11.356-2.957L1.613,37.699z"/>
		<path style="fill:#FFFFFF;" d="M35.147,40.924c0-2.418,1.681-4.232,4.032-4.232s3.965,1.746,3.965,4.232
			c0,2.42-1.613,4.234-4.1,4.234C36.761,45.158,35.147,43.344,35.147,40.924z"/>
		<path style="fill:#FFFFFF;" d="M61.423,6.25h-0.135l-7.594,4.099l-1.142-4.502l9.542-5.107h5.04v43.68h-5.712V6.25z"/>
		<path style="fill:#FFFFFF;" d="M101.342,44.419V32.457H81.047v-3.83l19.488-27.888h6.384v27.148h6.115v4.569h-6.115v11.962
			H101.342z M101.342,27.888V13.306c0-2.285,0.066-4.57,0.201-6.854h-0.201c-1.345,2.554-2.42,4.435-3.629,6.451L87.027,27.754
			v0.134H101.342z"/>
	</g>
</g>
<g id="Layer_1">
</g>
</svg>
