<?xml version="1.0" encoding="iso-8859-1"?>
<!-- Generator: Adobe Illustrator 16.0.0, SVG Export Plug-In . SVG Version: 6.00 Build 0)  -->
<!DOCTYPE svg PUBLIC "-//W3C//DTD SVG 1.1//EN" "http://www.w3.org/Graphics/SVG/1.1/DTD/svg11.dtd">
<svg version="1.1" xmlns="http://www.w3.org/2000/svg" xmlns:xlink="http://www.w3.org/1999/xlink" x="0px" y="0px"
	 width="133.72px" height="228.055px" viewBox="0 0 133.72 228.055" style="enable-background:new 0 0 133.72 228.055;"
	 xml:space="preserve">
<g id="rootBody">
	<path style="fill:#FFFFFF;" d="M30.636,138.994l13.285,5.837v0.327l-13.285,5.552V138.994L30.636,138.994L30.636,138.994z
		 M58.286,131.766l13.286,5.837v0.327l-13.286,5.552V131.766L58.286,131.766L58.286,131.766z M50.382,91.342
		c0-0.268,0.221-0.487,0.493-0.487c0.271,0,0.491,0.22,0.491,0.487v117.196c0,0.266-0.22,0.487-0.491,0.487
		c-0.271,0-0.493-0.222-0.493-0.487V91.342L50.382,91.342z M38.288,75.23l-0.549-0.548c-0.171,0.14-0.204,0.171-0.439,0.346
		c-0.486,0.375-0.91,0.721-1.238,1.035c-0.096,0.078-0.142,0.121-0.173,0.142l-0.33,0.278c-0.313,0.253-0.486,0.426-0.958,0.866
		V64.913h-0.894V77.35c-0.328-0.344-0.47-0.47-0.784-0.739l-0.485-0.405l-0.156-0.142l-0.831-0.676l-0.221-0.188l-0.5-0.391
		l-0.142-0.126L30.04,75.23l0.234,0.222l0.878,0.753l2.792,2.759l0.219,0.22l0.203-0.204C36.108,77.175,36.641,76.66,38.288,75.23
		L38.288,75.23L38.288,75.23z M56.452,9.806c-0.274,0.099-0.394,0.254-0.394,0.508c0,0.061,0,0.098,0.019,0.119
		c0.039,0.078,0.234,0.256,0.57,0.508l3.567,2.805c0.04,0.036,0.077,0.036,0.138,0.036c0.666,0,1.098-0.529,1.098-1.312
		c0-0.216-0.021-0.294-0.119-0.472L56.452,9.806L56.452,9.806z M53.554,38.697h-1.08v10.312h1.08V38.697L53.554,38.697z
		 M49.749,38.697h-1.078v10.312h1.078V38.697L49.749,38.697z M68.735,121.555h-4.606v-4.625h-1.078v4.625h-4.765v1.098h4.765v4.645
		h1.078v-4.645h4.606V121.555L68.735,121.555z M63.933,164.006h-1.079v10.293h1.079V164.006L63.933,164.006z M37.332,54.744h-0.236
		c0,0.613-0.172,0.864-0.925,1.352l-2.257,1.473l-2.558-1.758c-0.626-0.422-0.815-0.689-0.831-1.158h-0.25v2.289h0.25v-0.125
		c0-0.362,0.078-0.505,0.282-0.505c0.095,0,0.188,0.049,0.36,0.143l0.346,0.221l1.835,1.176l-1.912,1.255l-0.125,0.108
		c-0.127,0.097-0.284,0.156-0.425,0.156c-0.281,0-0.36-0.141-0.36-0.657h-0.25v3.183h0.25c0-0.437,0.25-0.83,0.705-1.128
		l3.295-2.146l1.879,1.284c0.41,0.284,0.645,0.738,0.691,1.284h0.236v-2.506h-0.236c-0.045,0.498-0.127,0.627-0.346,0.627
		c-0.061,0-0.188-0.048-0.312-0.143l-1.38-0.895l1.144-0.721c0.222-0.142,0.408-0.205,0.549-0.205
		c0.238,0.003,0.33,0.202,0.346,0.676h0.236V54.744L37.332,54.744z M40.875,84.549c-0.092-2.055-2.242-3.421-5.41-3.421
		c-3.247,0.004-5.427,1.428-5.427,3.532c0.002,2.178,2.164,3.574,5.521,3.574c3.184,0,5.315-1.426,5.315-3.574
		C40.875,84.627,40.875,84.58,40.875,84.549L40.875,84.549L40.875,84.549z M40.453,84.627c0,0.016,0,0.048,0,0.078
		c0,1.303-1.757,2.008-5.034,2.008c-3.262,0-4.956-0.691-4.956-2.023c0-1.349,1.677-2.036,4.938-2.036
		C38.682,82.653,40.358,83.31,40.453,84.627L40.453,84.627L40.453,84.627z M54.727,3.276c0.355,0,0.707,0,1.039,0
		c2.471,0,2.963,0.193,2.963,1.115c0,0.333-0.14,0.588-0.413,0.785L57.61,5.665c-0.235,0.178-0.353,0.391-0.353,0.627
		c0.001,0.453,0.391,0.864,0.822,0.864c0.688,0,1.217-0.885,1.217-2.042c0-2.311-1.549-3.49-4.569-3.467V0.038H54.08v1.609h-6.43
		c-1.116,0-1.43-0.375-1.43-1.647h-0.314v5.115h0.314V4.982c0-1.157,0.353-1.668,1.195-1.668h6.664v2.394h0.646V3.276L54.727,3.276z
		 M59.159,27.992l-0.314-0.254c-1.707,2.411-3.979,3.352-8.175,3.352c-3.979,0-6.078-0.902-7.9-3.334l-0.333,0.157
		c0.452,0.844,0.686,1.136,1.412,1.901c1.922,2.038,4.118,2.979,6.94,2.979c1.53,0,2.843-0.292,4.039-0.861
		c0.451-0.235,0.939-0.531,1.47-0.9C57.669,30.03,58.158,29.518,59.159,27.992L59.159,27.992z M54.727,17.787h-0.292
		c0,0.766-0.217,1.079-1.158,1.689l-2.822,1.839l-3.196-2.191c-0.782-0.531-1.02-0.863-1.038-1.452h-0.314v2.862h0.314v-0.159
		c0-0.447,0.097-0.627,0.353-0.627c0.118,0,0.234,0.061,0.451,0.18l0.431,0.273l2.293,1.469l-2.391,1.568l-0.158,0.138
		c-0.156,0.119-0.353,0.197-0.529,0.197c-0.351,0-0.449-0.177-0.449-0.825h-0.314v3.981h0.314c0-0.548,0.313-1.041,0.882-1.416
		l4.117-2.683l2.353,1.607c0.508,0.353,0.803,0.921,0.862,1.608h0.292v-3.137h-0.292c-0.06,0.627-0.157,0.783-0.432,0.783
		c-0.079,0.003-0.236-0.057-0.392-0.176L51.887,22.2l1.43-0.902c0.275-0.176,0.511-0.256,0.686-0.256
		c0.296,0,0.412,0.256,0.432,0.843l0.292,0.002V17.787L54.727,17.787z M59.159,16.616l-0.314,0.194l-0.156-0.194
		c-1.001-1.217-1.667-1.765-2.646-2.235c-1.412-0.648-2.841-0.904-5.078-0.904c-2.587,0-4.292,0.332-5.803,1.118
		c-1.274,0.685-1.686,1.058-2.39,2.195l-0.335-0.233c0.686-1.277,2.255-2.766,3.94-3.706c1.235-0.728,2.765-1.098,4.43-1.101
		C54.394,11.75,57.277,13.439,59.159,16.616L59.159,16.616z M54.924,72.052l-0.117-0.356c-0.392-1.058-0.569-1.646-0.766-2.39
		h-0.353c0.08,0.335,0.098,0.451,0.098,0.627c0,0.451-0.315,0.685-0.883,0.685l-5.624,0.004c-0.746,0-1.06-0.414-1.06-1.315v-0.061
		h-0.314v4.371h0.314v-0.095c0-0.864,0.273-1.236,0.939-1.236h5.609c0.705,0.55,1.115,1.392,1.115,2.235
		c0,0.802-0.626,1.331-1.608,1.331h-4.978c-0.782,0-1.078-0.37-1.078-1.331h-0.314v4.411h0.314v-0.139
		c0-0.882,0.43-1.272,1.43-1.272h5.059c0.882,0.687,1.195,1.232,1.195,2.135c0.001,0.98-0.509,1.452-1.608,1.452H47.24h-0.156
		c-0.491,0-0.786-0.373-0.845-1.06c-0.018-0.057-0.018-0.14-0.018-0.236l-0.314,0.001v4.313h0.314
		c0.06-1.059,0.273-1.354,0.959-1.354h4.784c0.334,0,0.744-0.061,1.156-0.177c1.216-0.333,1.804-1.02,1.804-2.115
		c0-1.117-0.549-2.195-1.626-3.158c1.098-0.35,1.626-1.037,1.626-2.099c0-0.842-0.235-1.333-1.353-2.822l-0.138-0.194h1.451
		L54.924,72.052L54.924,72.052z M59.296,66.021c0-0.55-0.451-0.98-1.02-0.98c-0.547,0-1,0.451-1,0.999
		c0.001,0.57,0.451,1.019,1.019,1.019C58.845,67.06,59.296,66.607,59.296,66.021L59.296,66.021L59.296,66.021z M54.924,66.94
		l-0.079-0.214l-0.47-1.315l-0.216-0.585c-0.176-0.451-0.216-0.57-0.313-0.943h-0.314c0.059,0.395,0.078,0.53,0.078,0.764
		c0.001,0.512-0.273,0.727-1.019,0.727h-4.997c-1.078,0-1.355-0.332-1.374-1.568h-0.314v4.688h0.314
		c0.019-1.122,0.313-1.452,1.234-1.452h7.411L54.924,66.94L54.924,66.94z M59.296,61.579c-0.294-0.844-0.668-2.215-0.863-3.138
		h-0.312c0.019,0.312,0.018,0.472,0.018,0.628c0.001,0.57-0.214,0.923-0.568,0.923h-0.252H47.28c-0.687,0-1.021-0.472-1.06-1.513
		h-0.314v4.667h0.314c0.019-1.177,0.273-1.492,1.253-1.492l11.783,0.006L59.296,61.579L59.296,61.579z M67.108,106.159h-0.295
		c0,0.764-0.214,1.078-1.156,1.684l-2.822,1.844l-3.195-2.193c-0.786-0.53-1.021-0.862-1.04-1.452h-0.314v2.864h0.315v-0.16
		c0-0.449,0.097-0.626,0.351-0.626c0.118,0,0.237,0.059,0.451,0.177l0.432,0.274l2.293,1.471l-2.392,1.566l-0.157,0.14
		c-0.156,0.118-0.353,0.192-0.531,0.192c-0.351,0.003-0.448-0.173-0.448-0.821h-0.314v3.98h0.315c0-0.55,0.312-1.04,0.879-1.413
		l4.118-2.684l2.353,1.608c0.51,0.353,0.803,0.919,0.862,1.607h0.295v-3.138h-0.295c-0.057,0.628-0.157,0.783-0.432,0.783
		c-0.078,0.002-0.234-0.057-0.391-0.178l-1.725-1.113l1.432-0.902c0.273-0.18,0.508-0.258,0.684-0.258
		c0.296,0,0.413,0.258,0.432,0.844h0.295V106.159L67.108,106.159z M71.538,104.987c-1.882-3.177-4.764-4.866-8.352-4.866
		c-1.666,0-3.195,0.375-4.431,1.102c-1.684,0.94-3.254,2.429-3.939,3.706l0.333,0.234c0.706-1.137,1.117-1.512,2.391-2.196
		c1.511-0.787,3.215-1.117,5.804-1.117c2.235,0,3.666,0.254,5.077,0.9c0.981,0.471,1.646,1.021,2.646,2.237l0.156,0.193
		L71.538,104.987L71.538,104.987z M67.108,96.343v2.432h-0.647v-2.392h-6.666c-0.843,0-1.193,0.512-1.193,1.666v0.139h-0.315v-5.12
		h0.314c0,1.277,0.313,1.648,1.43,1.648h6.43v-1.607h0.647l-0.002,1.607c3.02-0.019,4.568,1.158,4.568,3.472
		c0,1.156-0.527,2.037-1.216,2.037c-0.431,0-0.82-0.411-0.824-0.862c0-0.233,0.121-0.449,0.356-0.629l0.705-0.489
		c0.273-0.195,0.411-0.449,0.411-0.783c0-0.921-0.489-1.118-2.961-1.118C67.813,96.343,67.462,96.343,67.108,96.343L67.108,96.343z
		 M71.538,154.495l-0.314-0.257c-1.705,2.411-3.979,3.353-8.175,3.353c-3.979,0-6.078-0.903-7.9-3.332l-0.333,0.155
		c0.451,0.846,0.685,1.14,1.412,1.903c1.922,2.04,4.116,2.979,6.938,2.979c1.531,0,2.844-0.292,4.04-0.863
		c0.45-0.233,0.94-0.528,1.47-0.901C70.05,156.531,70.538,156.021,71.538,154.495L71.538,154.495z M67.108,144.29h-0.295
		c0,0.765-0.214,1.079-1.156,1.686l-2.822,1.843l-3.195-2.193c-0.786-0.531-1.021-0.864-1.04-1.45h-0.314v2.862h0.315v-0.159
		c0-0.449,0.097-0.628,0.351-0.628c0.118,0,0.237,0.061,0.451,0.179l0.432,0.272l2.293,1.472l-2.392,1.567l-0.157,0.137
		c-0.156,0.117-0.353,0.195-0.531,0.195c-0.351,0.003-0.448-0.177-0.448-0.821h-0.314v3.979h0.315c0-0.55,0.312-1.039,0.879-1.412
		l4.118-2.688l2.353,1.613c0.51,0.351,0.803,0.918,0.862,1.604h0.295v-3.136h-0.295c-0.057,0.628-0.157,0.783-0.432,0.783
		c-0.078,0-0.234-0.055-0.391-0.174l-1.725-1.121l1.432-0.898c0.273-0.178,0.508-0.258,0.684-0.258c0.296,0,0.413,0.256,0.432,0.844
		h0.295V144.29L67.108,144.29z M59.099,141.183l9.555-3.981L59.099,133V141.183L59.099,141.183z M71.538,201.66l-0.314-0.254
		c-1.705,2.409-3.979,3.352-8.175,3.352c-3.979,0-6.078-0.902-7.9-3.335l-0.333,0.157c0.451,0.848,0.685,1.14,1.412,1.905
		c1.922,2.038,4.116,2.979,6.938,2.979c1.531,0,2.844-0.296,4.04-0.863c0.45-0.233,0.94-0.528,1.47-0.903
		C70.05,203.701,70.538,203.188,71.538,201.66L71.538,201.66z M67.108,191.458h-0.295c0,0.765-0.214,1.079-1.156,1.686l-2.822,1.845
		l-3.195-2.197c-0.786-0.529-1.021-0.862-1.04-1.448h-0.314v2.858h0.315v-0.155c0-0.451,0.097-0.628,0.351-0.628
		c0.118,0,0.237,0.061,0.451,0.177l0.432,0.276l2.293,1.468l-2.392,1.569l-0.157,0.139c-0.156,0.115-0.353,0.193-0.531,0.193
		c-0.351,0.003-0.448-0.177-0.448-0.823h-0.314v3.981h0.315c0-0.55,0.312-1.041,0.879-1.412l4.118-2.687l2.353,1.611
		c0.51,0.347,0.803,0.919,0.862,1.604h0.295v-3.136h-0.295c-0.057,0.628-0.157,0.783-0.432,0.783c-0.078,0-0.234-0.059-0.391-0.176
		l-1.725-1.117l1.432-0.902c0.273-0.176,0.508-0.254,0.684-0.254c0.296,0,0.413,0.254,0.432,0.842h0.295V191.458L67.108,191.458z
		 M71.538,190.283c-1.882-3.176-4.764-4.861-8.352-4.861c-1.666,0-3.195,0.374-4.431,1.1c-1.684,0.942-3.254,2.431-3.939,3.702
		l0.333,0.237c0.706-1.136,1.117-1.509,2.391-2.197c1.511-0.781,3.215-1.118,5.804-1.118c2.235,0,3.666,0.258,5.077,0.904
		c0.981,0.472,1.646,1.018,2.646,2.233l0.156,0.198L71.538,190.283L71.538,190.283z M67.108,181.644v2.429h-0.647v-2.391h-6.666
		c-0.843,0-1.193,0.512-1.193,1.668v0.139h-0.315v-5.12h0.314c0,1.272,0.313,1.646,1.43,1.646h6.43v-1.607h0.647l-0.002,1.607
		c3.02-0.018,4.568,1.16,4.568,3.469c0,1.16-0.527,2.042-1.216,2.042c-0.431,0-0.82-0.411-0.824-0.864
		c0-0.235,0.121-0.451,0.356-0.626l0.705-0.491c0.273-0.196,0.411-0.451,0.411-0.783c0-0.923-0.489-1.116-2.961-1.116
		C67.813,181.644,67.462,181.644,67.108,181.644L67.108,181.644z M39.458,151.521h-0.294c0,0.766-0.216,1.077-1.158,1.686
		l-2.821,1.845l-3.196-2.197c-0.784-0.529-1.02-0.862-1.04-1.452h-0.313v2.862h0.313v-0.159c0-0.445,0.099-0.624,0.353-0.624
		c0.118,0,0.236,0.058,0.451,0.179l0.432,0.271l2.292,1.473l-2.391,1.567l-0.157,0.137c-0.155,0.117-0.353,0.195-0.531,0.195
		c-0.351,0-0.449-0.175-0.449-0.824l-0.313,0.003v3.979h0.313c0-0.55,0.313-1.039,0.882-1.412l4.117-2.687l2.354,1.607
		c0.509,0.353,0.802,0.92,0.862,1.607h0.294v-3.139h-0.294c-0.06,0.629-0.157,0.786-0.433,0.786c-0.077,0-0.234-0.059-0.391-0.176
		l-1.725-1.117l1.431-0.902c0.275-0.176,0.508-0.254,0.685-0.254c0.295,0,0.413,0.254,0.433,0.842h0.294V151.521L39.458,151.521z
		 M31.448,148.411l9.555-3.98l-9.555-4.204V148.411z"/>
	<circle id="dummy_1_" style="fill:#FFFFFF;" cx="51.467" cy="105.139" r="3.318"/>
	<g id="Layer_26">
		<path style="fill:#FFFFFF;" d="M6.73,119.34h4.805l0.292-2.572c0.583-4.806,2.767-10.437,9.271-10.388
			c1.456,0,2.67,0.34,3.349,0.729l-0.825,3.106c-0.728-0.291-1.553-0.485-2.524-0.485c-3.3,0-4.757,3.154-5.145,6.746l-0.34,2.864
			h5.874v2.815h-6.213l-1.068,8.834c-0.729,6.31-2.718,10.532-8.446,10.581c-1.602,0-2.961-0.34-3.737-0.825l0.776-3.01
			c0.825,0.389,1.699,0.534,2.718,0.534c2.961,0,4.125-2.67,4.708-7.62l0.971-8.494H6.73V119.34z"/>
		<circle id="dummy_21_" style="fill:#FFFFFF;" cx="51.467" cy="124.139" r="3.318"/>
	</g>
	<g id="Layer_22">
		<path style="fill:#FFFFFF;" d="M82.827,159.227c5.775,0,6.6-3.218,6.683-6.105c0-2.311-0.33-4.62-0.66-6.93
			c-0.33-2.311-0.66-4.621-0.66-6.848c0-7.592,5.032-10.809,12.046-10.809h1.65v4.537h-1.403c-4.868,0.083-6.601,2.641-6.601,7.096
			c0,1.898,0.33,3.878,0.578,5.857c0.33,2.062,0.66,4.043,0.66,6.271c0.082,5.279-2.311,7.92-6.023,8.91v0.164
			c3.713,0.908,6.023,3.713,6.023,8.994c0,2.227-0.33,4.289-0.66,6.352c-0.248,1.98-0.578,3.961-0.578,5.941
			c0,4.619,1.98,7.095,6.601,7.178h1.403v4.537h-1.732c-6.766,0-11.964-2.97-11.964-11.303c0-2.228,0.33-4.537,0.743-6.766
			c0.247-2.311,0.577-4.537,0.577-6.683c0-2.64-0.825-6.188-6.683-6.188V159.227z"/>
		<circle id="dummy_19_" style="fill:#FFFFFF;" cx="50.467" cy="160.139" r="3.318"/>
	</g>
	<g id="Layer_25">
		<path style="fill:#FFFFFF;" d="M94.055,80.908c-3.296,3.232-6.722,6.787-12.022,6.787c-5.429,0-9.242-3.942-9.242-9.437
			c0-5.171,4.137-9.566,9.76-9.566c4.848,0,8.402,3.749,11.505,6.852c3.297-3.297,6.723-6.852,12.022-6.852
			c5.43,0,9.243,3.942,9.243,9.566c0,5.041-4.137,9.437-9.825,9.437C100.713,87.695,97.157,83.946,94.055,80.908z M91.47,78.259
			c-2.521-2.327-5.171-5.753-8.92-5.753c-3.231,0-5.688,2.65-5.688,5.753c0,3.231,2.327,5.623,5.559,5.623
			C86.04,83.882,89.014,80.779,91.47,78.259z M111.248,78.259c0-3.297-2.327-5.753-5.494-5.753c-3.684,0-6.657,3.231-9.113,5.753
			c2.521,2.262,5.171,5.623,8.984,5.623C108.792,83.882,111.248,81.297,111.248,78.259z"/>
		<circle id="dummy_18_" style="fill:#FFFFFF;" cx="52.467" cy="76.139" r="3.318"/>
	</g>
	<g id="Layer_24">
		<path style="fill:#FFFFFF;" d="M72.433,54.547v-3.612L87.987,6.189h7.224l15.406,44.672v3.686H72.433z M94.99,23.586
			c-1.18-3.538-2.654-8.403-3.539-11.647H91.23c-0.737,2.58-2.064,7.15-3.17,10.689L78.92,49.239h24.916L94.99,23.586z"/>
		<circle id="dummy_17_" style="fill:#FFFFFF;" cx="51.467" cy="29.139" r="3.318"/>
		<g id="Layer_23">
			<path style="fill:#FFFFFF;" d="M133.72,33.817c-3.063,0-3.501,1.882-3.545,3.282c0,1.138,0.175,2.319,0.351,3.545
				c0.175,1.182,0.35,2.406,0.35,3.588c0,4.42-2.757,5.995-6.346,5.995h-0.919v-2.406h0.744c2.451-0.044,3.501-1.357,3.501-3.808
				c0-1.051-0.175-2.101-0.307-3.15c-0.175-1.095-0.35-2.188-0.35-3.37c-0.044-2.801,1.226-4.289,3.194-4.77v-0.088
				c-1.969-0.525-3.194-1.926-3.194-4.727c0-1.182,0.175-2.231,0.35-3.326c0.132-1.05,0.307-2.101,0.307-3.106
				c0-2.363-0.919-3.72-3.501-3.764h-0.744v-2.407h0.876c3.72,0,6.389,1.707,6.389,5.733c0,1.182-0.175,2.406-0.35,3.632
				c-0.176,1.226-0.351,2.451-0.351,3.676c0,1.532,0.438,3.238,3.545,3.238V33.817z"/>
			<circle id="dummy_20_" style="fill:#FFFFFF;" cx="114.467" cy="29.139" r="3.318"/>
		</g>
	</g>
	<g id="Layer_21">
		<path style="fill:#FFFFFF;" d="M16.996,217.989l-6.27,10.065H5.363l6.518-10.065H0v-4.95h15.016l7.343-11.385H0v-4.951h25.494
			l6.271-10.065h5.363l-6.518,10.065h11.963v4.951H27.474l-7.26,11.385h22.359v4.95H16.996z"/>
		<circle id="dummy_16_" style="fill:#FFFFFF;" cx="51.467" cy="181.139" r="3.318"/>
	</g>
</g>
<g id="Layer_1">
</g>
</svg>
