<?xml version="1.0" encoding="iso-8859-1"?>
<!-- Generator: Adobe Illustrator 16.0.0, SVG Export Plug-In . SVG Version: 6.00 Build 0)  -->
<!DOCTYPE svg PUBLIC "-//W3C//DTD SVG 1.1//EN" "http://www.w3.org/Graphics/SVG/1.1/DTD/svg11.dtd">
<svg version="1.1" xmlns="http://www.w3.org/2000/svg" xmlns:xlink="http://www.w3.org/1999/xlink" x="0px" y="0px"
	 width="161.263px" height="90.537px" viewBox="0 0 161.263 90.537" style="enable-background:new 0 0 161.263 90.537;"
	 xml:space="preserve">
<g id="rootElbowL">
	<path style="fill:#FFFFFF;" d="M132.995,56.925l4.5,6.782c1.239,1.761,2.217,3.326,3.261,5.087h0.13
		c1.044-1.826,2.087-3.456,3.196-5.151l4.369-6.718h6.261l-10.761,15.261l11.021,16.304h-6.456l-4.695-7.108
		c-1.239-1.826-2.283-3.587-3.392-5.479h-0.131c-1.043,1.892-2.087,3.587-3.326,5.479l-4.564,7.108h-6.326l11.217-16.108
		l-10.695-15.456H132.995z"/>
	<circle id="dummy_7_" style="fill:#FFFFFF;" cx="157.945" cy="73.67" r="3.318"/>
	<g id="Layer_15">
		<path style="fill-rule:evenodd;clip-rule:evenodd;fill:#FFFFFF;" d="M87.166,63.684l-0.897,1.206l11.536,8.587l0.896-1.205
			L87.166,63.684L87.166,63.684z M83.998,67.938l-0.896,1.204l11.537,8.588l0.896-1.205L83.998,67.938L83.998,67.938z M74.18,56.809
			c0.61-1.279,0.789-1.793,0.915-2.654c0.288-1.897-0.264-3.398-1.688-4.459c-1.404-1.045-3.127-1.339-4.856-0.889
			c-1.842,0.504-2.768,1.244-4.383,3.415c-2.334,3.136-2.153,6.646,0.499,8.62c1.032,0.768,2.817,1.346,3.915,1.24
			c1.006-0.066,1.267-0.141,2.949-0.936c-0.826,2.62-0.872,4.053-0.104,4.623c0.988,0.735,2.34,0.107,3.749-1.738
			c0.066-0.09,0.181-0.244,0.349-0.425l-0.437-0.327c-0.922,1.053-1.849,1.385-2.529,0.879c-0.635-0.473-0.62-1.823,0.054-3.365
			l0.145-0.336l7.699-5.072l-1.955-1.455L74.18,56.809L74.18,56.809z M69.002,60.146c-1.21,0.702-2.668,0.744-3.479,0.141
			c-1.536-1.143-1.124-3.528,1.113-6.534c2.255-3.024,4.588-4.281,6.011-3.222c1.471,1.091,1.767,3.117,0.767,5.199l-0.841,1.727
			c-0.181,0.375-0.267,0.585-0.284,0.607c-0.163,0.219-0.644,0.543-1.323,0.954L69.002,60.146L69.002,60.146z M30.589,24.362
			c0.612-1.279,0.789-1.792,0.917-2.652c0.289-1.898-0.264-3.4-1.687-4.459c-1.404-1.045-3.127-1.34-4.861-0.893
			c-1.84,0.505-2.766,1.246-4.381,3.417c-2.334,3.135-2.153,6.646,0.501,8.621c1.029,0.767,2.812,1.343,3.915,1.241
			c1.005-0.067,1.265-0.143,2.946-0.938c-0.826,2.621-0.872,4.052-0.103,4.625c0.986,0.734,2.339,0.106,3.749-1.739
			c0.066-0.088,0.181-0.242,0.349-0.423l-0.438-0.33c-0.923,1.054-1.85,1.386-2.53,0.879c-0.635-0.473-0.62-1.823,0.054-3.365
			l0.146-0.336l7.696-5.074l-1.952-1.453L30.589,24.362L30.589,24.362z M25.414,27.701c-1.207,0.704-2.668,0.744-3.479,0.141
			c-1.538-1.145-1.124-3.528,1.113-6.534c2.253-3.027,4.585-4.283,6.009-3.224c1.47,1.091,1.768,3.12,0.766,5.2l-0.841,1.727
			c-0.178,0.375-0.267,0.584-0.284,0.607c-0.163,0.219-0.644,0.543-1.323,0.955L25.414,27.701L25.414,27.701z M114.185,74.049
			l-5.453-0.959l-0.228,0.307l0.369,0.141l1.264,0.363c0.06,0.012,0.104,0.044,0.169,0.092c0.504,0.376,0.579,0.873,0.169,1.422
			l-7.687,10.327c-0.83,1.116-1.599,1.095-3.213-0.076l-0.261,0.352l6.072,4.521l0.261-0.351c-1.622-1.209-1.883-1.776-1.247-2.631
			l9.927-13.332L114.185,74.049L114.185,74.049z M42.213,38.196c-2.082,0.734-3.362,0.672-4.612-0.258
			c-2.016-1.503-2.069-4.271-0.16-6.836c1.618-2.169,4.02-2.836,5.731-1.562c0.722,0.537,0.897,1.078,0.603,1.845l-0.4,0.995
			c-0.228,0.581-0.095,1.227,0.366,1.57c0.568,0.421,1.377,0.343,1.752-0.161c0.914-1.227,0.146-3.399-1.697-4.771
			c-2.717-2.027-6.546-1.229-8.814,1.818c-2.123,2.852-1.923,6.202,0.509,8.013c1.821,1.354,4.154,1.29,6.881-0.225L42.213,38.196
			L42.213,38.196z M53.327,32.054c-0.699,0.297-0.947,0.354-2.073,0.677c-0.547,0.139-0.959,0.239-1.19,0.27
			c-0.23,0.034-0.87,0.073-1.875,0.139c-0.036,0.003-0.116,0.016-0.214,0.012l-0.047,0.063c-0.034,0.046-0.058,0.128-0.099,0.269
			l1.165,0.864l-4.913,6.601l-0.13,0.175c-1.21,1.626-1.182,3.144,0.069,4.074c1.032,0.766,2.454,0.873,3.872,0.294l-0.131-0.508
			c-0.925,0.233-1.425,0.168-1.908-0.192c-0.724-0.538-0.676-1.425,0.14-2.521l4.865-6.536l2.216,1.649l0.538-0.722l-2.217-1.649
			l0.93-1.249l0.442-0.593l0.448-0.552l0.245-0.329L53.327,32.054L53.327,32.054z M64.101,45.22c-0.323-0.208-0.63-0.433-0.96-0.678
			c-0.984-0.736-1.409-1.083-1.611-1.404l-0.9-1.354c-0.243-0.315-0.568-0.656-0.984-0.966c-2.214-1.652-4.943-1.329-6.476,0.73
			c-0.998,1.34-1.051,2.833-0.169,4.443l-0.519,0.055l-0.963,0.104c-1.136,0.104-1.939,0.361-2.233,0.756
			c-0.357,0.48-0.281,1.02,0.281,2.047h-0.371c-2.071-0.012-3.159,0.305-3.729,1.072c-0.883,1.186,0.064,3.391,2.146,4.941
			c3.072,2.286,7.036,2.542,8.521,0.548c0.981-1.317,0.675-3.009-0.812-4.219l-3.579-2.972c-0.467-0.382-0.706-0.93-0.525-1.172
			c0.213-0.286,0.806-0.49,1.5-0.555c0.43-0.024,0.728,0.031,0.928,0.18l0.021,0.014l0.82,0.779c0.065,0.048,0.127,0.1,0.192,0.148
			c1.976,1.465,4.588,1.164,5.992-0.723c0.572-0.769,0.728-1.163,0.979-2.234l1.799,1.338L64.101,45.22L64.101,45.22z
			 M58.779,41.157c0.021,0.017,0.067,0.05,0.088,0.066c1.205,0.896,1.009,3.172-0.459,5.146c-1.012,1.357-2.137,1.681-3.145,0.932
			c-1.361-1.018-1.183-3.13,0.417-5.279C56.661,40.705,57.616,40.43,58.779,41.157L58.779,41.157L58.779,41.157z M50.021,49.395
			c0.547,0.64,0.774,0.883,1.33,1.33l3.322,2.678c0.8,0.662,1.029,1.412,0.604,1.984c-0.961,1.292-3.229,0.901-5.773-0.992
			c-1.885-1.402-2.685-2.988-1.967-3.951C47.849,50.023,48.453,49.76,50.021,49.395L50.021,49.395L50.021,49.395z M10.265,0
			C9.565,0.297,9.317,0.354,8.194,0.679c-0.547,0.138-0.961,0.238-1.19,0.27c-0.23,0.034-0.872,0.071-1.875,0.14
			C5.093,1.091,5.013,1.104,4.915,1.099L4.867,1.163c-0.034,0.045-0.06,0.126-0.099,0.27l1.166,0.864L1.02,8.897L0.89,9.071
			c-1.21,1.625-1.184,3.142,0.068,4.074c1.032,0.767,2.45,0.871,3.872,0.294l-0.132-0.509c-0.925,0.233-1.423,0.169-1.906-0.19
			c-0.724-0.539-0.676-1.426,0.14-2.522l4.866-6.536l2.216,1.649l0.538-0.721L8.333,2.961l0.93-1.249l0.442-0.594l0.445-0.554
			l0.245-0.329L10.265,0L10.265,0z M21.041,13.167c-0.324-0.208-0.631-0.432-0.96-0.678c-0.986-0.737-1.409-1.084-1.613-1.406
			l-0.901-1.354c-0.241-0.314-0.568-0.656-0.982-0.965c-2.212-1.651-4.943-1.329-6.476,0.73c-0.998,1.34-1.052,2.833-0.171,4.441
			l-0.517,0.057l-0.963,0.104c-1.135,0.104-1.939,0.362-2.232,0.756c-0.357,0.479-0.283,1.019,0.28,2.047l-0.375-0.003
			c-2.069-0.012-3.157,0.306-3.728,1.073c-0.883,1.185,0.064,3.391,2.148,4.943c3.07,2.285,7.036,2.542,8.521,0.548
			c0.981-1.319,0.672-3.012-0.812-4.219L8.682,16.27c-0.469-0.383-0.708-0.931-0.527-1.173c0.212-0.286,0.808-0.489,1.501-0.552
			c0.43-0.026,0.729,0.03,0.926,0.177l0.022,0.015l0.818,0.778c0.067,0.05,0.127,0.1,0.195,0.15
			c1.976,1.466,4.585,1.163,5.989-0.723c0.573-0.769,0.73-1.162,0.982-2.232l1.798,1.339L21.041,13.167L21.041,13.167z
			 M15.717,9.104c0.021,0.016,0.065,0.048,0.088,0.066c1.205,0.896,1.011,3.174-0.458,5.146c-1.011,1.358-2.137,1.682-3.146,0.931
			c-1.359-1.016-1.182-3.129,0.417-5.279C13.599,8.651,14.557,8.378,15.717,9.104L15.717,9.104L15.717,9.104z M6.961,17.343
			c0.548,0.639,0.773,0.883,1.328,1.328l3.322,2.678c0.801,0.662,1.027,1.411,0.602,1.983c-0.961,1.291-3.225,0.904-5.769-0.989
			c-1.886-1.404-2.687-2.99-1.969-3.953C4.787,17.97,5.394,17.708,6.961,17.343L6.961,17.343z"/>
		<circle id="dummy_8_" style="fill:#FFFFFF;" cx="117.945" cy="80.67" r="3.318"/>
	</g>
</g>
<g id="Layer_1">
</g>
</svg>
