<?xml version="1.0" encoding="iso-8859-1"?>
<!-- Generator: Adobe Illustrator 16.0.0, SVG Export Plug-In . SVG Version: 6.00 Build 0)  -->
<!DOCTYPE svg PUBLIC "-//W3C//DTD SVG 1.1//EN" "http://www.w3.org/Graphics/SVG/1.1/DTD/svg11.dtd">
<svg version="1.1" xmlns="http://www.w3.org/2000/svg" xmlns:xlink="http://www.w3.org/1999/xlink" x="0px" y="0px"
	 width="121.898px" height="92.663px" viewBox="0 0 121.898 92.663" style="enable-background:new 0 0 121.898 92.663;"
	 xml:space="preserve">
<g id="rootHead">
	<g>
		<path style="fill:#FFFFFF;" d="M58.975,66.358v-2.542l14.496-5.845v-0.075l-14.496-5.883V49.51l17.607,7.286v2.238L58.975,66.358z
			 M58.975,70.115v-2.201h17.531v2.201H58.975z"/>
	</g>
	<g>
		<path style="fill:#FFFFFF;" d="M20.414,9.055c0-2.539,0.879-4.683,2.637-6.432C24.808,0.875,26.948,0,29.469,0
			c2.539,0,4.674,0.875,6.406,2.624c1.73,1.749,2.596,3.893,2.596,6.432c0,2.521-0.87,4.652-2.61,6.392
			c-1.74,1.74-3.871,2.61-6.392,2.61c-2.503,0-4.639-0.87-6.405-2.61C21.297,13.707,20.414,11.577,20.414,9.055z M23.876,9.055
			c0,1.545,0.546,2.868,1.638,3.968c1.092,1.101,2.41,1.651,3.955,1.651c1.562,0,2.88-0.542,3.955-1.625
			c1.075-1.083,1.612-2.415,1.612-3.995c0-1.598-0.533-2.934-1.598-4.008c-1.065-1.074-2.388-1.611-3.968-1.611
			s-2.907,0.542-3.981,1.625S23.876,7.475,23.876,9.055z M27.951,40.694L50.482,0h3.009L31.014,40.694H27.951z M42.945,31.639
			c0-2.539,0.866-4.673,2.597-6.404c1.731-1.732,3.866-2.597,6.405-2.597c2.539,0,4.682,0.865,6.432,2.597
			c1.749,1.731,2.624,3.866,2.624,6.404c0,2.522-0.879,4.661-2.637,6.419c-1.758,1.757-3.897,2.636-6.418,2.636
			c-2.504,0-4.63-0.879-6.379-2.636C43.819,36.3,42.945,34.161,42.945,31.639z M46.38,31.639c0,1.545,0.542,2.868,1.625,3.968
			c1.083,1.102,2.397,1.651,3.942,1.651c1.562,0,2.89-0.546,3.981-1.638c1.092-1.092,1.639-2.419,1.639-3.982
			c0-1.58-0.537-2.903-1.612-3.968c-1.074-1.065-2.41-1.598-4.008-1.598c-1.581,0-2.903,0.533-3.968,1.598
			C46.913,28.736,46.38,30.06,46.38,31.639z M66.089,31.639c0-2.539,0.864-4.673,2.597-6.404c1.73-1.732,3.865-2.597,6.404-2.597
			s4.684,0.865,6.432,2.597c1.748,1.731,2.623,3.866,2.623,6.404c0,2.522-0.883,4.661-2.65,6.419
			c-1.766,1.757-3.9,2.636-6.404,2.636c-2.521,0-4.651-0.879-6.392-2.636C66.957,36.3,66.089,34.161,66.089,31.639z M69.471,31.639
			c0,1.545,0.546,2.868,1.638,3.968c1.092,1.102,2.419,1.651,3.981,1.651c1.545,0,2.854-0.541,3.928-1.624
			c1.074-1.083,1.611-2.415,1.611-3.996c0-1.58-0.527-2.903-1.584-3.968c-1.057-1.065-2.375-1.598-3.955-1.598
			c-1.598,0-2.934,0.533-4.008,1.598C70.008,28.736,69.471,30.06,69.471,31.639z"/>
	</g>
	<circle id="dummy_38_" style="fill:#FFFFFF;" cx="63.964" cy="87.451" r="3.318"/>
	<g id="Layer_10">
		<path style="fill-rule:evenodd;clip-rule:evenodd;fill:#FFFFFF;" d="M26.582,22.028c0.08,0.196,0.088,0.317,0.042,0.448
			c-0.065,0.183-0.214,0.219-0.502,0.119l-1.971-0.684c-0.84-0.292-1.376-0.017-1.684,0.868c-0.272,0.787-0.056,1.579,0.485,1.767
			c0.211,0.074,0.435-0.035,0.508-0.246c0.073-0.209-0.037-0.455-0.24-0.525c-0.017-0.006-0.033-0.012-0.055-0.007l-0.249-0.049
			c-0.017-0.006-0.035-0.01-0.053-0.017c-0.236-0.084-0.331-0.429-0.212-0.77c0.149-0.43,0.495-0.575,0.967-0.411l0.521,0.191
			c0.011,0.563,0.026,0.774,0.081,1.294c0.097,0.877,0.346,1.296,0.862,1.476c0.56,0.194,1.076-0.048,1.267-0.599
			c0.137-0.395,0.074-0.839-0.198-1.492c0.443,0.135,0.712,0.012,0.843-0.364c0.094-0.273,0.059-0.482-0.175-0.914L26.582,22.028
			L26.582,22.028z M24.358,22.788l0.692,0.24c0.061,0.021,0.152,0.042,0.266,0.082l0.104,0.036c0.648,0.225,0.78,0.497,0.551,1.155
			c-0.108,0.313-0.48,0.45-0.883,0.311c-0.252-0.088-0.445-0.272-0.554-0.556C24.388,23.689,24.36,23.465,24.358,22.788
			L24.358,22.788L24.358,22.788z M14.529,39.352c0,0.421-0.045,1.093-0.1,1.534l0.14,0.049c0.038-0.142,0.063-0.212,0.088-0.282
			c0.086-0.254,0.238-0.378,0.396-0.323l0.114,0.04l4.481,1.555c0.307,0.106,0.384,0.367,0.24,0.839l0.139,0.049l0.723-2.084
			l-0.14-0.048c-0.19,0.522-0.352,0.621-0.789,0.469l-5.263-1.827L14.529,39.352L14.529,39.352z M17.54,36.979
			c-0.357,1.171,0.184,2.212,1.385,2.629c1.189,0.413,2.351-0.105,2.736-1.217c0.383-1.104-0.247-2.253-1.452-2.683
			c-1.14-0.396-2.271,0.125-2.651,1.219L17.54,36.979L17.54,36.979z M18.903,38.699c-0.033-0.012-0.069-0.024-0.103-0.036
			c-0.85-0.295-1.251-0.885-1.035-1.509c0.254-0.733,1.256-0.964,2.455-0.548c0.981,0.34,1.454,0.955,1.235,1.586
			c-0.244,0.699-1.246,0.902-2.551,0.507L18.903,38.699L18.903,38.699z M20.03,30.711c-0.035,0.125-0.076,0.25-0.121,0.379
			c-0.139,0.394-0.207,0.565-0.291,0.664l-0.345,0.429c-0.077,0.109-0.155,0.25-0.213,0.415c-0.307,0.885,0.077,1.735,0.899,2.02
			c0.533,0.185,1.021,0.051,1.452-0.399l0.072,0.161l0.13,0.303c0.151,0.357,0.315,0.589,0.472,0.644
			c0.193,0.067,0.357-0.013,0.635-0.3l0.035,0.121c0.208,0.671,0.423,0.988,0.729,1.094c0.474,0.165,1.089-0.366,1.377-1.196
			c0.424-1.228,0.105-2.535-0.691-2.812c-0.527-0.183-1.043,0.09-1.281,0.694l-0.596,1.459c-0.075,0.19-0.229,0.324-0.326,0.291
			c-0.115-0.04-0.239-0.213-0.33-0.429c-0.052-0.136-0.065-0.239-0.038-0.318l0.002-0.008l0.169-0.344
			c0.009-0.026,0.018-0.051,0.027-0.079c0.274-0.79-0.092-1.601-0.844-1.862c-0.308-0.107-0.451-0.117-0.823-0.088l0.248-0.719
			L20.03,30.711L20.03,30.711z M19.26,32.846c0.002-0.008,0.009-0.025,0.012-0.035c0.167-0.481,0.92-0.649,1.708-0.375
			c0.542,0.188,0.763,0.518,0.623,0.919c-0.189,0.545-0.892,0.703-1.75,0.405C19.329,33.577,19.143,33.296,19.26,32.846
			L19.26,32.846L19.26,32.846z M22.815,34.835c0.153-0.242,0.207-0.339,0.295-0.565l0.525-1.348
			c0.133-0.325,0.352-0.477,0.581-0.397c0.515,0.179,0.621,0.953,0.269,1.967c-0.262,0.752-0.692,1.173-1.077,1.039
			C23.24,35.474,23.095,35.304,22.815,34.835L22.815,34.835L22.815,34.835z M11.241,63.726c0.449,0.598,0.559,1.018,0.385,1.517
			c-0.281,0.805-1.168,1.104-2.192,0.749c-0.867-0.301-1.326-1.011-1.089-1.692c0.1-0.289,0.256-0.402,0.534-0.383l0.363,0.028
			c0.209,0.013,0.404-0.096,0.468-0.279c0.078-0.228-0.029-0.481-0.229-0.551c-0.491-0.17-1.116,0.301-1.371,1.036
			c-0.376,1.085,0.272,2.243,1.49,2.665c1.137,0.395,2.201-0.012,2.539-0.984c0.252-0.726-0.009-1.475-0.777-2.201L11.241,63.726
			L11.241,63.726z M0.1,80.931c0,0.426-0.045,1.094-0.1,1.536l0.14,0.048c0.038-0.142,0.064-0.213,0.088-0.281
			c0.087-0.255,0.239-0.38,0.397-0.324l0.114,0.04l4.48,1.555c0.307,0.106,0.384,0.367,0.24,0.839l0.139,0.048l0.723-2.083
			l-0.141-0.049c-0.19,0.523-0.352,0.621-0.789,0.469l-5.263-1.825L0.1,80.931L0.1,80.931z M3.11,78.56
			c-0.356,1.17,0.184,2.212,1.384,2.628c1.19,0.413,2.352-0.105,2.737-1.216c0.383-1.104-0.247-2.254-1.452-2.683
			c-1.14-0.396-2.271,0.126-2.651,1.22L3.11,78.56L3.11,78.56z M4.474,80.278c-0.033-0.012-0.069-0.024-0.104-0.036
			c-0.85-0.295-1.251-0.884-1.036-1.505c0.256-0.736,1.258-0.969,2.457-0.553c0.98,0.341,1.454,0.956,1.234,1.588
			c-0.244,0.7-1.246,0.902-2.55,0.507L4.474,80.278L4.474,80.278z M5.6,72.291c-0.034,0.124-0.076,0.248-0.121,0.38
			c-0.139,0.394-0.207,0.564-0.291,0.664l-0.345,0.428c-0.077,0.11-0.156,0.252-0.214,0.417c-0.306,0.884,0.078,1.733,0.899,2.019
			c0.534,0.186,1.021,0.052,1.452-0.397l0.072,0.161l0.13,0.302c0.151,0.358,0.315,0.59,0.472,0.645
			c0.192,0.066,0.357-0.014,0.634-0.3l0.037,0.12c0.207,0.672,0.422,0.988,0.728,1.095c0.474,0.164,1.088-0.364,1.377-1.197
			c0.424-1.228,0.104-2.533-0.692-2.81c-0.527-0.184-1.042,0.089-1.281,0.692l-0.596,1.46c-0.075,0.191-0.229,0.324-0.325,0.29
			c-0.115-0.04-0.239-0.212-0.331-0.428c-0.051-0.139-0.065-0.24-0.038-0.318l0.003-0.008l0.169-0.345
			c0.008-0.025,0.018-0.052,0.027-0.079c0.274-0.789-0.092-1.602-0.845-1.861c-0.308-0.107-0.451-0.117-0.823-0.09l0.248-0.718
			L5.6,72.291L5.6,72.291z M4.831,74.427c0.003-0.008,0.009-0.026,0.013-0.036c0.167-0.48,0.92-0.651,1.709-0.378
			c0.542,0.188,0.762,0.52,0.623,0.922c-0.189,0.544-0.893,0.703-1.751,0.405C4.898,75.157,4.713,74.876,4.831,74.427L4.831,74.427
			L4.831,74.427z M8.385,76.415c0.153-0.242,0.207-0.338,0.295-0.564l0.525-1.347c0.133-0.326,0.352-0.478,0.581-0.398
			c0.516,0.179,0.621,0.951,0.269,1.968c-0.262,0.752-0.692,1.173-1.077,1.039C8.811,77.055,8.665,76.884,8.385,76.415L8.385,76.415
			L8.385,76.415z M22.292,29.412l-0.006,0.14l-0.007,0.276l-0.001,0.147c-0.001,0.167-0.009,0.25-0.033,0.48l0.1,0.035
			c0.016-0.046,0.032-0.089,0.047-0.133c0.061-0.181,0.166-0.256,0.291-0.212l3.381,1.173c0.013,0.005,0.025,0.009,0.041,0.005
			c0.067-0.016,0.138-0.055,0.197-0.103c0.207-0.19,0.387-0.469,0.496-0.783c0.295-0.851-0.152-1.721-1.06-2.035
			c-0.775-0.269-1.528,0.003-1.747,0.634c-0.125,0.361-0.043,0.792,0.208,1.039L22.292,29.412L22.292,29.412z M24.549,30.195
			c-0.237-0.082-0.354-0.45-0.246-0.764c0.171-0.495,0.753-0.636,1.512-0.38c0.712,0.248,1.005,0.679,0.821,1.208
			c-0.056,0.159-0.153,0.298-0.269,0.412c-0.083,0.07-0.16,0.099-0.223,0.077L24.549,30.195L24.549,30.195z M7.863,70.992
			l-0.005,0.139l-0.006,0.275L7.85,71.555c-0.002,0.168-0.01,0.252-0.034,0.479l0.1,0.034c0.015-0.043,0.031-0.086,0.047-0.132
			c0.061-0.182,0.166-0.256,0.292-0.212l3.381,1.173c0.013,0.005,0.025,0.009,0.041,0.006c0.067-0.017,0.137-0.055,0.197-0.104
			c0.207-0.189,0.387-0.469,0.496-0.782c0.294-0.849-0.153-1.72-1.061-2.034c-0.775-0.27-1.528,0.002-1.747,0.633
			c-0.125,0.36-0.043,0.792,0.209,1.038L7.863,70.992L7.863,70.992z M10.12,71.774c-0.237-0.082-0.354-0.449-0.246-0.764
			c0.171-0.495,0.754-0.636,1.512-0.379c0.712,0.247,1.005,0.678,0.821,1.209c-0.055,0.156-0.153,0.297-0.269,0.411
			c-0.082,0.07-0.159,0.099-0.222,0.076L10.12,71.774L10.12,71.774z M23.417,45.623c0.642,0.855,0.798,1.455,0.551,2.167
			c-0.4,1.152-1.669,1.58-3.132,1.072c-1.24-0.432-1.897-1.443-1.558-2.419c0.143-0.413,0.368-0.574,0.766-0.546l0.517,0.038
			c0.302,0.021,0.581-0.134,0.671-0.396c0.113-0.326-0.041-0.689-0.329-0.789c-0.701-0.243-1.591,0.429-1.957,1.48
			c-0.54,1.549,0.388,3.202,2.125,3.805c1.625,0.563,3.145-0.016,3.625-1.402c0.361-1.04-0.011-2.107-1.108-3.146L23.417,45.623
			L23.417,45.623z M10.084,87.636c0.114,0.279,0.124,0.45,0.059,0.639c-0.091,0.262-0.305,0.315-0.718,0.172l-2.813-0.976
			c-1.201-0.417-1.967-0.023-2.405,1.238c-0.391,1.123-0.082,2.255,0.693,2.523c0.3,0.104,0.621-0.052,0.725-0.352
			c0.104-0.301-0.055-0.649-0.343-0.749c-0.025-0.009-0.049-0.017-0.079-0.013L4.846,90.05c-0.026-0.009-0.05-0.016-0.075-0.024
			c-0.338-0.119-0.474-0.613-0.303-1.103c0.212-0.611,0.703-0.819,1.38-0.584l0.746,0.271c0.016,0.805,0.036,1.107,0.114,1.849
			c0.139,1.252,0.493,1.854,1.231,2.109c0.798,0.277,1.537-0.07,1.81-0.857c0.196-0.564,0.106-1.196-0.283-2.131
			c0.633,0.192,1.017,0.017,1.203-0.521c0.135-0.389,0.084-0.687-0.248-1.307L10.084,87.636L10.084,87.636z M6.905,88.719
			l0.988,0.343c0.086,0.03,0.217,0.062,0.378,0.118l0.151,0.053c0.925,0.321,1.115,0.707,0.788,1.647
			c-0.157,0.448-0.687,0.645-1.261,0.445c-0.364-0.127-0.636-0.389-0.789-0.793C6.948,90.01,6.906,89.686,6.905,88.719L6.905,88.719
			L6.905,88.719z M15.392,59.291l0.69,0.239l2.282-6.576l-0.689-0.239L15.392,59.291L15.392,59.291z M17.819,60.133l0.69,0.239
			l2.282-6.576l-0.689-0.239L17.819,60.133z"/>
		<circle id="dummy_2_" style="fill:#FFFFFF;" cx="29.964" cy="12.452" r="3.318"/>
	</g>
	<g id="Layer_9">
		<path style="fill:#FFFFFF;" d="M100.648,36.54c-0.037-0.095,0.01-0.202,0.105-0.239c0.096-0.037,0.203,0.01,0.24,0.104
			l1.759,4.512c0.038,0.096-0.01,0.201-0.105,0.239c-0.097,0.037-0.203-0.008-0.24-0.104L100.648,36.54L100.648,36.54z
			 M115.82,84.196c-0.104-0.053-0.151-0.103-0.179-0.175c-0.039-0.101,0.011-0.171,0.17-0.232l1.088-0.425
			c0.464-0.181,0.592-0.493,0.402-0.98c-0.17-0.435-0.55-0.694-0.85-0.577c-0.115,0.046-0.171,0.173-0.126,0.289
			c0.046,0.116,0.181,0.18,0.292,0.137c0.011-0.004,0.02-0.008,0.027-0.017l0.123-0.07c0.01-0.003,0.02-0.007,0.03-0.011
			c0.13-0.051,0.296,0.062,0.37,0.25c0.092,0.237-0.002,0.424-0.264,0.525l-0.291,0.108c-0.209-0.235-0.293-0.319-0.505-0.522
			c-0.359-0.336-0.617-0.427-0.902-0.315c-0.31,0.121-0.44,0.412-0.322,0.716c0.085,0.218,0.271,0.385,0.626,0.563
			c-0.236,0.104-0.308,0.254-0.227,0.462c0.059,0.15,0.149,0.225,0.405,0.325L115.82,84.196L115.82,84.196z M116.493,83.066
			l-0.382,0.148c-0.033,0.013-0.081,0.037-0.144,0.062l-0.058,0.022c-0.357,0.14-0.512,0.071-0.653-0.292
			c-0.067-0.173,0.041-0.365,0.263-0.452c0.141-0.055,0.288-0.046,0.438,0.036C116.152,82.692,116.247,82.778,116.493,83.066
			L116.493,83.066L116.493,83.066z M106.805,61.075c-0.104-0.054-0.151-0.103-0.18-0.175c-0.039-0.103,0.01-0.173,0.17-0.235
			l1.088-0.422c0.465-0.182,0.593-0.493,0.402-0.981c-0.17-0.436-0.55-0.694-0.849-0.577c-0.115,0.045-0.172,0.173-0.126,0.289
			c0.045,0.116,0.181,0.18,0.292,0.137c0.01-0.004,0.02-0.008,0.026-0.017l0.124-0.069c0.01-0.004,0.02-0.008,0.029-0.012
			c0.131-0.051,0.297,0.062,0.371,0.251c0.092,0.237-0.003,0.423-0.265,0.525l-0.291,0.107c-0.209-0.234-0.292-0.32-0.504-0.521
			c-0.36-0.338-0.617-0.426-0.903-0.314c-0.309,0.12-0.44,0.409-0.322,0.714c0.085,0.218,0.272,0.384,0.627,0.564
			c-0.237,0.103-0.308,0.253-0.227,0.461c0.058,0.149,0.148,0.226,0.405,0.326L106.805,61.075L106.805,61.075z M107.477,59.943
			l-0.382,0.148c-0.033,0.014-0.08,0.038-0.144,0.062l-0.057,0.022c-0.358,0.14-0.513,0.072-0.654-0.291
			c-0.068-0.175,0.041-0.367,0.263-0.454c0.141-0.055,0.289-0.044,0.438,0.036C107.137,59.57,107.23,59.655,107.477,59.943
			L107.477,59.943L107.477,59.943z M96.851,35.549c-0.104-0.055-0.151-0.103-0.18-0.176c-0.039-0.1,0.011-0.17,0.171-0.232
			l1.088-0.424c0.464-0.181,0.592-0.493,0.401-0.981c-0.169-0.435-0.549-0.693-0.849-0.576c-0.115,0.045-0.171,0.172-0.126,0.288
			c0.045,0.116,0.181,0.179,0.291,0.136c0.011-0.004,0.02-0.008,0.028-0.015l0.123-0.07c0.01-0.003,0.02-0.007,0.03-0.011
			c0.13-0.051,0.297,0.062,0.369,0.249c0.093,0.237-0.001,0.426-0.263,0.528l-0.291,0.107c-0.209-0.235-0.293-0.32-0.505-0.521
			c-0.359-0.337-0.618-0.429-0.903-0.317c-0.309,0.123-0.44,0.413-0.321,0.716c0.085,0.219,0.271,0.385,0.626,0.563
			c-0.236,0.105-0.308,0.254-0.227,0.461c0.059,0.151,0.149,0.226,0.405,0.327L96.851,35.549L96.851,35.549z M97.522,34.418
			l-0.381,0.148c-0.034,0.013-0.081,0.038-0.144,0.062l-0.058,0.022c-0.357,0.139-0.513,0.071-0.653-0.292
			c-0.068-0.174,0.041-0.366,0.263-0.453c0.141-0.055,0.288-0.047,0.437,0.035C97.183,34.044,97.277,34.13,97.522,34.418
			L97.522,34.418L97.522,34.418z M120.104,87.898c-0.584-0.131-0.868-0.329-1.021-0.722c-0.247-0.636,0.138-1.279,0.945-1.595
			c0.685-0.267,1.332-0.073,1.541,0.464c0.089,0.228,0.053,0.379-0.126,0.512l-0.234,0.172c-0.137,0.099-0.199,0.267-0.143,0.411
			c0.07,0.181,0.267,0.278,0.426,0.216c0.387-0.149,0.523-0.76,0.297-1.34c-0.334-0.856-1.329-1.225-2.289-0.85
			c-0.896,0.35-1.333,1.148-1.034,1.916c0.224,0.573,0.77,0.892,1.615,0.936L120.104,87.898L120.104,87.898z M117.937,71.588
			c-0.219-0.257-0.539-0.688-0.735-0.986l-0.109,0.043c0.051,0.108,0.071,0.162,0.093,0.218c0.078,0.2,0.051,0.355-0.073,0.404
			l-0.09,0.035l-3.535,1.378c-0.241,0.095-0.424-0.026-0.58-0.386l-0.11,0.044l0.64,1.642l0.112-0.044
			c-0.155-0.416-0.109-0.562,0.236-0.696l4.149-1.618L117.937,71.588L117.937,71.588z M117.328,74.575
			c-0.39-0.897-1.26-1.251-2.206-0.882c-0.938,0.366-1.376,1.285-1.034,2.161c0.339,0.87,1.319,1.243,2.275,0.879
			c0.897-0.351,1.317-1.254,0.98-2.116L117.328,74.575L117.328,74.575z M115.604,74.237c0.028-0.011,0.056-0.021,0.083-0.032
			c0.67-0.261,1.222-0.111,1.413,0.379c0.227,0.582-0.264,1.24-1.21,1.609c-0.773,0.302-1.38,0.173-1.574-0.323
			C114.102,75.316,114.606,74.675,115.604,74.237L115.604,74.237L115.604,74.237z M119.056,79.66
			c-0.044-0.094-0.082-0.191-0.123-0.295c-0.121-0.311-0.168-0.451-0.168-0.555l-0.013-0.44c-0.01-0.106-0.035-0.233-0.086-0.364
			c-0.272-0.697-0.946-1.016-1.595-0.763c-0.421,0.164-0.648,0.5-0.678,0.997l-0.127-0.062l-0.235-0.116
			c-0.276-0.137-0.499-0.195-0.623-0.146c-0.151,0.059-0.211,0.193-0.23,0.511l-0.084-0.054c-0.475-0.301-0.771-0.384-1.013-0.29
			c-0.372,0.146-0.472,0.789-0.215,1.445c0.377,0.967,1.251,1.596,1.879,1.351c0.414-0.162,0.587-0.595,0.419-1.086l-0.396-1.199
			c-0.051-0.154-0.027-0.315,0.049-0.345c0.09-0.035,0.256,0.005,0.424,0.089c0.103,0.058,0.163,0.113,0.188,0.175l0.002,0.007
			l0.076,0.297c0.008,0.02,0.017,0.041,0.024,0.062c0.242,0.621,0.887,0.927,1.48,0.695c0.241-0.094,0.335-0.162,0.548-0.371
			l0.221,0.565L119.056,79.66L119.056,79.66z M118.416,77.96c0.003,0.007,0.009,0.021,0.012,0.028
			c0.148,0.38-0.225,0.874-0.845,1.116c-0.428,0.167-0.733,0.078-0.857-0.238c-0.166-0.428,0.179-0.889,0.855-1.153
			C117.995,77.552,118.254,77.625,118.416,77.96L118.416,77.96L118.416,77.96z M115.22,78.594c0.033,0.228,0.051,0.315,0.113,0.497
			l0.38,1.093c0.088,0.268,0.032,0.473-0.147,0.543c-0.406,0.158-0.871-0.258-1.184-1.059c-0.231-0.593-0.188-1.072,0.116-1.19
			C114.63,78.427,114.807,78.452,115.22,78.594L115.22,78.594L115.22,78.594z M114.129,61.801l-0.096-0.121l-0.197-0.24
			l-0.105-0.126c-0.119-0.145-0.173-0.221-0.319-0.433l-0.109,0.044c0.019,0.048,0.037,0.096,0.056,0.144
			c0.078,0.2,0.046,0.341-0.093,0.395l-3.735,1.456c-0.014,0.006-0.027,0.012-0.039,0.023c-0.046,0.065-0.077,0.149-0.091,0.234
			c-0.039,0.31,0.011,0.682,0.145,1.025c0.366,0.938,1.38,1.355,2.381,0.966c0.857-0.334,1.301-1.112,1.029-1.811
			c-0.156-0.399-0.538-0.705-0.932-0.735L114.129,61.801L114.129,61.801z M111.635,62.773c0.264-0.103,0.631,0.128,0.766,0.474
			c0.214,0.545-0.18,1.088-1.012,1.421c-0.787,0.308-1.349,0.153-1.578-0.435c-0.066-0.172-0.086-0.363-0.069-0.545
			c0.018-0.118,0.064-0.201,0.134-0.229L111.635,62.773L111.635,62.773z M108.934,48.499c-0.219-0.257-0.539-0.688-0.735-0.985
			l-0.109,0.043c0.05,0.106,0.071,0.162,0.093,0.217c0.078,0.2,0.05,0.354-0.074,0.403l-0.09,0.035l-3.534,1.378
			c-0.242,0.095-0.425-0.026-0.581-0.387l-0.111,0.044l0.642,1.644l0.111-0.044c-0.155-0.417-0.108-0.562,0.236-0.696l4.149-1.618
			L108.934,48.499L108.934,48.499z M108.325,51.487c-0.391-0.899-1.261-1.252-2.207-0.883c-0.938,0.366-1.375,1.285-1.034,2.161
			c0.34,0.869,1.32,1.243,2.276,0.88c0.897-0.351,1.317-1.254,0.98-2.116L108.325,51.487L108.325,51.487z M106.602,51.147
			c0.027-0.011,0.056-0.021,0.082-0.032c0.671-0.261,1.222-0.11,1.413,0.38c0.227,0.58-0.264,1.24-1.209,1.609
			c-0.773,0.302-1.381,0.172-1.575-0.325C105.098,52.228,105.603,51.584,106.602,51.147L106.602,51.147L106.602,51.147z
			 M110.052,56.57c-0.044-0.093-0.082-0.19-0.122-0.293c-0.121-0.312-0.168-0.451-0.168-0.555l-0.013-0.441
			c-0.011-0.107-0.035-0.233-0.086-0.363c-0.272-0.697-0.946-1.017-1.596-0.764c-0.42,0.164-0.648,0.499-0.677,0.997l-0.128-0.063
			l-0.234-0.113c-0.277-0.139-0.499-0.196-0.623-0.147c-0.151,0.059-0.212,0.193-0.23,0.511l-0.084-0.054
			c-0.476-0.301-0.771-0.384-1.013-0.29c-0.373,0.146-0.472,0.789-0.216,1.443c0.377,0.968,1.252,1.598,1.879,1.354
			c0.415-0.162,0.587-0.596,0.419-1.087l-0.395-1.199c-0.052-0.155-0.027-0.315,0.048-0.345c0.09-0.035,0.256,0.003,0.425,0.089
			c0.102,0.057,0.162,0.112,0.187,0.175l0.003,0.007l0.076,0.296c0.008,0.021,0.016,0.042,0.024,0.062
			c0.242,0.622,0.887,0.927,1.48,0.695c0.241-0.094,0.334-0.162,0.546-0.373l0.222,0.566L110.052,56.57L110.052,56.57z
			 M109.413,54.871c0.003,0.008,0.008,0.021,0.011,0.027c0.147,0.379-0.224,0.875-0.845,1.117c-0.427,0.167-0.733,0.078-0.856-0.238
			c-0.167-0.428,0.178-0.89,0.854-1.154C108.991,54.462,109.251,54.536,109.413,54.871L109.413,54.871L109.413,54.871z
			 M106.216,55.505c0.033,0.227,0.051,0.314,0.114,0.497l0.379,1.093c0.088,0.268,0.032,0.473-0.146,0.543
			c-0.407,0.158-0.872-0.258-1.184-1.059c-0.231-0.593-0.188-1.072,0.115-1.19C105.626,55.337,105.804,55.363,106.216,55.505
			L106.216,55.505L106.216,55.505z M96.072,42.324c-0.584-0.13-0.868-0.329-1.021-0.723c-0.247-0.634,0.138-1.278,0.945-1.593
			c0.685-0.267,1.332-0.074,1.542,0.465c0.089,0.228,0.051,0.376-0.127,0.511l-0.235,0.17c-0.137,0.1-0.198,0.269-0.142,0.414
			c0.07,0.18,0.267,0.277,0.426,0.215c0.387-0.151,0.522-0.76,0.297-1.34c-0.334-0.857-1.329-1.224-2.288-0.85
			c-0.897,0.35-1.334,1.148-1.035,1.915c0.224,0.573,0.77,0.894,1.614,0.938L96.072,42.324L96.072,42.324z M108.846,35.212
			l-0.096-0.12l-0.198-0.242l-0.105-0.127c-0.118-0.143-0.172-0.218-0.318-0.431l-0.11,0.043c0.019,0.049,0.038,0.097,0.056,0.145
			c0.078,0.2,0.046,0.342-0.092,0.396l-3.734,1.457c-0.015,0.005-0.028,0.011-0.041,0.023c-0.045,0.065-0.076,0.149-0.091,0.233
			c-0.039,0.31,0.011,0.681,0.145,1.025c0.366,0.939,1.38,1.355,2.381,0.965c0.857-0.334,1.302-1.11,1.029-1.809
			c-0.156-0.399-0.538-0.706-0.932-0.735L108.846,35.212L108.846,35.212z M106.352,36.185c0.263-0.103,0.632,0.128,0.767,0.474
			c0.212,0.545-0.182,1.087-1.014,1.421c-0.787,0.307-1.349,0.152-1.577-0.435c-0.067-0.172-0.086-0.364-0.069-0.545
			c0.017-0.119,0.064-0.201,0.133-0.228L106.352,36.185L106.352,36.185z M98.967,22.94c-0.219-0.257-0.539-0.689-0.735-0.987
			l-0.109,0.043c0.05,0.108,0.071,0.163,0.094,0.22c0.077,0.198,0.05,0.353-0.075,0.401l-0.09,0.035l-3.534,1.378
			c-0.242,0.094-0.424-0.025-0.58-0.386l-0.111,0.043l0.641,1.642l0.111-0.043c-0.154-0.416-0.108-0.562,0.236-0.696l4.149-1.618
			L98.967,22.94L98.967,22.94z M98.357,25.927c-0.39-0.897-1.26-1.251-2.206-0.882c-0.938,0.366-1.375,1.285-1.033,2.161
			c0.339,0.871,1.319,1.243,2.275,0.879c0.897-0.35,1.316-1.254,0.98-2.117L98.357,25.927L98.357,25.927z M96.635,25.589
			c0.027-0.011,0.056-0.021,0.082-0.032c0.671-0.261,1.222-0.111,1.413,0.38c0.227,0.58-0.263,1.241-1.209,1.61
			c-0.773,0.302-1.381,0.172-1.574-0.325C95.131,26.669,95.636,26.026,96.635,25.589L96.635,25.589L96.635,25.589z M100.086,31.011
			c-0.045-0.094-0.082-0.19-0.123-0.295c-0.12-0.308-0.168-0.451-0.169-0.554l-0.012-0.44c-0.011-0.108-0.036-0.234-0.087-0.365
			c-0.271-0.697-0.945-1.015-1.595-0.762c-0.42,0.164-0.647,0.5-0.677,0.996l-0.127-0.061l-0.236-0.117
			c-0.276-0.138-0.498-0.194-0.622-0.146c-0.151,0.059-0.211,0.193-0.23,0.511l-0.084-0.055c-0.475-0.298-0.771-0.383-1.013-0.289
			c-0.373,0.146-0.472,0.789-0.216,1.445c0.377,0.967,1.251,1.596,1.879,1.351c0.415-0.162,0.587-0.596,0.419-1.087l-0.395-1.197
			c-0.052-0.155-0.026-0.315,0.049-0.345c0.09-0.035,0.256,0.004,0.424,0.088c0.102,0.057,0.162,0.112,0.187,0.174l0.002,0.006
			l0.077,0.296c0.008,0.022,0.016,0.042,0.024,0.064c0.242,0.621,0.887,0.927,1.48,0.695c0.241-0.094,0.334-0.163,0.547-0.373
			l0.221,0.565L100.086,31.011L100.086,31.011z M99.446,29.312c0.003,0.007,0.008,0.021,0.011,0.027
			c0.148,0.38-0.224,0.875-0.845,1.117c-0.428,0.167-0.732,0.079-0.856-0.238c-0.167-0.427,0.178-0.888,0.854-1.152
			C99.024,28.904,99.284,28.976,99.446,29.312L99.446,29.312L99.446,29.312z M96.25,29.946c0.032,0.226,0.05,0.314,0.113,0.497
			l0.379,1.093c0.088,0.267,0.032,0.472-0.146,0.542c-0.407,0.16-0.871-0.256-1.184-1.057c-0.231-0.594-0.188-1.072,0.116-1.19
			C95.66,29.779,95.837,29.804,96.25,29.946L96.25,29.946L96.25,29.946z M112.844,66.584l-0.38,0.148l1.413,3.625l0.38-0.148
			L112.844,66.584L112.844,66.584z M104.328,42.667l-0.38,0.148l1.417,3.632l0.38-0.148L104.328,42.667L104.328,42.667z
			 M102.989,43.19l-0.38,0.148l1.416,3.632l0.381-0.148L102.989,43.19z"/>
		<circle id="dummy_3_" style="fill:#FFFFFF;" cx="91.964" cy="14.452" r="3.318"/>
	</g>
</g>
<g id="Layer_1">
</g>
</svg>
