<?xml version="1.0" encoding="utf-8"?>
<!-- Generator: Adobe Illustrator 16.0.0, SVG Export Plug-In . SVG Version: 6.00 Build 0)  -->
<!DOCTYPE svg PUBLIC "-//W3C//DTD SVG 1.1//EN" "http://www.w3.org/Graphics/SVG/1.1/DTD/svg11.dtd">
<svg version="1.1" id="Layer_1" xmlns="http://www.w3.org/2000/svg" xmlns:xlink="http://www.w3.org/1999/xlink" x="0px" y="0px"
	 width="119.854px" height="78.656px" viewBox="0 0 119.854 78.656" enable-background="new 0 0 119.854 78.656"
	 xml:space="preserve">
<g id="rootElbowR">
	<path fill="#FFFFFF" d="M47.425,30.898l0.521,0.534l5.096-4.968L52.52,25.93L47.425,30.898L47.425,30.898z M49.257,32.778
		l0.52,0.533l5.096-4.968l-0.521-0.533L49.257,32.778L49.257,32.778z M39.442,37.888c0.002-0.057,0.002-0.115,0.014-0.144
		c0.069-1.012-0.076-1.513-0.576-2.026c-0.869-0.892-2.413-0.747-3.507,0.32c-0.923,0.896-1.112,2.426-0.387,3.172l6.387,6.548
		l0.349,0.415l0.226,0.291l0.489,0.656l0.096,0.116l0.844-0.821l-0.104-0.146l-0.111-0.174l-1.293-1.425l-0.094-0.097l-0.747-0.766
		c0.899-0.141,1.479-0.42,2.021-0.949c1.182-1.152,1.134-2.732-0.122-4.021c-0.634-0.65-1.479-1.071-2.254-1.129
		C40.201,37.678,39.99,37.713,39.442,37.888L39.442,37.888L39.442,37.888z M40.467,43.279l-4.819-4.942
		c-0.16-0.164-0.29-0.491-0.333-0.847c-0.053-0.458,0.051-0.801,0.339-1.083c0.62-0.606,1.623-0.469,2.39,0.316
		c0.509,0.522,0.693,1.003,0.602,1.548c-0.065,0.048-0.112,0.095-0.164,0.122c-0.202,0.159-0.376,0.292-0.503,0.415
		c-0.203,0.198-0.226,0.524-0.057,0.698c0.029,0.029,0.066,0.049,0.104,0.049c0.183,0.051,0.423-0.033,0.597-0.203
		c0.009-0.009,0.019-0.019,0.038-0.038l0.406-0.454l0.021-0.019c0.059-0.057,0.146-0.103,0.242-0.121
		c0.718-0.135,1.919,0.416,2.75,1.269c0.926,0.948,1.018,1.918,0.253,2.663C41.846,43.123,41.327,43.309,40.467,43.279
		L40.467,43.279L40.467,43.279z M30.746,49.09l0.519,0.533l5.086-4.959l-0.52-0.532L30.746,49.09L30.746,49.09z M26.799,52.561
		c-0.579-0.397-0.816-0.526-1.226-0.655c-0.905-0.289-1.685-0.138-2.312,0.478c-0.62,0.604-0.898,1.426-0.812,2.307
		c0.103,0.938,0.393,1.451,1.327,2.41c1.353,1.387,3.08,1.567,4.252,0.426c0.454-0.443,0.88-1.271,0.915-1.816
		c0.042-0.497,0.025-0.631-0.229-1.514c1.216,0.606,1.913,0.74,2.252,0.41c0.436-0.426,0.235-1.136-0.559-1.969
		c-0.039-0.039-0.104-0.105-0.18-0.203l-0.193,0.188c0.443,0.53,0.531,1.01,0.23,1.303c-0.28,0.273-0.938,0.162-1.641-0.286
		l-0.151-0.099l-1.882-4.158l-0.862,0.841L26.799,52.561L26.799,52.561z M28.026,55.352c0.251,0.645,0.156,1.361-0.201,1.711
		c-0.68,0.662-1.813,0.272-3.106-1.055c-1.305-1.338-1.738-2.576-1.108-3.189c0.649-0.633,1.663-0.62,2.604,0.033l0.777,0.543
		c0.171,0.119,0.266,0.179,0.274,0.188c0.094,0.097,0.215,0.354,0.363,0.724L28.026,55.352L28.026,55.352z M39.12,33.592
		l0.023,0.279c2.015-0.318,3.574,0.351,5.598,2.424c1.917,1.966,2.481,3.438,2.16,5.51l0.237,0.088
		c0.198-0.627,0.23-0.886,0.258-1.612c0.082-1.931-0.51-3.47-1.87-4.865c-0.735-0.755-1.515-1.263-2.373-1.58
		c-0.334-0.108-0.714-0.211-1.151-0.292C40.845,33.347,40.357,33.351,39.12,33.592L39.12,33.592L39.12,33.592z M18.681,53.521
		c-0.662,2.461-0.105,4.696,1.622,6.47c0.802,0.821,1.725,1.399,2.677,1.661c1.277,0.379,2.771,0.436,3.731,0.162l-0.046-0.279
		c-0.901,0.197-1.283,0.176-2.236-0.123c-1.115-0.368-2.102-1.051-3.349-2.33c-1.077-1.105-1.641-1.934-2.002-2.943
		c-0.239-0.712-0.288-1.305-0.17-2.385l0.021-0.172L18.681,53.521L18.681,53.521z M10.328,63.5c0.089,0.363,0.099,0.488,0.168,1.062
		c0.023,0.278,0.041,0.489,0.04,0.604c-0.003,0.114-0.033,0.429-0.077,0.926c-0.001,0.021-0.003,0.058-0.014,0.105l0.027,0.028
		c0.021,0.021,0.06,0.041,0.125,0.068l0.514-0.5l2.844,2.914l0.076,0.079c0.698,0.717,1.442,0.821,1.995,0.282
		c0.456-0.443,0.617-1.131,0.444-1.868l-0.259,0.024c0.043,0.469-0.027,0.709-0.24,0.918c-0.321,0.311-0.749,0.217-1.222-0.268
		l-2.814-2.887l0.979-0.954l-0.312-0.319l-0.978,0.954l-0.539-0.553l-0.255-0.263l-0.237-0.26l-0.142-0.145L10.328,63.5L10.328,63.5
		z M17.599,59.264c-0.127,0.143-0.262,0.275-0.406,0.416c-0.438,0.426-0.64,0.605-0.812,0.68l-0.73,0.334
		c-0.175,0.095-0.365,0.228-0.551,0.406c-0.979,0.952-1.034,2.312-0.146,3.223c0.574,0.591,1.301,0.732,2.154,0.429l-0.012,0.258
		l-0.025,0.478c-0.036,0.565,0.026,0.979,0.195,1.152c0.208,0.213,0.477,0.217,1.024,0.022l-0.032,0.181
		c-0.166,1.012-0.096,1.569,0.235,1.908c0.51,0.523,1.661,0.23,2.583-0.666c1.355-1.323,1.793-3.24,0.933-4.122
		c-0.567-0.582-1.421-0.563-2.127,0.068l-1.73,1.52c-0.223,0.197-0.511,0.271-0.613,0.165c-0.124-0.126-0.178-0.435-0.153-0.777
		c0.021-0.209,0.071-0.354,0.159-0.438l0.01-0.01l0.443-0.337c0.029-0.029,0.06-0.059,0.089-0.086
		c0.871-0.852,0.925-2.15,0.112-2.984c-0.332-0.34-0.511-0.446-1.016-0.654l0.795-0.773L17.599,59.264L17.599,59.264z M15.195,61.55
		c0.012-0.011,0.032-0.028,0.04-0.036c0.532-0.521,1.631-0.248,2.48,0.623c0.584,0.6,0.656,1.176,0.21,1.61
		c-0.601,0.585-1.622,0.333-2.547-0.616C14.812,62.549,14.75,62.062,15.195,61.55L15.195,61.55L15.195,61.55z M18.541,66.471
		c0.354-0.215,0.492-0.309,0.754-0.544l1.565-1.417c0.39-0.339,0.772-0.391,1.019-0.14c0.557,0.571,0.189,1.649-0.935,2.745
		c-0.835,0.812-1.67,1.078-2.086,0.65C18.681,67.584,18.598,67.268,18.541,66.471z"/>
	<circle id="dummy_4_" fill="#FFFFFF" cx="3.318" cy="75.339" r="3.318"/>
	<g id="Layer_12" display="none">
		<circle id="dummy_5_" display="inline" fill="#FFFFFF" cx="14.318" cy="66.339" r="3.318"/>
		<g id="Layer_13" display="inline">
			<path fill="#FFFFFF" d="M64.325,13.638c-0.186,0-0.334-0.15-0.334-0.337c0-0.186,0.148-0.338,0.334-0.338h55.194
				c0.185,0,0.334,0.152,0.334,0.338c0,0.187-0.149,0.337-0.334,0.337H64.325L64.325,13.638z M98.215,23.437
				c-0.136-0.69-0.218-0.947-0.421-1.326c-0.446-0.84-1.109-1.272-1.988-1.272c-0.866,0-1.637,0.394-2.193,1.083
				c-0.58,0.743-0.729,1.312-0.729,2.652c0,1.935,1.108,3.274,2.747,3.274c0.636-0.001,1.515-0.298,1.921-0.662
				c0.379-0.326,0.46-0.434,0.894-1.246c0.446,1.286,0.853,1.868,1.325,1.868c0.609-0.001,0.96-0.649,0.977-1.8
				c0-0.055,0-0.149,0.012-0.271h-0.271c-0.055,0.69-0.323,1.096-0.742,1.096c-0.395,0-0.784-0.541-0.977-1.354l-0.039-0.176
				l1.556-4.29H99.08L98.215,23.437L98.215,23.437z M97.145,26.291c-0.271,0.638-0.839,1.084-1.339,1.084
				c-0.948,0-1.489-1.068-1.489-2.923c0-1.867,0.556-3.057,1.436-3.057c0.906-0.001,1.623,0.716,1.841,1.839l0.175,0.934
				c0.042,0.202,0.069,0.311,0.069,0.324c0,0.135-0.096,0.407-0.244,0.772L97.145,26.291L97.145,26.291z M75.008,20.393v3.18h-3.192
				v0.744h3.192v3.287h0.759v-3.287h3.207v-0.744h-3.207v-3.18H75.008L75.008,20.393z M89.225,3.937v0.744h7.104V3.937H89.225
				L89.225,3.937z M83.978,3.667c-0.137-0.689-0.217-0.946-0.422-1.326c-0.445-0.838-1.107-1.271-1.987-1.271
				c-0.866,0-1.638,0.393-2.191,1.083c-0.582,0.745-0.73,1.312-0.73,2.652c0,1.935,1.108,3.275,2.746,3.275
				c0.637-0.001,1.517-0.298,1.921-0.663c0.38-0.326,0.46-0.433,0.896-1.245c0.445,1.286,0.852,1.867,1.325,1.867
				c0.608-0.002,0.96-0.65,0.975-1.8c0-0.054,0-0.148,0.014-0.271H86.25c-0.057,0.689-0.325,1.095-0.745,1.095
				c-0.391-0.001-0.783-0.541-0.976-1.353l-0.037-0.175l1.555-4.291h-1.204L83.978,3.667L83.978,3.667z M82.907,6.521
				c-0.271,0.636-0.84,1.083-1.34,1.083c-0.946,0-1.487-1.069-1.487-2.922c0-1.869,0.554-3.059,1.435-3.059
				c0.905,0,1.622,0.716,1.84,1.84l0.175,0.933c0.042,0.203,0.067,0.312,0.067,0.326c0,0.133-0.094,0.406-0.242,0.771L82.907,6.521
				L82.907,6.521z M102.872,19.771c-0.188,0.324-0.271,0.42-0.622,0.88c-0.176,0.215-0.312,0.378-0.393,0.459
				c-0.082,0.081-0.324,0.285-0.704,0.609c-0.014,0.013-0.039,0.041-0.082,0.068v0.039c0,0.027,0.015,0.067,0.043,0.136l0.716-0.001
				v4.072v0.109c0,1.002,0.461,1.597,1.23,1.597c0.639,0,1.232-0.379,1.625-1.028l-0.205-0.163
				c-0.296,0.367-0.513,0.488-0.811,0.488c-0.446-0.002-0.69-0.365-0.69-1.041v-4.034h1.367v-0.447h-1.367v-0.769v-0.367
				l0.014-0.352v-0.202L102.872,19.771L102.872,19.771z M83.777,19.771c-0.188,0.324-0.271,0.42-0.623,0.88
				c-0.176,0.215-0.311,0.378-0.393,0.459c-0.08,0.081-0.324,0.285-0.702,0.609c-0.015,0.013-0.041,0.041-0.083,0.068v0.039
				c0,0.027,0.016,0.067,0.042,0.136l0.716-0.001v4.072v0.109c0,1.002,0.461,1.597,1.232,1.597c0.636,0,1.231-0.379,1.623-1.028
				l-0.202-0.163c-0.297,0.367-0.516,0.488-0.812,0.488c-0.448-0.002-0.69-0.365-0.69-1.041v-4.034h1.366v-0.447h-1.366v-0.769
				v-0.367l0.014-0.352v-0.202L83.777,19.771L83.777,19.771z M67.938,18.458l-2.447,1.231v0.189l0.188-0.053l0.608-0.229
				c0.026-0.016,0.055-0.016,0.094-0.016c0.312,0,0.488,0.177,0.488,0.515v6.373c0,0.691-0.312,0.907-1.3,0.922v0.215h3.748v-0.217
				c-1.001,0-1.271-0.148-1.271-0.676v-8.228L67.938,18.458L67.938,18.458z M100.915,0c-0.188,0.324-0.271,0.419-0.621,0.879
				c-0.177,0.216-0.312,0.379-0.394,0.461c-0.081,0.081-0.324,0.284-0.704,0.607c-0.014,0.013-0.039,0.042-0.081,0.068v0.041
				c0,0.026,0.015,0.068,0.042,0.136l0.717-0.001v4.074v0.107c0,1.003,0.46,1.598,1.23,1.598c0.636,0,1.231-0.378,1.623-1.029
				l-0.202-0.164c-0.298,0.367-0.514,0.489-0.812,0.489c-0.445-0.001-0.69-0.365-0.69-1.041V2.191h1.367V1.747h-1.367V0.975V0.608
				l0.016-0.35V0.054L100.915,0L100.915,0z M109.078,2.043c-0.189,0.013-0.379,0.014-0.581,0.014
				c-0.608-0.001-0.881-0.014-1.057-0.081l-0.758-0.272c-0.188-0.054-0.419-0.094-0.676-0.094c-1.367-0.001-2.356,0.934-2.356,2.207
				c0,0.822,0.42,1.433,1.246,1.811l-0.188,0.176l-0.353,0.324c-0.42,0.38-0.663,0.719-0.663,0.961c0,0.296,0.188,0.487,0.718,0.732
				l-0.149,0.107c-0.824,0.609-1.163,1.056-1.163,1.529c0,0.73,1.028,1.326,2.313,1.326c1.895,0,3.546-1.068,3.546-2.3
				c0-0.812-0.623-1.395-1.57-1.435l-2.3-0.122c-0.299-0.013-0.556-0.162-0.556-0.311c0-0.176,0.177-0.433,0.434-0.662
				c0.163-0.136,0.297-0.203,0.42-0.203l0.014-0.001l0.555,0.068c0.042,0,0.082,0.001,0.122,0.001
				c1.218-0.001,2.165-0.895,2.165-2.058c0-0.474-0.056-0.678-0.271-1.179h1.11L109.078,2.043L109.078,2.043z M105.764,2.003
				c0.013,0,0.04,0,0.053,0c0.745,0,1.342,0.96,1.342,2.178c0,0.839-0.353,1.3-0.976,1.3c-0.839,0-1.395-0.895-1.395-2.22
				C104.788,2.448,105.087,2.058,105.764,2.003L105.764,2.003L105.764,2.003z M104.722,7.862c0.406,0.094,0.568,0.122,0.919,0.135
				l2.112,0.081c0.515,0.026,0.824,0.257,0.824,0.61c0,0.797-1.015,1.312-2.583,1.312c-1.164-0.002-1.949-0.392-1.949-0.988
				C104.045,8.754,104.207,8.471,104.722,7.862L104.722,7.862L104.722,7.862z M69.54,0c-0.19,0.324-0.271,0.419-0.623,0.879
				c-0.175,0.216-0.312,0.379-0.395,0.461c-0.078,0.081-0.322,0.284-0.702,0.607c-0.014,0.013-0.041,0.042-0.08,0.068v0.041
				c0,0.026,0.014,0.068,0.039,0.136l0.719-0.001v4.074v0.107c0,1.003,0.461,1.598,1.23,1.598c0.637,0,1.231-0.378,1.623-1.029
				l-0.203-0.164c-0.297,0.367-0.514,0.489-0.811,0.489c-0.446-0.001-0.691-0.365-0.691-1.041V2.191h1.367V1.747h-1.367V0.975V0.608
				l0.015-0.35V0.054L69.54,0L69.54,0z M77.702,2.043c-0.188,0.013-0.379,0.014-0.582,0.014c-0.609-0.001-0.879-0.014-1.056-0.081
				l-0.758-0.272C75.118,1.65,74.888,1.61,74.63,1.61c-1.365-0.001-2.354,0.934-2.354,2.207c0,0.822,0.42,1.433,1.245,1.811
				l-0.189,0.176L72.98,6.128c-0.42,0.38-0.663,0.719-0.663,0.961c0,0.296,0.188,0.487,0.718,0.732l-0.149,0.107
				c-0.824,0.609-1.163,1.056-1.163,1.529c0,0.73,1.029,1.326,2.314,1.326c1.894,0,3.545-1.068,3.545-2.3
				c0-0.812-0.622-1.395-1.569-1.435l-2.301-0.122c-0.298-0.013-0.555-0.162-0.555-0.311c0-0.176,0.175-0.433,0.433-0.662
				c0.163-0.136,0.297-0.203,0.42-0.203l0.014-0.001l0.555,0.068c0.041,0,0.081,0.001,0.122,0.001
				c1.218-0.001,2.166-0.895,2.166-2.058c0-0.474-0.056-0.678-0.271-1.179h1.108V2.043L77.702,2.043z M74.388,2.003
				c0.012,0,0.041,0,0.054,0c0.744,0,1.34,0.96,1.34,2.178c0,0.839-0.353,1.3-0.975,1.3c-0.839,0-1.394-0.895-1.394-2.22
				C73.413,2.448,73.711,2.058,74.388,2.003L74.388,2.003L74.388,2.003z M73.345,7.862c0.407,0.094,0.569,0.122,0.92,0.135
				l2.111,0.081c0.515,0.026,0.825,0.257,0.825,0.61c0,0.797-1.015,1.312-2.584,1.312c-1.163-0.002-1.948-0.392-1.948-0.988
				C72.669,8.754,72.831,8.471,73.345,7.862L73.345,7.862L73.345,7.862z"/>
			<circle id="dummy_23_" fill="#FFFFFF" cx="61.318" cy="14.339" r="3.318"/>
		</g>
	</g>
</g>
<g id="Layer_1_1_">
</g>
</svg>
