<?xml version="1.0" encoding="iso-8859-1"?>
<!-- Generator: Adobe Illustrator 16.0.0, SVG Export Plug-In . SVG Version: 6.00 Build 0)  -->
<!DOCTYPE svg PUBLIC "-//W3C//DTD SVG 1.1//EN" "http://www.w3.org/Graphics/SVG/1.1/DTD/svg11.dtd">
<svg version="1.1" xmlns="http://www.w3.org/2000/svg" xmlns:xlink="http://www.w3.org/1999/xlink" x="0px" y="0px"
	 width="117.926px" height="67.977px" viewBox="0 0 117.926 67.977" style="enable-background:new 0 0 117.926 67.977;"
	 xml:space="preserve">
<g id="rootHandL">
	<circle id="dummy_22_" style="fill:#FFFFFF;" cx="29.05" cy="25.659" r="3.318"/>
	<g id="Layer_14">
		<path style="fill:#FFFFFF;" d="M49.141,7.612V38.06c0,8.843,0.672,13.321,1.455,16.119h-9.402
			c-1.008-1.679-1.791-6.492-1.791-15.112V7.612H21.716c-0.448,14.328-3.694,37.611-7.612,46.566H4.813
			c4.03-10.634,7.164-32.126,7.5-46.566c-4.366,0-8.171,0.336-10.97,1.007L0,2.799C2.462,1.12,6.828,0,15.559,0h42.089l-1.007,7.612
			H49.141z"/>
		<path style="fill:#FFFFFF;" d="M74.643,16.906c3.924-0.722,8.964,1.507,15.412,6.813c3.769,3.101,7.412,4.661,10.871,4.661
			c0.982,0,1.95-0.126,2.902-0.379c5.225-1.386,9.541-6.472,12.829-15.115l-3.738-1.423c-3.493,9.182-7.431,11.959-10.117,12.672
			c-2.985,0.792-6.417-0.388-10.206-3.505c-7.517-6.185-13.451-8.62-18.676-7.658c-5.781,1.063-9.389,6.337-11.6,10.211l3.473,1.982
			C68.719,20.041,71.447,17.494,74.643,16.906z"/>
		<path style="fill:#FFFFFF;" d="M114.188,26.463c-3.493,9.181-7.43,11.958-10.117,12.672c-2.984,0.791-6.418-0.388-10.207-3.505
			c-7.518-6.186-13.455-8.619-18.676-7.659c-5.78,1.063-9.389,6.337-11.6,10.211l3.474,1.982c2.925-5.125,5.654-7.672,8.849-8.26
			c3.928-0.72,8.965,1.508,15.412,6.812c3.77,3.102,7.414,4.662,10.871,4.662c0.983,0,1.951-0.127,2.902-0.379
			c5.225-1.387,9.541-6.473,12.83-15.116L114.188,26.463z"/>
		<circle id="dummy_9_" style="fill:#FFFFFF;" cx="26.05" cy="64.659" r="3.318"/>
	</g>
</g>
<g id="Layer_1">
</g>
</svg>
