<?xml version="1.0" encoding="iso-8859-1"?>
<!-- Generator: Adobe Illustrator 16.0.0, SVG Export Plug-In . SVG Version: 6.00 Build 0)  -->
<!DOCTYPE svg PUBLIC "-//W3C//DTD SVG 1.1//EN" "http://www.w3.org/Graphics/SVG/1.1/DTD/svg11.dtd">
<svg version="1.1" xmlns="http://www.w3.org/2000/svg" xmlns:xlink="http://www.w3.org/1999/xlink" x="0px" y="0px"
	 width="369.743px" height="652.777px" viewBox="0 0 369.743 652.777" style="enable-background:new 0 0 369.743 652.777;"
	 xml:space="preserve">
<g id="rootNose">
	<path id="dummy_30_" style="fill:#00FF00;stroke:#000000;stroke-width:1.0859;stroke-miterlimit:10;" d="M192.223,551.453
		c0,4.812-3.897,8.717-8.71,8.717c-4.812,0-8.71-3.904-8.71-8.717c0-4.807,3.898-8.709,8.71-8.709
		C188.325,542.744,192.223,546.646,192.223,551.453z"/>
	<g id="Layer_6">
		
			<line style="fill:none;stroke:#6DFFBA;stroke-width:3.4581;stroke-miterlimit:10;" x1="183.513" y1="347.809" x2="183.513" y2="551.457"/>
		
			<line style="fill:none;stroke:#6DFFBA;stroke-width:13.8755;stroke-miterlimit:10;" x1="136.918" y1="551.457" x2="232.903" y2="551.457"/>
		<path id="dummy_32_" style="fill:#00FF00;stroke:#000000;stroke-width:1.0859;stroke-miterlimit:10;" d="M192.225,551.453
			c0,4.812-3.897,8.717-8.71,8.717c-4.812,0-8.709-3.904-8.709-8.717c0-4.807,3.897-8.709,8.709-8.709
			C188.327,542.744,192.225,546.646,192.225,551.453z"/>
		<g id="Layer_7">
			<polyline style="fill:none;stroke:#6DFFBA;stroke-width:16.6506;stroke-miterlimit:10;" points="59.127,229.228 183.513,349.28 
				307.897,229.228 			"/>
			<path id="dummy_22_" style="fill:#00FF00;stroke:#000000;stroke-width:1.0859;stroke-miterlimit:10;" d="M192.223,347.807
				c0,4.812-3.897,8.715-8.71,8.715c-4.813,0-8.71-3.902-8.71-8.715c0-4.809,3.897-8.711,8.71-8.711
				C188.325,339.096,192.223,342.998,192.223,347.807z"/>
			<g id="Layer_8">
				
					<rect x="91.693" y="87.573" transform="matrix(0.7071 0.7071 -0.7071 0.7071 180.5984 -77.2198)" style="fill:none;stroke:#EBA6A6;stroke-width:3.4581;stroke-miterlimit:10;" width="183.64" height="183.642"/>
				<path id="dummy_34_" style="fill:#00FF00;stroke:#000000;stroke-width:1.0859;stroke-miterlimit:10;" d="M193.623,643.52
					c0,4.812-3.898,8.715-8.712,8.715c-4.812,0-8.71-3.902-8.71-8.715c0-4.809,3.899-8.711,8.71-8.711
					C189.725,634.809,193.623,638.711,193.623,643.52z"/>
				<g id="Layer_9">
					
						<rect x="91.692" y="45.883" transform="matrix(0.7071 0.7071 -0.7071 0.7071 151.1214 -89.4306)" style="fill:none;stroke:#BD9580;stroke-width:11.1004;stroke-miterlimit:10;" width="183.642" height="183.642"/>
					<path id="dummy_24_" style="fill:#00FF00;stroke:#000000;stroke-width:1.0859;stroke-miterlimit:10;" d="M192.844,309.245
						c0,4.812-3.898,8.715-8.71,8.715c-4.812,0-8.71-3.903-8.71-8.715c0-4.808,3.898-8.71,8.71-8.71
						C188.945,300.535,192.844,304.437,192.844,309.245z"/>
					<g id="Layer_10">
						
							<rect x="147.02" y="108.84" transform="matrix(0.7071 0.7071 -0.7071 0.7071 157.1308 -87.4527)" style="fill:#6DFFBA;" width="74.232" height="74.234"/>
						<path id="dummy_36_" style="fill:#00FF00;stroke:#000000;stroke-width:1.0859;stroke-miterlimit:10;" d="M192.844,267.556
							c0,4.812-3.898,8.715-8.71,8.715c-4.812,0-8.71-3.903-8.71-8.715c0-4.808,3.898-8.71,8.71-8.71
							C188.945,258.846,192.844,262.748,192.844,267.556z"/>
						<g id="Layer_11">
							
								<rect x="277.119" y="39.053" transform="matrix(0.7071 0.7071 -0.7071 0.7071 119.2556 -188.8489)" style="fill:none;stroke:#EBA6A6;stroke-width:11.1004;stroke-miterlimit:10;" width="20.972" height="20.973"/>
							<path id="dummy_26_" style="fill:#00FF00;stroke:#000000;stroke-width:1.0859;stroke-miterlimit:10;" d="M192.846,145.954
								c0,4.813-3.898,8.715-8.711,8.715c-4.813,0-8.71-3.902-8.71-8.715c0-4.808,3.897-8.71,8.71-8.71
								C188.947,137.244,192.846,141.146,192.846,145.954z"/>
						</g>
						<g id="Layer_13">
							
								<rect x="8.03" y="30.159" transform="matrix(0.7071 0.7071 -0.7071 0.7071 43.0588 -4.8743)" style="fill:#6DFFBA;" width="38.767" height="38.768"/>
							<path id="dummy_38_" style="fill:#00FF00;stroke:#000000;stroke-width:1.0859;stroke-miterlimit:10;" d="M192.846,145.954
								c0,4.813-3.898,8.715-8.711,8.715c-4.813,0-8.71-3.902-8.71-8.715c0-4.808,3.897-8.71,8.71-8.71
								C188.947,137.244,192.846,141.146,192.846,145.954z"/>
						</g>
						<g id="Layer_12">
							
								<rect x="322.948" y="74.083" transform="matrix(0.7071 0.7071 -0.7071 0.7071 166.3416 -214.6799)" style="fill:#BD9580;" width="38.769" height="38.769"/>
							<path id="dummy_27_" style="fill:#00FF00;stroke:#000000;stroke-width:1.0859;stroke-miterlimit:10;" d="M192.846,145.954
								c0,4.813-3.898,8.715-8.711,8.715c-4.813,0-8.71-3.902-8.71-8.715c0-4.808,3.897-8.71,8.71-8.71
								C188.947,137.244,192.846,141.146,192.846,145.954z"/>
						</g>
					</g>
				</g>
			</g>
		</g>
	</g>
</g>
<g id="Layer_1">
</g>
</svg>
