<?xml version="1.0" encoding="iso-8859-1"?>
<!-- Generator: Adobe Illustrator 16.0.0, SVG Export Plug-In . SVG Version: 6.00 Build 0)  -->
<!DOCTYPE svg PUBLIC "-//W3C//DTD SVG 1.1//EN" "http://www.w3.org/Graphics/SVG/1.1/DTD/svg11.dtd">
<svg version="1.1" xmlns="http://www.w3.org/2000/svg" xmlns:xlink="http://www.w3.org/1999/xlink" x="0px" y="0px"
	 width="523.938px" height="393.589px" viewBox="0 0 523.938 393.589" style="enable-background:new 0 0 523.938 393.589;"
	 xml:space="preserve">
<g id="rootHead">
	
		<circle id="dummy_21_" style="fill:#00FF00;stroke:#000000;stroke-width:0.8214;stroke-miterlimit:10;" cx="250.221" cy="6.999" r="6.589"/>
	<g id="Layer_18">
		<path style="fill:#FFA4DF;" d="M55.177,284.439c0,15.234-12.353,27.587-27.588,27.587C12.351,312.026,0,299.674,0,284.439
			c0-15.239,12.351-27.59,27.589-27.59C42.825,256.85,55.177,269.2,55.177,284.439z"/>
		<circle style="fill:none;stroke:#6DFFBA;stroke-width:2.6157;stroke-miterlimit:10;" cx="117.501" cy="154.178" r="7.713"/>
		
			<line style="fill:none;stroke:#FFA4DF;stroke-width:2.6157;stroke-miterlimit:10;" x1="27.588" y1="284.439" x2="117.501" y2="154.178"/>
		<path id="dummy_10_" style="fill:#00FF00;stroke:#000000;stroke-width:0.8214;stroke-miterlimit:10;" d="M124.09,154.177
			c0,3.64-2.949,6.592-6.59,6.592c-3.639,0-6.588-2.952-6.588-6.592c0-3.637,2.949-6.589,6.588-6.589
			C121.141,147.588,124.09,150.54,124.09,154.177z"/>
		<g id="Layer_32">
			<circle style="fill:#EBA6A6;" cx="60.621" cy="176.639" r="12.846"/>
			<path id="dummy_11_" style="fill:#00FF00;stroke:#000000;stroke-width:0.8214;stroke-miterlimit:10;" d="M34.177,284.437
				c0,3.642-2.95,6.593-6.59,6.593c-3.64,0-6.589-2.951-6.589-6.593c0-3.636,2.949-6.587,6.589-6.587
				C31.228,277.85,34.177,280.801,34.177,284.437z"/>
		</g>
		<g id="Layer_31">
			<circle style="fill:none;stroke:#6DFFBA;stroke-width:2.6157;stroke-miterlimit:10;" cx="88.231" cy="141.312" r="7.714"/>
			<path id="dummy_12_" style="fill:#00FF00;stroke:#000000;stroke-width:0.8214;stroke-miterlimit:10;" d="M34.177,284.437
				c0,3.642-2.95,6.593-6.59,6.593c-3.64,0-6.589-2.951-6.589-6.593c0-3.636,2.949-6.587,6.589-6.587
				C31.228,277.85,34.177,280.801,34.177,284.437z"/>
		</g>
	</g>
	<g id="Layer_19">
		<circle style="fill:none;stroke:#EBA6A6;stroke-width:10.4953;stroke-miterlimit:10;" cx="140.01" cy="321.124" r="18.905"/>
		
			<line style="fill:none;stroke:#EBA6A6;stroke-width:2.0991;stroke-miterlimit:10;" x1="140.009" y1="321.124" x2="140.009" y2="220.946"/>
		<path id="dummy_6_" style="fill:#00FF00;stroke:#000000;stroke-width:0.8214;stroke-miterlimit:10;" d="M146.599,220.943
			c0,3.642-2.95,6.594-6.59,6.594c-3.64,0-6.589-2.952-6.589-6.594c0-3.636,2.949-6.587,6.589-6.587
			C143.649,214.356,146.599,217.308,146.599,220.943z"/>
		<g id="Layer_29">
			<circle style="fill:none;stroke:#EBA6A6;stroke-width:4.1981;stroke-miterlimit:10;" cx="138.879" cy="373.143" r="9.064"/>
			<path id="dummy_8_" style="fill:#00FF00;stroke:#000000;stroke-width:0.8214;stroke-miterlimit:10;" d="M146.599,321.121
				c0,3.641-2.95,6.593-6.59,6.593c-3.64,0-6.589-2.952-6.589-6.593c0-3.636,2.949-6.588,6.589-6.588
				C143.649,314.533,146.599,317.485,146.599,321.121z"/>
		</g>
		<g id="Layer_28">
			<path style="fill:none;stroke:#6DFFBA;stroke-width:1.8323;stroke-miterlimit:10;" d="M183.879,344.267
				c0,4.97-4.027,8.997-8.998,8.997s-8.999-4.027-8.999-8.997c0-4.974,4.028-8.999,8.999-8.999S183.879,339.293,183.879,344.267z"/>
			<path id="dummy_7_" style="fill:#00FF00;stroke:#000000;stroke-width:0.8214;stroke-miterlimit:10;" d="M146.599,321.121
				c0,3.641-2.95,6.593-6.59,6.593c-3.64,0-6.589-2.952-6.589-6.593c0-3.636,2.949-6.588,6.589-6.588
				C143.649,314.533,146.599,317.485,146.599,321.121z"/>
		</g>
		<g id="Layer_27">
			<path style="fill:#6DFFBA;" d="M135.112,333.751c0,8.886-7.201,16.091-16.091,16.091s-16.094-7.205-16.094-16.091
				c0-8.894,7.204-16.093,16.094-16.093S135.112,324.857,135.112,333.751z"/>
			<path id="dummy_9_" style="fill:#00FF00;stroke:#000000;stroke-width:0.8214;stroke-miterlimit:10;" d="M146.599,321.121
				c0,3.641-2.95,6.593-6.59,6.593c-3.64,0-6.589-2.952-6.589-6.593c0-3.636,2.949-6.588,6.589-6.588
				C143.649,314.533,146.599,317.485,146.599,321.121z"/>
		</g>
	</g>
	<g id="Layer_20">
		<circle style="fill:none;stroke:#EBA6A6;stroke-width:10.4953;stroke-miterlimit:10;" cx="397.937" cy="163.79" r="27.587"/>
		<path id="dummy_1_" style="fill:#00FF00;stroke:#000000;stroke-width:0.8214;stroke-miterlimit:10;" d="M404.525,163.788
			c0,3.641-2.947,6.593-6.588,6.593s-6.588-2.952-6.588-6.593c0-3.637,2.947-6.588,6.588-6.588S404.525,160.151,404.525,163.788z"/>
		<g id="Layer_21">
			<circle style="fill:#EBA6A6;" cx="455.45" cy="292.484" r="27.589"/>
			
				<line style="fill:none;stroke:#FFA4DF;stroke-width:2.6157;stroke-miterlimit:10;" x1="397.938" y1="163.79" x2="455.449" y2="292.483"/>
			<path id="dummy_2_" style="fill:#00FF00;stroke:#000000;stroke-width:0.8214;stroke-miterlimit:10;" d="M404.523,163.788
				c0,3.641-2.947,6.593-6.588,6.593s-6.588-2.952-6.588-6.593c0-3.637,2.947-6.588,6.588-6.588S404.523,160.151,404.523,163.788z"
				/>
			<g id="Layer_24">
				<path style="fill:#6DFFBA;" d="M438.369,340.027c0,7.095-5.748,12.844-12.846,12.844c-7.096,0-12.844-5.749-12.844-12.844
					c0-7.096,5.748-12.848,12.844-12.848C432.621,327.18,438.369,332.932,438.369,340.027z"/>
				<path id="dummy_5_" style="fill:#00FF00;stroke:#000000;stroke-width:0.8214;stroke-miterlimit:10;" d="M462.039,292.48
					c0,3.641-2.947,6.593-6.59,6.593c-3.639,0-6.586-2.952-6.586-6.593c0-3.636,2.947-6.588,6.586-6.588
					C459.092,285.893,462.039,288.845,462.039,292.48z"/>
			</g>
			<g id="Layer_23">
				<path style="fill:none;stroke:#BD9580;stroke-width:8.3962;stroke-miterlimit:10;" d="M492.627,378.707
					c0,5.902-4.783,10.684-10.682,10.684c-5.904,0-10.684-4.781-10.684-10.684c0-5.9,4.779-10.683,10.684-10.683
					C487.844,368.024,492.627,372.807,492.627,378.707z"/>
				<path id="dummy_4_" style="fill:#00FF00;stroke:#000000;stroke-width:0.8214;stroke-miterlimit:10;" d="M462.039,292.48
					c0,3.641-2.947,6.593-6.59,6.593c-3.639,0-6.586-2.952-6.586-6.593c0-3.636,2.947-6.588,6.586-6.588
					C459.092,285.893,462.039,288.845,462.039,292.48z"/>
			</g>
			<g id="Layer_22">
				<path style="fill:none;stroke:#6DFFBA;stroke-width:4.1981;stroke-miterlimit:10;" d="M521.838,309.293
					c0,3.551-2.877,6.428-6.428,6.428c-3.547,0-6.422-2.877-6.422-6.428s2.875-6.426,6.422-6.426
					C518.961,302.867,521.838,305.742,521.838,309.293z"/>
				<path id="dummy_3_" style="fill:#00FF00;stroke:#000000;stroke-width:0.8214;stroke-miterlimit:10;" d="M462.039,292.48
					c0,3.641-2.947,6.593-6.59,6.593c-3.639,0-6.586-2.952-6.586-6.593c0-3.636,2.947-6.588,6.586-6.588
					C459.092,285.893,462.039,288.845,462.039,292.48z"/>
			</g>
		</g>
	</g>
</g>
<g id="Layer_1">
</g>
</svg>
