<?xml version="1.0" encoding="iso-8859-1"?>
<!-- Generator: Adobe Illustrator 16.0.0, SVG Export Plug-In . SVG Version: 6.00 Build 0)  -->
<!DOCTYPE svg PUBLIC "-//W3C//DTD SVG 1.1//EN" "http://www.w3.org/Graphics/SVG/1.1/DTD/svg11.dtd">
<svg version="1.1" xmlns="http://www.w3.org/2000/svg" xmlns:xlink="http://www.w3.org/1999/xlink" x="0px" y="0px"
	 width="95.031px" height="91.172px" viewBox="0 0 95.031 91.172" style="enable-background:new 0 0 95.031 91.172;"
	 xml:space="preserve">
<g id="rootEyeLeft">
	<circle style="fill:none;stroke:#6DFFBA;stroke-width:2.6157;stroke-miterlimit:10;" cx="45.586" cy="45.587" r="44.278"/>
	<path id="dummy_18_" style="fill:#00FF00;stroke:#000000;stroke-width:0.8214;stroke-miterlimit:10;" d="M52.175,45.583
		c0,3.642-2.948,6.594-6.589,6.594c-3.64,0-6.588-2.952-6.588-6.594c0-3.636,2.948-6.587,6.588-6.587
		C49.227,38.996,52.175,41.947,52.175,45.583z"/>
	<g id="Layer_34">
		<circle style="fill:none;stroke:#BD9580;stroke-width:8.3962;stroke-miterlimit:10;" cx="45.585" cy="45.587" r="10.974"/>
		<path id="dummy_29_" style="fill:#00FF00;stroke:#000000;stroke-width:0.8214;stroke-miterlimit:10;" d="M94.621,45.583
			c0,3.642-2.949,6.594-6.59,6.594c-3.64,0-6.589-2.952-6.589-6.594c0-3.636,2.949-6.587,6.589-6.587
			C91.672,38.996,94.621,41.947,94.621,45.583z"/>
	</g>
</g>
<g id="Layer_1">
</g>
</svg>
