<?xml version="1.0" encoding="iso-8859-1"?>
<!-- Generator: Adobe Illustrator 16.0.0, SVG Export Plug-In . SVG Version: 6.00 Build 0)  -->
<!DOCTYPE svg PUBLIC "-//W3C//DTD SVG 1.1//EN" "http://www.w3.org/Graphics/SVG/1.1/DTD/svg11.dtd">
<svg version="1.1" xmlns="http://www.w3.org/2000/svg" xmlns:xlink="http://www.w3.org/1999/xlink" x="0px" y="0px"
	 width="104.258px" height="73.885px" viewBox="0 0 104.258 73.885" style="enable-background:new 0 0 104.258 73.885;"
	 xml:space="preserve">
<g id="rootMouth">
	<path style="fill:none;stroke:#EBA6A6;stroke-width:10.4953;stroke-miterlimit:10;" d="M61.993,36.553
		c0,7.098-5.751,12.848-12.846,12.848c-7.093,0-12.847-5.75-12.847-12.848c0-7.092,5.753-12.845,12.847-12.845
		C56.242,23.708,61.993,29.461,61.993,36.553z"/>
	<path id="dummy_13_" style="fill:#00FF00;stroke:#000000;stroke-width:0.8214;stroke-miterlimit:10;" d="M55.736,36.552
		c0,3.64-2.949,6.592-6.589,6.592c-3.639,0-6.588-2.952-6.588-6.592c0-3.638,2.949-6.589,6.588-6.589
		C52.788,29.963,55.736,32.914,55.736,36.552z"/>
	<g id="Layer_17">
		<circle style="fill:none;stroke:#EBA6A6;stroke-width:6.2972;stroke-miterlimit:10;" cx="88.263" cy="15.997" r="12.845"/>
		<path id="dummy_15_" style="fill:#00FF00;stroke:#000000;stroke-width:0.8214;stroke-miterlimit:10;" d="M55.736,36.552
			c0,3.64-2.949,6.592-6.589,6.592c-3.639,0-6.588-2.952-6.588-6.592c0-3.638,2.949-6.589,6.588-6.589
			C52.788,29.963,55.736,32.914,55.736,36.552z"/>
	</g>
	<g id="Layer_16">
		<circle style="fill:#EBA6A6;" cx="12.846" cy="28.842" r="12.846"/>
		<path id="dummy_17_" style="fill:#00FF00;stroke:#000000;stroke-width:0.8214;stroke-miterlimit:10;" d="M55.736,36.552
			c0,3.64-2.949,6.592-6.589,6.592c-3.639,0-6.588-2.952-6.588-6.592c0-3.638,2.949-6.589,6.588-6.589
			C52.788,29.963,55.736,32.914,55.736,36.552z"/>
	</g>
	<g id="Layer_15">
		<path style="fill:none;stroke:#6DFFBA;stroke-width:2.0991;stroke-miterlimit:10;" d="M88.263,54.554
			c0,7.096-5.753,12.846-12.845,12.846c-7.098,0-12.849-5.75-12.849-12.846c0-7.095,5.751-12.845,12.849-12.845
			C82.51,41.709,88.263,47.459,88.263,54.554z"/>
		<path id="dummy_14_" style="fill:#00FF00;stroke:#000000;stroke-width:0.8214;stroke-miterlimit:10;" d="M55.736,36.552
			c0,3.64-2.949,6.592-6.589,6.592c-3.639,0-6.588-2.952-6.588-6.592c0-3.638,2.949-6.589,6.588-6.589
			C52.788,29.963,55.736,32.914,55.736,36.552z"/>
	</g>
	<g id="Layer_14">
		<path style="fill:#6DFFBA;" d="M51.089,48.955c0,13.772-11.163,24.93-24.93,24.93c-13.768,0-24.93-11.157-24.93-24.93
			c0-13.768,11.162-24.925,24.93-24.925C39.927,24.03,51.089,35.188,51.089,48.955z"/>
		<path id="dummy_16_" style="fill:#00FF00;stroke:#000000;stroke-width:0.8214;stroke-miterlimit:10;" d="M55.736,36.552
			c0,3.64-2.949,6.592-6.589,6.592c-3.639,0-6.588-2.952-6.588-6.592c0-3.638,2.949-6.589,6.588-6.589
			C52.788,29.963,55.736,32.914,55.736,36.552z"/>
	</g>
</g>
<g id="Layer_1">
</g>
</svg>
