<?xml version="1.0" encoding="iso-8859-1"?>
<!-- Generator: Adobe Illustrator 16.0.0, SVG Export Plug-In . SVG Version: 6.00 Build 0)  -->
<!DOCTYPE svg PUBLIC "-//W3C//DTD SVG 1.1//EN" "http://www.w3.org/Graphics/SVG/1.1/DTD/svg11.dtd">
<svg version="1.1" xmlns="http://www.w3.org/2000/svg" xmlns:xlink="http://www.w3.org/1999/xlink" x="0px" y="0px"
	 width="146.278px" height="133.408px" viewBox="0 0 146.278 133.408" style="enable-background:new 0 0 146.278 133.408;"
	 xml:space="preserve">
<g id="rootHead">
	<circle style="fill:#020202;" cx="90.778" cy="77.908" r="27.334"/>
	<circle style="fill:#FFFFFF;" cx="90.778" cy="77.908" r="1.667"/>
	<circle id="dummy_1_" style="fill:#00FF00;" cx="92.928" cy="76.727" r="3.318"/>
	<g id="Layer_19">
		<circle style="fill:none;stroke:#020202;stroke-miterlimit:10;" cx="90.778" cy="77.908" r="30.334"/>
		<circle id="dummy_10_" style="fill:#00FF00;" cx="90.928" cy="107.727" r="3.318"/>
	</g>
	<g id="Layer_18">
		<circle style="fill:none;stroke:#020202;stroke-miterlimit:10;" cx="90.778" cy="77.908" r="34.667"/>
		<circle id="dummy_11_" style="fill:#00FF00;" cx="90.928" cy="113.727" r="3.318"/>
	</g>
	<g id="Layer_17">
		<circle style="fill:none;stroke:#020202;stroke-miterlimit:10;" cx="90.778" cy="77.908" r="39.001"/>
		<circle id="dummy_12_" style="fill:#00FF00;" cx="90.928" cy="117.727" r="3.318"/>
	</g>
	<g id="Layer_16">
		<circle style="fill:none;stroke:#020202;stroke-miterlimit:10;" cx="90.778" cy="77.908" r="44.668"/>
		<circle id="dummy_13_" style="fill:#00FF00;" cx="90.928" cy="122.727" r="3.318"/>
	</g>
	<g id="Layer_15">
		<circle style="fill:none;stroke:#020202;stroke-miterlimit:10;" cx="90.778" cy="77.908" r="55.001"/>
		<circle id="dummy_14_" style="fill:#00FF00;" cx="90.928" cy="128.727" r="3.318"/>
	</g>
	<g id="Layer_29">
		
			<rect x="5.488" y="6.066" transform="matrix(0.8855 -0.4646 0.4646 0.8855 -7.6781 12.9754)" style="fill:#020202;" width="34" height="32"/>
		
			<rect x="4.283" y="32.639" transform="matrix(0.8855 -0.4646 0.4646 0.8855 -13.0314 17.3972)" style="fill:#020202;" width="49" height="5"/>
		<circle id="dummy_25_" style="fill:#00FF00;" cx="91.928" cy="76.727" r="3.318"/>
	</g>
</g>
<g id="Layer_1">
</g>
</svg>
