<?xml version="1.0" encoding="utf-8"?>
<!-- Generator: Adobe Illustrator 16.0.0, SVG Export Plug-In . SVG Version: 6.00 Build 0)  -->
<!DOCTYPE svg PUBLIC "-//W3C//DTD SVG 1.1//EN" "http://www.w3.org/Graphics/SVG/1.1/DTD/svg11.dtd">
<svg version="1.1" id="Layer_1" xmlns="http://www.w3.org/2000/svg" xmlns:xlink="http://www.w3.org/1999/xlink" x="0px" y="0px"
	 width="227px" height="79.73px" viewBox="0 0 227 79.73" enable-background="new 0 0 227 79.73" xml:space="preserve">
<g id="rootHandR">
	<polygon fill="#FFFFFF" stroke="#020202" stroke-miterlimit="10" points="10.799,16 85.133,45.998 11.049,76.25 	"/>
	<circle id="dummy_16_" fill="#00FF00" cx="163.648" cy="44.484" r="3.318"/>
	<g id="Layer_9_copy">
		<polygon fill="#FFFFFF" stroke="#020202" stroke-miterlimit="10" points="65.799,20 140.133,49.998 65.133,78.998 		"/>
		<rect x="60" y="36.73" fill="#020202" width="19" height="19"/>
		<circle id="dummy_23_" fill="#00FF00" cx="67.648" cy="46.484" r="3.318"/>
	</g>
	<g id="Layer_10_copy">
		<path fill="#020202" d="M145.205,49.726c0-6.339-2.504-12.089-6.569-16.329c4.349-4.363,10.365-7.064,17.013-7.064
			c13.267,0,24.021,10.754,24.021,24.021c0,13.266-10.754,24.021-24.021,24.021c-6.965,0-13.233-2.968-17.621-7.704
			C142.451,62.379,145.205,56.375,145.205,49.726z"/>
		<path fill="#020202" d="M166.301,29.883c19.217,12.114,43.444,14.203,54.307,25.482c10.861,11.279,4.596,19.633,4.596,19.633
			c-7.104-14.62-48.458-18.38-64.332-5.012"/>
		<circle fill="#FCFCFC" stroke="#020202" stroke-miterlimit="10" cx="161.496" cy="44.295" r="7.52"/>
		<rect x="127.5" y="41.23" fill="#020202" stroke="#FCFCFC" stroke-miterlimit="10" width="19" height="19"/>
		<circle id="dummy_20_" fill="#00FF00" cx="137.648" cy="51.484" r="3.318"/>
		<g id="Layer_11_copy">
			<rect x="138" y="-0.27" fill="#020202" width="34" height="32"/>
			<rect x="131" y="27.73" fill="#020202" width="49" height="5"/>
			<circle id="dummy_27_" fill="#00FF00" cx="154.648" cy="29.484" r="3.318"/>
		</g>
	</g>
	<g id="Layer_12_copy">
		<rect x="0.5" y="7.23" fill="#FFFFFF" stroke="#020202" stroke-miterlimit="10" width="19" height="19"/>
		<circle id="dummy_24_" fill="#00FF00" cx="9.648" cy="18.484" r="3.318"/>
	</g>
</g>
<g id="Layer_1_1_">
</g>
</svg>
