<?xml version="1.0" encoding="iso-8859-1"?>
<!-- Generator: Adobe Illustrator 16.0.0, SVG Export Plug-In . SVG Version: 6.00 Build 0)  -->
<!DOCTYPE svg PUBLIC "-//W3C//DTD SVG 1.1//EN" "http://www.w3.org/Graphics/SVG/1.1/DTD/svg11.dtd">
<svg version="1.1" xmlns="http://www.w3.org/2000/svg" xmlns:xlink="http://www.w3.org/1999/xlink" x="0px" y="0px"
	 width="226.201px" height="71.998px" viewBox="0 0 226.201 71.998" style="enable-background:new 0 0 226.201 71.998;"
	 xml:space="preserve">
<g id="rootHandL">
	<polygon style="fill:#020202;" points="216.201,9 141.868,38.998 215.951,69.25 	"/>
	<circle id="dummy_2_" style="fill:#00FF00;" cx="63.353" cy="37.484" r="3.318"/>
	<g id="Layer_9">
		<polygon style="fill:#020202;" points="161.201,13 86.868,42.998 161.868,71.998 		"/>
		<rect x="148" y="29.998" style="fill:#FCFCFC;" width="19" height="19"/>
		<circle id="dummy_3_" style="fill:#00FF00;" cx="159.352" cy="39.484" r="3.318"/>
	</g>
	<g id="Layer_10">
		<path style="fill:#020202;" d="M81.796,42.726c0-6.339,2.503-12.089,6.569-16.329C84.016,22.033,78,19.332,71.353,19.332
			c-13.266,0-24.02,10.754-24.02,24.02c0,13.266,10.754,24.021,24.02,24.021c6.965,0,13.234-2.968,17.622-7.704
			C84.55,55.379,81.796,49.375,81.796,42.726z"/>
		<path style="fill:#020202;" d="M60.7,22.883C41.483,34.997,17.255,37.086,6.394,48.365S1.798,67.998,1.798,67.998
			c7.102-14.62,48.458-18.38,64.332-5.012"/>
		<circle style="fill:#FCFCFC;stroke:#020202;stroke-miterlimit:10;" cx="65.504" cy="37.295" r="7.519"/>
		<rect x="80.5" y="34.498" style="fill:#FCFCFC;stroke:#020202;stroke-miterlimit:10;" width="19" height="19"/>
		<circle id="dummy_4_" style="fill:#00FF00;" cx="89.353" cy="44.484" r="3.318"/>
		<g id="Layer_11">
			<circle id="dummy_5_" style="fill:#00FF00;" cx="72.353" cy="22.484" r="3.318"/>
		</g>
	</g>
	<g id="Layer_12">
		<rect x="207" y="-0.002" style="fill:#020202;" width="19" height="19"/>
		<circle id="dummy_6_" style="fill:#00FF00;" cx="217.352" cy="11.484" r="3.318"/>
	</g>
</g>
<g id="Layer_1">
</g>
</svg>
