<?xml version="1.0" encoding="iso-8859-1"?>
<!-- Generator: Adobe Illustrator 16.0.0, SVG Export Plug-In . SVG Version: 6.00 Build 0)  -->
<!DOCTYPE svg PUBLIC "-//W3C//DTD SVG 1.1//EN" "http://www.w3.org/Graphics/SVG/1.1/DTD/svg11.dtd">
<svg version="1.1" xmlns="http://www.w3.org/2000/svg" xmlns:xlink="http://www.w3.org/1999/xlink" x="0px" y="0px"
	 width="384.159px" height="233px" viewBox="0 0 384.159 233" style="enable-background:new 0 0 384.159 233;" xml:space="preserve"
	>
<g id="rootBody">
	<polygon style="fill:#ED1C24;" points="200.538,0 195.038,233 207.038,233 	"/>
	<circle id="dummy_15_" style="fill:#00FF00;" cx="201.032" cy="122.484" r="3.318"/>
	<g id="Layer_29">
		<line style="fill:none;stroke:#FFFFFF;stroke-width:2;stroke-miterlimit:10;" x1="201.373" y1="56.333" x2="294.04" y2="63"/>
		<circle id="dummy_16_" style="fill:#00FF00;" cx="201.032" cy="56.484" r="3.318"/>
		<g id="Layer_74">
			<line style="fill:none;stroke:#FFFFFF;stroke-width:2;stroke-miterlimit:10;" x1="266.706" y1="42.333" x2="267.373" y2="87"/>
			<circle id="dummy_57_" style="fill:#00FF00;" cx="267.032" cy="61.484" r="3.318"/>
		</g>
		<g id="Layer_75">
			<line style="fill:none;stroke:#FFFFFF;stroke-width:2;stroke-miterlimit:10;" x1="283.373" y1="57" x2="281.373" y2="70.333"/>
			<circle id="dummy_56_" style="fill:#00FF00;" cx="283.032" cy="63.484" r="3.318"/>
		</g>
	</g>
	<g id="Layer_28">
		
			<line style="fill:none;stroke:#FFFFFF;stroke-width:2;stroke-miterlimit:10;" x1="204.039" y1="135.666" x2="384.039" y2="157.391"/>
		<circle id="dummy_17_" style="fill:#00FF00;" cx="204.032" cy="135.484" r="3.318"/>
		<g id="Layer_46">
			
				<line style="fill:none;stroke:#FFFFFF;stroke-width:2;stroke-miterlimit:10;" x1="256.706" y1="142.333" x2="252.706" y2="190.999"/>
			<circle id="dummy_20_" style="fill:#00FF00;" cx="257.032" cy="143.484" r="3.318"/>
			<g id="Layer_79">
				
					<line style="fill:none;stroke:#FFFFFF;stroke-width:2;stroke-miterlimit:10;" x1="253.706" y1="168.666" x2="309.04" y2="182.666"/>
				<circle id="dummy_60_" style="fill:#00FF00;" cx="255.032" cy="168.484" r="3.318"/>
				<g id="Layer_80">
					
						<line style="fill:none;stroke:#FFFFFF;stroke-width:2;stroke-miterlimit:10;" x1="299.706" y1="167.999" x2="286.373" y2="194.666"/>
					<circle id="dummy_61_" style="fill:#00FF00;" cx="295.032" cy="179.484" r="3.318"/>
				</g>
			</g>
		</g>
		<g id="Layer_76">
			
				<line style="fill:none;stroke:#FFFFFF;stroke-width:2;stroke-miterlimit:10;" x1="375.505" y1="144.201" x2="361.539" y2="176.011"/>
			<circle id="dummy_45_" style="fill:#00FF00;" cx="371.032" cy="156.484" r="3.318"/>
		</g>
		<g id="Layer_77">
			
				<line style="fill:none;stroke:#FFFFFF;stroke-width:2;stroke-miterlimit:10;" x1="358.436" y1="144.977" x2="356.885" y2="159.718"/>
			<circle id="dummy_58_" style="fill:#00FF00;" cx="357.032" cy="154.484" r="3.318"/>
		</g>
		<g id="Layer_78">
			
				<line style="fill:none;stroke:#FFFFFF;stroke-width:2;stroke-miterlimit:10;" x1="345.246" y1="144.201" x2="342.919" y2="159.718"/>
			<circle id="dummy_59_" style="fill:#00FF00;" cx="344.032" cy="152.484" r="3.318"/>
		</g>
	</g>
	<g id="Layer_44">
		
			<line style="fill:none;stroke:#FFFFFF;stroke-width:2;stroke-miterlimit:10;" x1="196.706" y1="171.666" x2="62.04" y2="220.333"/>
		<circle id="dummy_18_" style="fill:#00FF00;" cx="197.032" cy="172.484" r="3.318"/>
		<g id="Layer_48">
			
				<line style="fill:none;stroke:#FFFFFF;stroke-width:2;stroke-miterlimit:10;" x1="46.373" y1="173.333" x2="62.373" y2="219.333"/>
			<circle id="dummy_22_" style="fill:#00FF00;" cx="62.032" cy="219.484" r="3.318"/>
		</g>
		<g id="Layer_82">
			<line style="fill:none;stroke:#FFFFFF;stroke-width:2;stroke-miterlimit:10;" x1="75.373" y1="211" x2="80.706" y2="222.333"/>
			<circle id="dummy_62_" style="fill:#00FF00;" cx="77.032" cy="215.484" r="3.318"/>
		</g>
		<g id="Layer_81">
			
				<line style="fill:none;stroke:#FFFFFF;stroke-width:2;stroke-miterlimit:10;" x1="88.04" y1="192.333" x2="93.373" y2="220.333"/>
			<circle id="dummy_63_" style="fill:#00FF00;" cx="91.032" cy="209.484" r="3.318"/>
		</g>
	</g>
	<g id="Layer_45">
		<line style="fill:none;stroke:#FFFFFF;stroke-width:2;stroke-miterlimit:10;" x1="196.706" y1="112.333" x2="56.04" y2="129"/>
		<circle id="dummy_19_" style="fill:#00FF00;" cx="197.032" cy="112.484" r="3.318"/>
		<g id="Layer_47">
			<line style="fill:none;stroke:#FFFFFF;stroke-width:2;stroke-miterlimit:10;" x1="55.703" y1="128.665" x2="0.37" y2="106.665"/>
			<circle id="dummy_21_" style="fill:#00FF00;" cx="56.032" cy="129.484" r="3.318"/>
		</g>
		<g id="Layer_83">
			<line style="fill:none;stroke:#FFFFFF;stroke-width:2;stroke-miterlimit:10;" x1="80.04" y1="109" x2="84.04" y2="143.666"/>
			<circle id="dummy_64_" style="fill:#00FF00;" cx="82.032" cy="126.484" r="3.318"/>
		</g>
		<g id="Layer_84">
			
				<line style="fill:none;stroke:#FFFFFF;stroke-width:2;stroke-miterlimit:10;" x1="88.04" y1="117.666" x2="89.373" y2="126.333"/>
			<circle id="dummy_65_" style="fill:#00FF00;" cx="89.032" cy="125.484" r="3.318"/>
		</g>
	</g>
</g>
<g id="Layer_1">
</g>
</svg>
