<?xml version="1.0" encoding="iso-8859-1"?>
<!-- Generator: Adobe Illustrator 16.0.0, SVG Export Plug-In . SVG Version: 6.00 Build 0)  -->
<!DOCTYPE svg PUBLIC "-//W3C//DTD SVG 1.1//EN" "http://www.w3.org/Graphics/SVG/1.1/DTD/svg11.dtd">
<svg version="1.1" xmlns="http://www.w3.org/2000/svg" xmlns:xlink="http://www.w3.org/1999/xlink" x="0px" y="0px"
	 width="188.124px" height="144.208px" viewBox="0 0 188.124 144.208" style="enable-background:new 0 0 188.124 144.208;"
	 xml:space="preserve">
<g id="rootHandL">
	<path style="fill:#C1272D;" d="M156.793,106.332c19.333,24.667-32.667,38.001-36,24.668c-3.092-12.368-8.139-23.283-14.329-32.793
		l30.363-18.531C145.065,89.485,151.088,99.053,156.793,106.332z"/>
	<circle id="dummy_69_" style="fill:#00FF00;" cx="149.465" cy="132.484" r="3.318"/>
	<g id="Layer_55_copy">
		<path style="fill:#D4145A;" d="M134.827,80.676l-30.363,18.531C97.213,88.068,88.39,78.871,79.263,71.562l17.021-21.796
			C113.659,58.473,125.628,69.724,134.827,80.676z"/>
		<circle id="dummy_77_" style="fill:#00FF00;" cx="122.465" cy="88.484" r="3.318"/>
		<g id="Layer_56_copy">
			<path style="fill:#F15A24;" d="M100.637,53.398l-21.374,17.55C69.992,59.374,59.596,50.656,50.63,45.28l12.268-13.634
				C78.545,37.938,90.831,45.391,100.637,53.398z"/>
			<circle id="dummy_93_" style="fill:#00FF00;" cx="88.465" cy="61.484" r="3.318"/>
			<g id="Layer_57_copy">
				<path style="fill:#FBB03B;" d="M16.044,33.664l2.375-7.847c8.859,2.364,20.932,3.906,37.354,3.895
					c1.801-0.001,3.562,0.028,5.304,0.076l-6.768,17.047c-1.767-0.331-3.463-0.589-5.067-0.767
					C39.021,44.935,26.562,40.149,16.044,33.664z"/>
				<circle id="dummy_79_" style="fill:#00FF00;" cx="56.465" cy="39.484" r="3.318"/>
				<g id="Layer_58_copy">
					<path style="fill:#FCEE21;" d="M1.793,0c0,0-7.417,15.616,20.172,27.131l-3.405,7.458C5.131,23.572-4.05,9.738,1.793,0z"/>
					<circle id="dummy_96_" style="fill:#00FF00;" cx="19.465" cy="30.484" r="3.318"/>
				</g>
			</g>
		</g>
	</g>
	<g id="Layer_55_copy_5">
		<g id="Layer_56_copy_5">
			<g id="Layer_57_copy_5">
				<g id="Layer_58_copy_5">
				</g>
			</g>
		</g>
	</g>
	<g id="Layer_66_copy_2">
		<path style="fill:#C1272D;" d="M162.218,111.084c0.661,15.82-24.606,5.965-22.044-0.488c2.377-5.987,3.523-11.954,3.786-17.681
			l17.922,1.346C162.371,100.715,162.021,106.415,162.218,111.084z"/>
		<circle id="dummy_85_" style="fill:#00FF00;" cx="155.465" cy="120.484" r="3.318"/>
		<g id="Layer_55_copy_5_1_">
			<path style="fill:#C1272D;" d="M140.82,95.2l23.471-3.063c-0.889-8.8-0.153-17.248,1.527-24.845l-17.917-4.195
				C142.528,74.858,141.02,85.685,140.82,95.2z"/>
			<circle id="dummy_72_" style="fill:#00FF00;" cx="153.76" cy="93.838" r="2.207"/>
			<g id="Layer_56_copy_5_1_">
				<path style="fill:#ED1C24;" d="M147.162,66.795l18.4,0.179c-0.023-9.867,1.728-18.725,4.132-25.252l-12.048-1.949
					C152.161,49.563,148.902,58.553,147.162,66.795z"/>
				<circle id="dummy_88_" style="fill:#00FF00;" cx="158.108" cy="66.318" r="2.208"/>
				<g id="Layer_57_copy_5_1_">
					<path style="fill:#FBB03B;" d="M166.082,13.82l5.276,1.39c-1.359,5.949-2.094,14.015-1.688,24.935
						c0.044,1.196,0.066,2.369,0.076,3.526l-11.499-4.088c0.179-1.182,0.309-2.317,0.388-3.387
						C159.143,29.371,162.022,20.971,166.082,13.82z"/>
					<circle id="dummy_74_" style="fill:#00FF00;" cx="160.879" cy="39.124" r="2.208"/>
					<g id="Layer_58_copy_5_1_">
						<path style="fill:#FCEE21;" d="M188.124,3.531c0,0-10.563-4.555-17.554,14.07l-5.042-2.086
							C172.529,6.32,181.507-0.12,188.124,3.531z"/>
						<circle id="dummy_90_" style="fill:#00FF00;" cx="168.279" cy="16.019" r="2.208"/>
					</g>
				</g>
			</g>
		</g>
	</g>
	<g id="Layer_66_copy_2_1_">
		<path style="fill:#C1272D;" d="M126.689,122.933c15.134,4.657-2.59,25.186-7.818,20.616c-4.851-4.238-10.092-7.311-15.404-9.47
			l7.25-16.444C116.966,119.327,122.223,121.56,126.689,122.933z"/>
		<circle id="dummy_66_" style="fill:#00FF00;" cx="133.297" cy="132.435" r="3.318"/>
		<g id="Layer_55_copy_5_2_">
			<path style="fill:#ED1C24;" d="M104.574,137.802l4.945-23.147c-8.592-2.1-16.31-5.612-22.911-9.732l-9.933,15.49
				C85.969,129.402,95.67,134.438,104.574,137.802z"/>
			<circle id="dummy_76_" style="fill:#00FF00;" cx="107.61" cy="125.149" r="2.207"/>
			<g id="Layer_56_copy_5_2_">
				<path style="fill:#F15A24;" d="M79.915,122.344l6.31-17.286c-9.311-3.271-17.075-7.878-22.425-12.323l-5.859,10.707
					C65.339,111.88,72.726,117.952,79.915,122.344z"/>
				<circle id="dummy_68_" style="fill:#00FF00;" cx="83.119" cy="111.866" r="2.208"/>
				<g id="Layer_57_copy_5_2_">
					<path style="fill:#FBB03B;" d="M39.474,82.826l-3.416,5.233c5.522,2.973,12.075,7.901,19.771,15.713
						c0.844,0.854,1.688,1.676,2.53,2.476l6.665-12.13c-1.02-0.666-1.964-1.338-2.819-2.006
						C56.756,87.85,48.151,84.431,39.474,82.826z"/>
					<circle id="dummy_82_" style="fill:#00FF00;" cx="58.408" cy="100.177" r="2.208"/>
					<g id="Layer_58_copy_5_2_">
						<path style="fill:#FCEE21;" d="M11.718,83.067c0,0,5.434-10.642,23.901,3.475l2.655-4.993
							C26.277,76.658,14.572,75.62,11.718,83.067z"/>
						<circle id="dummy_70_" style="fill:#00FF00;" cx="39.098" cy="85.49" r="2.207"/>
					</g>
				</g>
			</g>
		</g>
	</g>
</g>
<g id="Layer_1">
</g>
</svg>
