<?xml version="1.0" encoding="iso-8859-1"?>
<!-- Generator: Adobe Illustrator 16.0.0, SVG Export Plug-In . SVG Version: 6.00 Build 0)  -->
<!DOCTYPE svg PUBLIC "-//W3C//DTD SVG 1.1//EN" "http://www.w3.org/Graphics/SVG/1.1/DTD/svg11.dtd">
<svg version="1.1" xmlns="http://www.w3.org/2000/svg" xmlns:xlink="http://www.w3.org/1999/xlink" x="0px" y="0px"
	 width="274.659px" height="187.354px" viewBox="0 0 274.659 187.354" style="enable-background:new 0 0 274.659 187.354;"
	 xml:space="preserve">
<g id="rootHandR">
	<path style="fill:#C1272D;" d="M31.331,149.478c-19.333,24.667,32.667,38.001,36,24.668c3.092-12.368,8.139-23.283,14.329-32.793
		l-30.363-18.531C43.059,132.631,37.036,142.198,31.331,149.478z"/>
	<circle id="dummy_33_" style="fill:#00FF00;" cx="38.659" cy="175.63" r="3.318"/>
	<g id="Layer_55">
		<path style="fill:#D4145A;" d="M53.297,123.821l30.363,18.531c7.251-11.139,16.074-20.336,25.201-27.645L91.84,92.912
			C74.465,101.618,62.496,112.869,53.297,123.821z"/>
		<circle id="dummy_37_" style="fill:#00FF00;" cx="65.659" cy="131.63" r="3.318"/>
		<g id="Layer_56">
			<path style="fill:#F15A24;" d="M87.487,96.544l21.374,17.55c9.271-11.574,19.667-20.292,28.633-25.668l-12.268-13.634
				C109.579,81.083,97.293,88.536,87.487,96.544z"/>
			<circle id="dummy_36_" style="fill:#00FF00;" cx="99.659" cy="104.63" r="3.318"/>
			<g id="Layer_57">
				<path style="fill:#FBB03B;" d="M172.08,76.81l-2.375-7.847c-8.859,2.364-20.932,3.906-37.354,3.895
					c-1.801-0.001-3.562,0.028-5.304,0.076l6.768,17.047c1.767-0.331,3.463-0.589,5.067-0.767
					C149.104,88.08,161.562,83.295,172.08,76.81z"/>
				<circle id="dummy_35_" style="fill:#00FF00;" cx="131.659" cy="82.63" r="3.318"/>
				<g id="Layer_58">
					<path style="fill:#FCEE21;" d="M186.331,43.146c0,0,7.417,15.616-20.172,27.131l3.405,7.458
						C182.993,66.718,192.174,52.884,186.331,43.146z"/>
					<circle id="dummy_34_" style="fill:#00FF00;" cx="168.659" cy="73.63" r="3.318"/>
					<g id="key">
						<path style="fill:#FCEE21;" d="M196.285,27.238c-4.995,1.657-7.12,1.595-9.87,1.595s-4.938-0.875-9.373-2.11
							c-22.945-8.563-43.232-1.615-48.564-0.161l0.097,4.686c0,0,1.956,1.131,2.925,4.687c0.97,3.555,2.456,29.246,25.886,29.893
							c23.429,0.646,24.142-23.43,24.626-27.146c0.484-3.716,1.654-5.655,4.654-6.14c0.75,0.605,4-0.582,4.651,6.655
							c0.336,3.732,1.195,27.792,24.624,27.146c23.43-0.646,24.916-26.338,25.885-29.893c0.97-3.555,2.924-4.686,2.924-4.686
							l0.098-4.687C239.515,25.622,219.229,18.675,196.285,27.238z"/>
						<path style="fill:#C1272D;" d="M155.38,25.026c7.029-0.242,27.393,0.948,22.783,22.541
							c-4.604,21.571-31.266,17.45-39.021,5.816C131.92,42.552,133.337,25.786,155.38,25.026z"/>
						<path style="fill:#FCEE21;" d="M128.478,26.562c-2.99-3.07-20.441-24.075-22.541-25.691c-2.101-1.616-7.109-1.131-7.271,2.747
							c2.908,0.322,3.555-0.323,3.555-0.323c1.939-0.97,25.53,25.368,26.338,27.953"/>
						<path style="fill:#C1272D;" d="M217.943,25.542c-7.028-0.243-27.393,0.948-22.783,22.54
							c4.604,21.571,31.267,17.451,39.022,5.817C241.403,43.067,239.987,26.302,217.943,25.542z"/>
						<path style="fill:#FCEE21;" d="M244.847,27.076c2.989-3.069,20.44-24.075,22.541-25.691c2.1-1.615,7.109-1.131,7.271,2.747
							c-2.909,0.323-3.555-0.323-3.555-0.323c-1.939-0.969-25.531,25.368-26.339,27.954"/>
						<circle id="dummy_39_" style="fill:#00FF00;" cx="186.659" cy="41.63" r="3.318"/>
					</g>
				</g>
			</g>
		</g>
	</g>
	<g id="Layer_55_copy_2">
		<g id="Layer_56_copy_2">
			<g id="Layer_57_copy_2">
				<g id="Layer_58_copy_2">
				</g>
			</g>
		</g>
	</g>
	<g id="Layer_66">
		<path style="fill:#C1272D;" d="M25.906,154.229c-0.661,15.82,24.606,5.965,22.044-0.488c-2.377-5.987-3.523-11.954-3.786-17.681
			l-17.922,1.346C25.753,143.86,26.103,149.561,25.906,154.229z"/>
		<circle id="dummy_42_" style="fill:#00FF00;" cx="32.659" cy="163.63" r="3.318"/>
		<g id="Layer_55_copy_3">
			<path style="fill:#C1272D;" d="M47.304,138.346l-23.471-3.063c0.889-8.8,0.153-17.248-1.527-24.845l17.917-4.195
				C45.596,118.004,47.104,128.83,47.304,138.346z"/>
			<circle id="dummy_50_" style="fill:#00FF00;" cx="34.364" cy="136.984" r="2.207"/>
			<g id="Layer_56_copy_3">
				<path style="fill:#ED1C24;" d="M40.962,109.94l-18.4,0.179c0.023-9.867-1.728-18.725-4.132-25.252l12.048-1.949
					C35.963,92.709,39.222,101.698,40.962,109.94z"/>
				<circle id="dummy_43_" style="fill:#00FF00;" cx="30.016" cy="109.464" r="2.208"/>
				<g id="Layer_57_copy_3">
					<path style="fill:#FBB03B;" d="M22.042,56.966l-5.276,1.39c1.359,5.949,2.094,14.015,1.688,24.935
						c-0.044,1.196-0.066,2.369-0.076,3.526l11.499-4.088c-0.179-1.182-0.309-2.317-0.388-3.387
						C28.981,72.517,26.102,64.116,22.042,56.966z"/>
					<circle id="dummy_53_" style="fill:#00FF00;" cx="27.245" cy="82.269" r="2.208"/>
					<g id="Layer_58_copy_3">
						<path style="fill:#FCEE21;" d="M0,46.677c0,0,10.563-4.555,17.554,14.07l5.042-2.086C15.595,49.466,6.617,43.025,0,46.677z"/>
						<circle id="dummy_46_" style="fill:#00FF00;" cx="19.845" cy="59.165" r="2.208"/>
					</g>
				</g>
			</g>
		</g>
	</g>
	<g id="Layer_66_copy">
		<path style="fill:#C1272D;" d="M61.435,166.078c-15.134,4.657,2.59,25.186,7.818,20.616c4.851-4.238,10.092-7.311,15.404-9.47
			l-7.25-16.444C71.158,162.473,65.901,164.705,61.435,166.078z"/>
		<circle id="dummy_40_" style="fill:#00FF00;" cx="54.827" cy="175.581" r="3.318"/>
		<g id="Layer_55_copy_4">
			<path style="fill:#ED1C24;" d="M83.55,180.947L78.604,157.8c8.592-2.1,16.31-5.612,22.911-9.732l9.933,15.49
				C102.155,172.548,92.454,177.583,83.55,180.947z"/>
			<circle id="dummy_47_" style="fill:#00FF00;" cx="80.514" cy="168.295" r="2.207"/>
			<g id="Layer_56_copy_4">
				<path style="fill:#F15A24;" d="M108.209,165.489l-6.31-17.286c9.311-3.271,17.075-7.878,22.425-12.323l5.859,10.707
					C122.785,155.025,115.398,161.098,108.209,165.489z"/>
				<circle id="dummy_44_" style="fill:#00FF00;" cx="105.005" cy="155.011" r="2.208"/>
				<g id="Layer_57_copy_4">
					<path style="fill:#FBB03B;" d="M148.65,125.972l3.416,5.233c-5.522,2.973-12.075,7.901-19.771,15.713
						c-0.844,0.854-1.688,1.676-2.53,2.476l-6.665-12.13c1.02-0.666,1.964-1.338,2.819-2.006
						C131.368,130.995,139.973,127.576,148.65,125.972z"/>
					<circle id="dummy_52_" style="fill:#00FF00;" cx="129.716" cy="143.323" r="2.208"/>
					<g id="Layer_58_copy_4">
						<path style="fill:#FCEE21;" d="M176.406,126.213c0,0-5.434-10.642-23.901,3.475l-2.655-4.993
							C161.847,119.804,173.552,118.766,176.406,126.213z"/>
						<circle id="dummy_48_" style="fill:#00FF00;" cx="149.026" cy="128.636" r="2.207"/>
					</g>
				</g>
			</g>
		</g>
	</g>
</g>
<g id="Layer_1">
</g>
</svg>
