<?xml version="1.0" encoding="iso-8859-1"?>
<!-- Generator: Adobe Illustrator 16.0.0, SVG Export Plug-In . SVG Version: 6.00 Build 0)  -->
<!DOCTYPE svg PUBLIC "-//W3C//DTD SVG 1.1//EN" "http://www.w3.org/Graphics/SVG/1.1/DTD/svg11.dtd">
<svg version="1.1" xmlns="http://www.w3.org/2000/svg" xmlns:xlink="http://www.w3.org/1999/xlink" x="0px" y="0px"
	 width="238.385px" height="185.668px" viewBox="0 0 238.385 185.668" style="enable-background:new 0 0 238.385 185.668;"
	 xml:space="preserve">
<g id="rootHead">
	<ellipse style="fill:#FCEE21;" cx="138.002" cy="137.004" rx="42.334" ry="48.664"/>
	<ellipse style="fill:#ED1C24;" cx="138.002" cy="137.004" rx="35.667" ry="41"/>
	<line style="fill:none;stroke:#5F5F5F;stroke-width:2;stroke-miterlimit:10;" x1="112" y1="79.668" x2="113" y2="79.668"/>
	<ellipse id="lock" style="fill:#FCEE21;" cx="136.729" cy="129.004" rx="20.728" ry="20"/>
	<path style="fill:#5F5F5F;" d="M137.119,114.426c-3.523,13.923-2.176,16.464-0.938,27.698
		C141.384,131.056,138.547,120.184,137.119,114.426z"/>
	<circle id="dummy_38_" style="fill:#00FF00;" cx="137.996" cy="130.488" r="3.318"/>
	<g id="Layer_35">
		
			<line style="fill:none;stroke:#FFFFFF;stroke-width:2;stroke-miterlimit:10;" x1="129.67" y1="148.671" x2="123.004" y2="162.004"/>
		<circle style="fill:#FFFFFF;" cx="122.167" cy="164.506" r="3.167"/>
		<circle id="dummy_7_" style="fill:#00FF00;" cx="129.996" cy="148.488" r="3.318"/>
	</g>
	<g id="Layer_34">
		
			<line style="fill:none;stroke:#FFFFFF;stroke-width:2;stroke-miterlimit:10;" x1="116.003" y1="132.671" x2="3.002" y2="132.006"/>
		<circle id="dummy_6_" style="fill:#00FF00;" cx="115.996" cy="133.488" r="3.318"/>
		<g id="Layer_69">
			
				<line style="fill:none;stroke:#FFFFFF;stroke-width:2;stroke-miterlimit:10;" x1="29.002" y1="118.006" x2="25.002" y2="146.672"/>
			<circle id="dummy_49_" style="fill:#00FF00;" cx="26.996" cy="132.488" r="3.318"/>
		</g>
		<g id="Layer_70">
			
				<line style="fill:none;stroke:#FFFFFF;stroke-width:2;stroke-miterlimit:10;" x1="14.335" y1="118.672" x2="16.335" y2="142.672"/>
			<circle id="dummy_41_" style="fill:#00FF00;" cx="15.996" cy="131.488" r="3.318"/>
		</g>
		<g id="Layer_37">
			<line style="fill:none;stroke:#FFFFFF;stroke-width:2;stroke-miterlimit:10;" x1="3" y1="83.668" x2="3" y2="131.668"/>
			<circle style="fill:none;stroke:#FFFFFF;stroke-width:2;stroke-miterlimit:10;" cx="4.167" cy="81.506" r="3.167"/>
			<circle id="dummy_8_" style="fill:#00FF00;" cx="3.996" cy="131.488" r="3.318"/>
		</g>
	</g>
	<g id="Layer_33">
		<line style="fill:none;stroke:#FFFFFF;stroke-width:2;stroke-miterlimit:10;" x1="122.004" y1="114.671" x2="95.67" y2="87.004"/>
		<circle style="fill:#FFFFFF;" cx="95.167" cy="85.506" r="3.167"/>
		<circle id="dummy_5_" style="fill:#00FF00;" cx="121.996" cy="114.488" r="3.318"/>
	</g>
	<g id="Layer_32">
		
			<line style="fill:none;stroke:#FFFFFF;stroke-width:2;stroke-miterlimit:10;" x1="139.337" y1="109.338" x2="143.67" y2="82.004"/>
		<circle style="fill:#FFFFFF;" cx="144.167" cy="79.506" r="3.167"/>
		<circle id="dummy_4_" style="fill:#00FF00;" cx="138.996" cy="109.488" r="3.318"/>
	</g>
	<g id="Layer_31">
		
			<line style="fill:none;stroke:#FFFFFF;stroke-width:2;stroke-miterlimit:10;" x1="154.336" y1="119.17" x2="176.002" y2="98.504"/>
		<circle style="fill:#FFFFFF;" cx="178.167" cy="97.506" r="3.167"/>
		<circle id="dummy_3_" style="fill:#00FF00;" cx="153.996" cy="119.488" r="3.318"/>
	</g>
	<g id="Layer_30">
		
			<line style="fill:none;stroke:#FFFFFF;stroke-width:2;stroke-miterlimit:10;" x1="157.004" y1="131.004" x2="214.002" y2="136.671"/>
		<circle style="fill:#FFFFFF;" cx="214.167" cy="136.506" r="3.167"/>
		<circle id="dummy_2_" style="fill:#00FF00;" cx="157.996" cy="131.488" r="3.318"/>
		<g id="Layer_71">
			
				<line style="fill:none;stroke:#FFFFFF;stroke-width:2;stroke-miterlimit:10;" x1="201.336" y1="123.672" x2="203.336" y2="147.672"/>
			<circle id="dummy_51_" style="fill:#00FF00;" cx="201.996" cy="136.488" r="3.318"/>
		</g>
	</g>
	<g id="Layer_36">
		
			<line style="fill:none;stroke:#FFFFFF;stroke-width:2;stroke-miterlimit:10;" x1="147.004" y1="146.671" x2="166.337" y2="169.338"/>
		<circle style="fill:#FFFFFF;" cx="168.167" cy="171.506" r="3.167"/>
		<circle id="dummy_1_" style="fill:#00FF00;" cx="146.996" cy="146.488" r="3.318"/>
	</g>
	<g id="Layer_72">
		<polygon style="fill:#FFFFFF;" points="72.376,37.182 119.425,102.546 121.831,100.779 		"/>
		<circle id="dummy_9_" style="fill:#00FF00;" cx="120.996" cy="101.488" r="3.318"/>
		<g id="Layer_38">
			<line style="fill:none;stroke:#FFFFFF;stroke-width:2;stroke-miterlimit:10;" x1="82.002" y1="23.004" x2="58.002" y2="45.004"/>
			<circle id="dummy_54_" style="fill:#00FF00;" cx="70.996" cy="34.488" r="3.318"/>
		</g>
		<g id="Layer_73">
			<line style="fill:none;stroke:#FFFFFF;stroke-width:2;stroke-miterlimit:10;" x1="81.002" y1="36.671" x2="71.002" y2="45.337"/>
			<circle id="dummy_55_" style="fill:#00FF00;" cx="75.996" cy="41.488" r="3.318"/>
		</g>
	</g>
	<g id="Layer_39">
		
			<radialGradient id="SVGID_1_" cx="282.8682" cy="-10.1211" r="37.2833" gradientTransform="matrix(0.8601 0.5101 -0.5101 0.8601 -62.7495 -76.6902)" gradientUnits="userSpaceOnUse">
			<stop  offset="0" style="stop-color:#DCCCD4;stop-opacity:0.8"/>
			<stop  offset="1" style="stop-color:#BDCCD4"/>
		</radialGradient>
		<polygon style="fill:url(#SVGID_1_);stroke:#FFFFFF;stroke-miterlimit:10;" points="213.871,14.338 157.199,103.141 
			160.51,105.21 		"/>
		<circle id="dummy_10_" style="fill:#00FF00;" cx="158.996" cy="103.488" r="3.318"/>
		<g id="Layer_40">
			
				<radialGradient id="SVGID_2_" cx="532.6426" cy="-60.5718" r="29.3186" gradientTransform="matrix(0.9906 -0.1371 0.1371 0.9906 -307.0378 162.4016)" gradientUnits="userSpaceOnUse">
				<stop  offset="0" style="stop-color:#DCCCD4;stop-opacity:0.8"/>
				<stop  offset="1" style="stop-color:#BDCCD4"/>
			</radialGradient>
			<path style="fill:url(#SVGID_2_);" d="M190.295,37.063l12.464,5.424c2.162-4.596,5.02-8.54,8.092-11.785l-7.586-7.358
				C197.144,27.55,193.202,32.436,190.295,37.063z"/>
			<circle id="dummy_11_" style="fill:#00FF00;" cx="196.996" cy="41.488" r="3.318"/>
			<g id="Layer_41">
				
					<radialGradient id="SVGID_3_" cx="542.6582" cy="-10.6655" r="29.3217" gradientTransform="matrix(0.9366 -0.3503 0.3503 0.9366 -292.2878 228.3943)" gradientUnits="userSpaceOnUse">
					<stop  offset="0" style="stop-color:#DCCCD4;stop-opacity:0.8"/>
					<stop  offset="1" style="stop-color:#BDCCD4"/>
				</radialGradient>
				<path style="fill:url(#SVGID_3_);" d="M202.101,24.402l9.011,5.523c2.902-4.868,6.381-8.713,9.492-11.218l-5.358-4.518
					C209.653,17.391,205.392,20.856,202.101,24.402z"/>
				<circle id="dummy_12_" style="fill:#00FF00;" cx="206.996" cy="25.488" r="3.318"/>
				<g id="Layer_42">
					
						<radialGradient id="SVGID_4_" cx="519.2705" cy="-86.3984" r="29.3199" gradientTransform="matrix(1 -0.0031 0.0031 1 -311.9218 114.4033)" gradientUnits="userSpaceOnUse">
						<stop  offset="0" style="stop-color:#DCCCD4;stop-opacity:0.8"/>
						<stop  offset="1" style="stop-color:#BDCCD4"/>
					</radialGradient>
					<path style="fill:url(#SVGID_4_);" d="M232.064,13.31l-1.31-2.846c-3.23,1.36-7.719,2.576-13.936,3.432
						c-0.682,0.093-1.348,0.197-2.003,0.307l3.454,6.098c0.651-0.217,1.279-0.404,1.878-0.556
						C223.959,18.78,228.424,16.316,232.064,13.31z"/>
					<circle id="dummy_13_" style="fill:#00FF00;" cx="218.996" cy="17.488" r="3.318"/>
					<g id="Layer_43">
						
							<radialGradient id="SVGID_5_" cx="530.0137" cy="-60.0117" r="29.3174" gradientTransform="matrix(0.9906 -0.1371 0.1371 0.9906 -307.0378 162.4016)" gradientUnits="userSpaceOnUse">
							<stop  offset="0" style="stop-color:#DCCCD4;stop-opacity:0.8"/>
							<stop  offset="1" style="stop-color:#BDCCD4"/>
						</radialGradient>
						<path style="fill:url(#SVGID_5_);" d="M237.303,0c0,0,3.626,5.523-6.214,11.327l1.679,2.645
							C237.274,9.097,240.025,3.381,237.303,0z"/>
						<circle id="dummy_14_" style="fill:#00FF00;" cx="231.996" cy="12.488" r="3.318"/>
					</g>
				</g>
			</g>
		</g>
	</g>
</g>
<g id="Layer_1">
</g>
</svg>
