<?xml version="1.0" encoding="iso-8859-1"?>
<!-- Generator: Adobe Illustrator 16.0.0, SVG Export Plug-In . SVG Version: 6.00 Build 0)  -->
<!DOCTYPE svg PUBLIC "-//W3C//DTD SVG 1.1//EN" "http://www.w3.org/Graphics/SVG/1.1/DTD/svg11.dtd">
<svg version="1.1" xmlns="http://www.w3.org/2000/svg" xmlns:xlink="http://www.w3.org/1999/xlink" x="0px" y="0px" width="640px"
	 height="380.942px" viewBox="0 0 640 380.942" style="enable-background:new 0 0 640 380.942;" xml:space="preserve">
<g id="text">
	<path style="fill:#FFFFFF;" d="M16.771,3.489h27.045L5.613,74.884v42.83h-23.868v-42.83L-57.777,3.489h28.13l23.713,49.75
		L16.771,3.489z"/>
	<path style="fill:#FFFFFF;" d="M145.411,107.562c-8.629,8.887-21.105,13.329-37.429,13.329c-16.326,0-28.802-4.442-37.43-13.329
		C58.979,96.663,53.193,80.957,53.193,60.446c0-20.923,5.785-36.627,17.358-47.116c8.627-8.885,21.104-13.329,37.43-13.329
		c16.324,0,28.8,4.444,37.429,13.329c11.52,10.489,17.281,26.193,17.281,47.116C162.691,80.957,156.93,96.663,145.411,107.562z
		 M130.493,90.204c5.553-6.974,8.331-16.894,8.331-29.757c0-12.812-2.778-22.717-8.331-29.719c-5.554-7-13.058-10.5-22.512-10.5
		s-16.998,3.487-22.628,10.462c-5.632,6.974-8.447,16.894-8.447,29.757s2.815,22.783,8.447,29.757
		c5.63,6.975,13.174,10.461,22.628,10.461S124.939,97.178,130.493,90.204z"/>
	<path style="fill:#FFFFFF;" d="M180.902,3.489h24.256v70.153c0,7.846,0.926,13.576,2.78,17.189
		c2.881,6.401,9.162,9.602,18.841,9.602c9.626,0,15.88-3.2,18.762-9.602c1.854-3.613,2.781-9.343,2.781-17.189V3.489h24.255v70.209
		c0,12.141-1.883,21.595-5.648,28.362c-7.013,12.399-20.397,18.599-40.149,18.599c-19.754,0-33.164-6.2-40.229-18.599
		c-3.766-6.767-5.647-16.221-5.647-28.362V3.489z"/>
	<path style="fill:#FFFFFF;" d="M368.715,6.434c4.206,1.809,7.771,4.469,10.692,7.981c2.419,2.895,4.332,6.097,5.743,9.609
		c1.411,3.514,2.117,7.517,2.117,12.011c0,5.425-1.37,10.76-4.107,16.002c-2.74,5.244-7.259,8.951-13.561,11.121
		c5.27,2.119,9,5.128,11.197,9.028c2.194,3.901,3.294,9.855,3.294,17.862v7.672c0,5.219,0.208,8.756,0.628,10.616
		c0.631,2.945,2.099,5.115,4.409,6.51v2.867H362.78c-0.726-2.53-1.24-4.572-1.551-6.122c-0.619-3.203-0.957-6.482-1.007-9.842
		l-0.155-10.616c-0.099-7.285-1.355-12.14-3.775-14.569c-2.42-2.428-6.953-3.642-13.598-3.642h-23.311v44.791h-23.326V3.489h54.636
		C358.501,3.644,364.509,4.626,368.715,6.434z M319.384,23.327v30.687h25.687c5.102,0,8.928-0.62,11.479-1.86
		c4.515-2.169,6.772-6.457,6.772-12.864c0-6.922-2.185-11.572-6.551-13.949c-2.453-1.343-6.134-2.015-11.04-2.015H319.384z"/>
	<path style="fill:#FFFFFF;" d="M44.545,156.764H-15.9v24.255h55.485v19.838H-15.9v29.371h63.235v20.535h-86.56V136.539h83.77
		V156.764z"/>
	<path style="fill:#FFFFFF;" d="M142.729,172.186c-1.809-7.801-6.226-13.251-13.251-16.351c-3.927-1.705-8.292-2.558-13.096-2.558
		c-9.196,0-16.752,3.468-22.667,10.404c-5.917,6.936-8.873,17.363-8.873,31.284c0,14.025,3.202,23.951,9.609,29.777
		c6.405,5.826,13.689,8.74,21.853,8.74c8.007,0,14.569-2.297,19.684-6.893c5.114-4.596,8.265-10.615,9.454-18.061h-26.425v-19.063
		h47.581v61.297h-15.809l-2.402-14.26c-4.599,5.4-8.731,9.207-12.399,11.418c-6.304,3.857-14.053,5.787-23.248,5.787
		c-15.138,0-27.537-5.242-37.197-15.723c-10.074-10.531-15.111-24.936-15.111-43.215c0-18.481,5.087-33.299,15.266-44.45
		c10.177-11.153,23.636-16.728,40.374-16.728c14.517,0,26.179,3.681,34.988,11.043c8.808,7.362,13.858,16.545,15.15,27.549H142.729z
		"/>
	<path style="fill:#FFFFFF;" d="M277.336,240.611c-8.63,8.887-21.106,13.33-37.43,13.33c-16.326,0-28.803-4.443-37.43-13.33
		c-11.574-10.9-17.358-26.605-17.358-47.115c0-20.923,5.785-36.628,17.358-47.116c8.627-8.886,21.104-13.329,37.43-13.329
		c16.323,0,28.8,4.443,37.43,13.329c11.518,10.487,17.28,26.192,17.28,47.116C294.616,214.006,288.854,229.711,277.336,240.611z
		 M262.418,223.254c5.552-6.975,8.33-16.895,8.33-29.758c0-12.812-2.778-22.718-8.33-29.719c-5.555-7-13.058-10.5-22.512-10.5
		s-16.999,3.487-22.628,10.462c-5.633,6.974-8.447,16.894-8.447,29.757c0,12.863,2.814,22.783,8.447,29.758
		c5.629,6.975,13.174,10.461,22.628,10.461S256.863,230.229,262.418,223.254z"/>
	<path style="fill:#FFFFFF;" d="M-18.147,377.766H-41.86V263.541h23.713V377.766z"/>
	<path style="fill:#FFFFFF;" d="M21.375,342.506c0.738,5.219,2.189,9.119,4.352,11.701c3.956,4.701,10.734,7.053,20.335,7.053
		c5.749,0,10.418-0.621,14.004-1.859c6.805-2.377,10.208-6.793,10.208-13.252c0-3.77-1.667-6.689-5-8.756
		c-3.335-2.016-8.621-3.799-15.86-5.348l-12.366-2.713c-12.154-2.686-20.504-5.605-25.049-8.756
		c-7.699-5.27-11.547-13.51-11.547-24.721c0-10.229,3.765-18.727,11.296-25.496c7.531-6.768,18.592-10.15,33.185-10.15
		c12.185,0,22.578,3.189,31.182,9.57c8.603,6.381,13.114,15.641,13.532,27.781H66.708c-0.424-6.871-3.496-11.752-9.216-14.646
		c-3.813-1.91-8.553-2.867-14.22-2.867c-6.303,0-11.334,1.24-15.096,3.719c-3.761,2.48-5.64,5.941-5.64,10.385
		c0,4.082,1.854,7.129,5.561,9.145c2.383,1.344,7.44,2.918,15.176,4.727l20.045,4.727c8.786,2.066,15.371,4.832,19.756,8.293
		c6.809,5.373,10.213,13.148,10.213,23.324c0,10.438-4.034,19.104-12.102,26c-8.067,6.896-19.464,10.346-34.189,10.346
		c-15.039,0-26.866-3.396-35.482-10.191c-8.616-6.793-12.923-16.131-12.923-28.014H21.375z"/>
	<path style="fill:#FFFFFF;" d="M180.972,263.541h27.006l40.413,114.225h-25.883l-7.538-23.48h-42.064l-7.744,23.48h-24.966
		L180.972,263.541z M179.399,334.602h29.253l-14.429-44.945L179.399,334.602z"/>
	<path style="fill:#FFFFFF;" d="M348.112,275.707c3.495,4.855,5.244,10.668,5.244,17.436c0,6.975-1.765,12.582-5.291,16.816
		c-1.971,2.377-4.875,4.547-8.712,6.51c5.829,2.119,10.229,5.477,13.194,10.074c2.968,4.598,4.45,10.178,4.45,16.738
		c0,6.77-1.695,12.838-5.086,18.211c-2.157,3.564-4.854,6.561-8.09,8.988c-3.646,2.791-7.949,4.701-12.905,5.734
		c-4.957,1.035-10.337,1.551-16.142,1.551H263.31V263.541h55.199C332.438,263.748,342.305,267.803,348.112,275.707z
		 M286.092,283.379v25.186h27.763c4.959,0,8.984-0.941,12.078-2.828c3.093-1.887,4.641-5.232,4.641-10.035
		c0-5.32-2.045-8.836-6.136-10.539c-3.528-1.189-8.028-1.783-13.498-1.783H286.092z M286.092,327.473v30.455h27.732
		c4.951,0,8.809-0.67,11.565-2.016c5.005-2.479,7.509-7.232,7.509-14.258c0-5.941-2.428-10.023-7.278-12.244
		c-2.708-1.24-6.512-1.887-11.414-1.938H286.092z"/>
	<path style="fill:#FFFFFF;" d="M465.489,367.613c-8.63,8.887-21.106,13.33-37.43,13.33c-16.326,0-28.803-4.443-37.429-13.33
		c-11.574-10.898-17.358-26.605-17.358-47.115c0-20.924,5.784-36.627,17.358-47.115c8.626-8.885,21.103-13.33,37.429-13.33
		c16.323,0,28.8,4.445,37.43,13.33c11.519,10.488,17.281,26.191,17.281,47.115C482.771,341.008,477.008,356.715,465.489,367.613z
		 M450.571,350.256c5.552-6.975,8.331-16.895,8.331-29.758c0-12.812-2.779-22.717-8.331-29.719c-5.554-7-13.058-10.5-22.512-10.5
		s-16.999,3.486-22.628,10.461c-5.632,6.975-8.446,16.895-8.446,29.758s2.814,22.783,8.446,29.758
		c5.629,6.975,13.174,10.461,22.628,10.461S445.018,357.23,450.571,350.256z"/>
	<path style="fill:#FFFFFF;" d="M500.981,263.541h24.255v70.152c0,7.846,0.926,13.576,2.779,17.189
		c2.882,6.402,9.163,9.602,18.842,9.602c9.626,0,15.879-3.199,18.762-9.602c1.854-3.613,2.781-9.344,2.781-17.189v-70.152h24.255
		v70.209c0,12.141-1.883,21.594-5.648,28.361c-7.013,12.4-20.397,18.6-40.149,18.6c-19.755,0-33.165-6.199-40.23-18.6
		c-3.765-6.768-5.646-16.221-5.646-28.361V263.541z"/>
	<path style="fill:#FFFFFF;" d="M698.589,263.541v20.225h-34.175v94h-24.022v-94h-34.329v-20.225H698.589z"/>
</g>
<g id="Layer_1">
</g>
</svg>
